<?xml version="1.0" standalone="no"?>
<!DOCTYPE svg PUBLIC "-//W3C//DTD SVG 20010904//EN"
 "http://www.w3.org/TR/2001/REC-SVG-20010904/DTD/svg10.dtd">
<svg version="1.0" xmlns="http://www.w3.org/2000/svg"
 width="50.000000pt" height="50.000000pt" viewBox="0 0 50.000000 50.000000"
 preserveAspectRatio="xMidYMid meet">

<g transform="translate(0.000000,50.000000) scale(0.100000,-0.100000)"
fill="#000000" stroke="none">
<path d="M137 462 c-68 -75 -76 -311 -14 -404 19 -27 30 -34 63 -36 58 -4 70
13 54 77 -13 55 -23 67 -60 73 -24 3 -25 6 -25 78 0 72 1 75 25 78 37 6 47 18
60 73 10 39 9 53 0 64 -18 21 -83 19 -103 -3z"/>
<path d="M350 303 c0 -3 7 -15 17 -25 15 -17 13 -18 -55 -18 -41 0 -72 -4 -72
-10 0 -6 31 -10 72 -10 71 0 71 0 53 -20 -31 -34 -6 -36 27 -2 l32 32 -29 30
c-27 29 -45 38 -45 23z"/>
</g>
</svg>
