<svg
width="18"
height="18"
viewbox="0 0 17 15"
fill="white"
xmlns="http://www.w3.org/2000/svg"
>
<path
    fill-rule="evenodd"
    clip-rule="evenodd"
    d="M14.3638 6.4906L16.7602 4.4774C16.8315 4.4093 16.8881 4.32776 16.9269 4.23762C16.9656 4.14748 16.9855 4.05058 16.9855 3.95268C16.9855 3.85479 16.9656 3.75789 16.9269 3.66775C16.8881 3.57761 16.8315 3.49607 16.7602 3.42797L14.3638 1.41477C14.0395 1.10324 13.2277 0.989355 13.2277 1.3696V3.02703H9.48621C8.95294 3.02703 8.52271 3.42609 8.52271 3.91739C8.52271 4.40869 8.95294 4.80775 9.48621 4.80775H13.2277V6.44542C13.2277 6.70707 14.008 6.73436 14.3638 6.4906Z"
    fill="white"
></path>
<path
    fill-rule="evenodd"
    clip-rule="evenodd"
    d="M12.4152 11.1247C12.0069 10.6174 11.3439 9.88232 10.7763 9.81267C10.431 9.77032 10.0341 10.0527 9.64298 10.319C9.56667 10.3567 8.97712 10.703 8.90557 10.7237C8.5278 10.8301 7.7217 10.8612 7.23423 10.4226C6.76488 9.99903 6.02269 9.21502 5.4236 8.49689C4.85122 7.75712 4.25118 6.86769 3.94401 6.32181C3.62347 5.75615 3.85433 5.00791 4.05276 4.67849C4.08901 4.6192 4.52783 4.17401 4.62609 4.07048L4.6404 4.08743C5.00386 3.78625 5.38449 3.48036 5.42742 3.14906C5.49801 2.59752 4.92659 1.79469 4.51829 1.28645C4.10999 0.777268 3.47752 -0.114037 2.61609 0.0120818C2.29174 0.0591412 2.01223 0.171143 1.73653 0.332086L1.7289 0.323615L1.68311 0.358439L1.65926 0.370674L1.66213 0.374439C1.50377 0.494911 1.05159 0.828092 1.00008 0.873269C0.441053 1.36363 -0.400343 2.51847 0.25026 4.59567C0.732965 6.13922 1.76229 7.95194 3.16462 9.78538L3.15699 9.79197C3.22567 9.88044 3.29626 9.96044 3.36781 10.0461C3.43459 10.1336 3.50041 10.2202 3.5691 10.3068L3.57864 10.3002C5.06682 12.0687 6.6275 13.4824 8.05177 14.3163C9.96924 15.4382 11.3325 14.9327 11.9621 14.5308C12.0212 14.4923 12.4715 14.1468 12.6241 14.033L12.6279 14.0367C12.6337 14.0311 12.6375 14.0235 12.6451 14.0179C12.6589 14.0077 12.6725 13.9973 12.6861 13.9868L12.6804 13.9793C12.9113 13.7591 13.0963 13.5238 13.2242 13.2273C13.559 12.4471 12.8235 11.6339 12.4152 11.1247Z"
    fill="white"
></path>
</svg>