<svg width="22" height="22" xmlns="http://www.w3.org/2000/svg">
<g>
<title>Layer 1</title>
<path
    id="svg_1"
    fill="white"
    d="m9.50003,4.99998c0.28732,0 0.56287,-0.11413 0.76607,-0.3173c0.2031,-0.20316 0.3173,-0.47871 0.3173,-0.76603c0,-0.28732 -0.1142,-0.56287 -0.3173,-0.76603c-0.2032,-0.20317 -0.47875,-0.3173 -0.76607,-0.3173c-0.28732,0 -0.56287,0.11413 -0.76603,0.3173c-0.20317,0.20316 -0.3173,0.47871 -0.3173,0.76603c0,0.28732 0.11413,0.56287 0.3173,0.76603c0.20316,0.20317 0.47871,0.3173 0.76603,0.3173zm-1.08333,1.9825c-0.72172,-0.25462 -1.33047,-0.75569 -1.7191,-1.415c-0.38862,-0.6593 -0.53219,-1.43457 -0.40544,-2.18932c0.12675,-0.75474 0.51571,-1.44058 1.09838,-1.93677c0.58267,-0.496181 1.32172,-0.770902 2.08702,-0.775796c0.76534,-0.004894 1.50784,0.260354 2.09674,0.749046c0.589,0.48869 0.9867,1.1695 1.1231,1.92257c0.1364,0.75306 0.0027,1.5301 -0.3774,2.19432c-0.3802,0.66422 -0.9825,1.17304 -1.7009,1.43687l0,2.197c0,0.08017 -0.0032,0.16033 -0.0087,0.23942c0.0325,0.14289 0.0935,0.27772 0.1796,0.39634c0.086,0.11861 0.1952,0.21854 0.3209,0.29374l3.3432,1.9998c0.4824,0.2886 0.8816,0.6972 1.1589,1.1862c0.2772,0.4889 0.4229,1.0414 0.4228,1.6034l0,1.1473c0.72,0.2642 1.3234,0.7745 1.7035,1.4406c0.3801,0.6661 0.5125,1.4451 0.3738,2.1994c-0.1387,0.7543 -0.5396,1.4353 -1.1319,1.9226c-0.5922,0.4872 -1.3377,0.7495 -2.1045,0.7402c-0.7669,-0.0092 -1.5059,-0.2892 -2.0863,-0.7905c-0.5803,-0.5014 -0.9648,-1.1918 -1.0854,-1.9492c-0.1206,-0.7574 0.0305,-1.533 0.4265,-2.1898c0.396,-0.6568 1.0115,-1.1524 1.7376,-1.3993l0,-1.1213c-0.0001,-0.1873 -0.0487,-0.3714 -0.1412,-0.5343c-0.0924,-0.1629 -0.2256,-0.2991 -0.3864,-0.3952l-3.34314,-1.9998c-0.17073,-0.1021 -0.33174,-0.2195 -0.481,-0.351c-0.14891,0.1314 -0.30955,0.2489 -0.47991,0.351l-3.34317,1.9998c-0.1608,0.0961 -0.29393,0.2323 -0.3864,0.3952c-0.09246,0.1629 -0.14111,0.347 -0.14118,0.5343l0,1.1343c0.72312,0.2555 1.3326,0.7585 1.72072,1.42c0.38812,0.6615 0.52989,1.4389 0.40024,2.1948c-0.12965,0.7559 -0.52236,1.4417 -1.10873,1.936c-0.58636,0.4944 -1.32862,0.7655 -2.09557,0.7655c-0.76694,0 -1.5092,-0.2711 -2.09556,-0.7655c-0.58637,-0.4943 -0.97908,-1.1801 -1.10873,-1.936c-0.129648,-0.7559 0.012118,-1.5333 0.40024,-2.1948c0.38812,-0.6615 0.9976,-1.1645 1.72072,-1.42l0,-1.1343c-0.00008,-0.562 0.1456,-1.1145 0.42282,-1.6034c0.27722,-0.489 0.6765,-0.8976 1.15885,-1.1862l3.34316,-1.9998c0.12576,-0.0752 0.23496,-0.17513 0.32099,-0.29374c0.08602,-0.11862 0.14709,-0.25345 0.17951,-0.39634c-0.00582,-0.07968 -0.00871,-0.15953 -0.00866,-0.23942l0,-2.184l0,0.00108zm-4.33334,13.18422c0.28732,0 0.56287,-0.1142 0.76604,-0.3173c0.20316,-0.2032 0.3173,-0.4788 0.3173,-0.7661c0,-0.2873 -0.11414,-0.5628 -0.3173,-0.766c-0.20317,-0.2032 -0.47872,-0.3173 -0.76604,-0.3173c-0.28731,0 -0.56286,0.1141 -0.76603,0.3173c-0.20316,0.2032 -0.3173,0.4787 -0.3173,0.766c0,0.2873 0.11414,0.5629 0.3173,0.7661c0.20317,0.2031 0.47872,0.3173 0.76603,0.3173zm10.83334,0c0.2873,0 0.5629,-0.1142 0.766,-0.3173c0.2032,-0.2032 0.3173,-0.4788 0.3173,-0.7661c0,-0.2873 -0.1141,-0.5628 -0.3173,-0.766c-0.2031,-0.2032 -0.4787,-0.3173 -0.766,-0.3173c-0.2873,0 -0.5629,0.1141 -0.766,0.3173c-0.2032,0.2032 -0.3173,0.4787 -0.3173,0.766c0,0.2873 0.1141,0.5629 0.3173,0.7661c0.2031,0.2031 0.4787,0.3173 0.766,0.3173z"
></path>
</g>
</svg>