<svg width="22" height="22" xmlns="http://www.w3.org/2000/svg">
    <g>
    <title>Layer 1</title>
    <path
        id="svg_1"
        fill="white"
        d="m17.9022,0l-16.8047,0c-0.158453,0.00018 -0.310356,0.061245 -0.422375,0.169794c-0.112019,0.108548 -0.175001,0.255712 -0.175125,0.409192l0,1.164764c0,0.05367 0.060077,0.11526 0.109167,0.14016l8.832943,4.88708c0.02263,0.01252 0.04828,0.01901 0.07434,0.01879c0.02664,0.00007 0.0528,-0.00681 0.07574,-0.01992l8.56601,-4.88119c0.0481,-0.02604 0.1758,-0.09488 0.2237,-0.12658c0.058,-0.03826 0.1178,-0.07291 0.1178,-0.14152l0,-1.04181c-0.0002,-0.153441 -0.0632,-0.300547 -0.1752,-0.409046c-0.112,-0.1085 -0.2639,-0.169534 -0.4223,-0.169714z"
    ></path>
    <path
        id="svg_2"
        fill="white"
        d="m18.4253,3.50011c-0.023,-0.0127 -0.0491,-0.01931 -0.0755,-0.01915c-0.0265,0.00016 -0.0525,0.00708 -0.0753,0.02006l-4.8475,2.76269c-0.0193,0.0109 -0.0359,0.02588 -0.0484,0.04382c-0.0125,0.01793 -0.0207,0.03837 -0.024,0.0598c-0.0032,0.02142 -0.0015,0.04328 0.0052,0.06396c0.0066,0.02067 0.018,0.03962 0.0333,0.05546l4.8482,5.06235c0.0139,0.0146 0.0308,0.0263 0.0496,0.0342c0.0188,0.008 0.0391,0.012 0.0596,0.012c0.0396,-0.0001 0.0775,-0.0153 0.1055,-0.0425c0.028,-0.0271 0.0438,-0.0639 0.0438,-0.1022l0,-7.82482c0.0001,-0.02545 -0.0067,-0.05048 -0.0198,-0.07255c-0.0131,-0.02207 -0.032,-0.04039 -0.0547,-0.05312z"
    ></path>
    <path
        id="svg_3"
        fill="white"
        d="m12.0306,7.19114c-0.023,-0.02427 -0.0539,-0.04017 -0.0876,-0.04503c-0.0336,-0.00486 -0.068,0.0016 -0.0973,0.01831l-1.94305,1.10748c-0.11384,0.06372 -0.24283,0.09766 -0.37431,0.09849c-0.13147,0.00083 -0.26091,-0.03147 -0.3756,-0.09373l-1.70997,-0.94626c-0.02761,-0.01523 -0.0595,-0.02156 -0.09107,-0.01805c-0.03156,0.0035 -0.06115,0.01664 -0.08449,0.03752l-6.493452,5.83423c-0.017023,0.0154 -0.030094,0.0345 -0.038169,0.0557c-0.008076,0.0211 -0.010933,0.0438 -0.008345,0.0663c0.002589,0.0224 0.010551,0.0439 0.023253,0.0629c0.012703,0.0189 0.029793,0.0347 0.04991,0.0461c0.100985,0.0575 0.198464,0.0849 0.297583,0.0849l16.63291,0c0.0291,0 0.0576,-0.0082 0.0819,-0.0237c0.0243,-0.0155 0.0434,-0.0376 0.0548,-0.0635c0.0117,-0.0258 0.0153,-0.0543 0.0104,-0.082c-0.0049,-0.0277 -0.0181,-0.0535 -0.0379,-0.074l-5.8095,-6.06566z"
    ></path>
    <path
        id="svg_4"
        fill="white"
        d="m5.83773,6.65971c0.0172,-0.0154 0.03042,-0.0345 0.03859,-0.05576c0.00817,-0.02127 0.01107,-0.04409 0.00845,-0.06664c-0.00262,-0.02255 -0.01067,-0.04418 -0.02351,-0.06316c-0.01284,-0.01897 -0.03011,-0.03476 -0.05041,-0.04608l-5.088072,-2.815c-0.022707,-0.01248 -0.048401,-0.01898 -0.074513,-0.01883c-0.026111,0.00015 -0.051724,0.00694 -0.074278,0.01968c-0.022554,0.01275 -0.041258,0.03101 -0.054242,0.05295c-0.012983,0.02195 -0.019791,0.04681 -0.019743,0.0721l0,7.38623c-0.000164,0.0282 0.008214,0.0558 0.0241,0.0795c0.015885,0.0236 0.038579,0.0422 0.065274,0.0535c0.026694,0.0113 0.056217,0.0147 0.084914,0.0099c0.028696,-0.0048 0.055308,-0.0176 0.076539,-0.037l5.086901,-4.57139z"
    ></path>
    </g>
</svg>