<svg id="Capa_1" 
    enable-background="new 0 0 511.548 511.548" 
    height="512" 
    viewBox="0 0 511.548 511.548" 
    width="512" 
    xmlns="http://www.w3.org/2000/svg"
    fill='orange'
>
    <g id="XMLID_443_">
        <path id="XMLID_447_" 
            d="m314.054 171.059h30.545v83.639h-30.545z" 
            transform="matrix(.707 -.707 .707 .707 -54.069 295.225)"
        />
        <path id="XMLID_456_" 
            d="m111.705 270.87h63.654v255.606h-63.654z" 
            transform="matrix(.707 -.707 .707 .707 -239.864 218.261)"
        />
        <path id="XMLID_459_" 
            d="m340.677 76.221c-7.858-5.932-17.379-9.148-27.398-9.148-12.18 0-23.63 4.743-32.242 13.355l-184.157 184.156 180.741 180.741 184.155-184.156c8.612-8.612 13.355-20.063 13.355-32.243 0-10.019-3.216-19.541-9.149-27.399zm-117.061 183.227-21.214-21.213 20.386-20.386 21.214 21.213zm39.35-1.422 21.213 21.214-20.386 20.386-21.213-21.214zm-18.343 60.77-20.386 20.386-21.213-21.213 20.386-20.386zm58.52-20.592 21.213 21.213-59.941 59.942-21.213-21.213zm-56.613-104.097 64.025-64.025 101.568 101.568-64.025 64.025zm-63.298 63.298 21.213 21.213-20.386 20.386-21.213-21.213z"
        />
        <path id="XMLID_465_" 
            d="m424.464 117.583 24.169-24.169-19.972-19.972 52.23-52.229-21.213-21.213-52.23 52.23-19.971-19.971-24.168 24.168z"
        />
    </g>
</svg>