 <svg
    width="22"
    height="22"
    viewbox="0 0 21 20"
    fill="white"
    xmlns="http://www.w3.org/2000/svg"
>
    <path
    d="M18.0001 1.6665H5.50008C5.05805 1.6665 4.63413 1.8421 4.32157 2.15466C4.00901 2.46722 3.83342 2.89114 3.83342 3.33317V5.83317H2.16675V7.49984H3.83342V9.16651H2.16675V10.8332H3.83342V12.4998H2.16675V14.1665H3.83342V16.6665C3.83342 17.1085 4.00901 17.5325 4.32157 17.845C4.63413 18.1576 5.05805 18.3332 5.50008 18.3332H18.0001C18.2211 18.3332 18.4331 18.2454 18.5893 18.0891C18.7456 17.9328 18.8334 17.7209 18.8334 17.4998V2.49984C18.8334 2.27882 18.7456 2.06686 18.5893 1.91058C18.4331 1.7543 18.2211 1.6665 18.0001 1.6665ZM11.3334 4.16567C12.7067 4.16567 13.8334 5.29151 13.8334 6.66567C13.831 7.32805 13.5669 7.96262 13.0986 8.43107C12.6303 8.89952 11.9958 9.16387 11.3334 9.16651C9.96092 9.16651 8.83342 8.03901 8.83342 6.66567C8.83342 5.29151 9.96092 4.16567 11.3334 4.16567ZM16.3334 14.9998H6.33342V14.3748C6.33342 12.5257 8.58758 10.6248 11.3334 10.6248C14.0793 10.6248 16.3334 12.5257 16.3334 14.3748V14.9998Z"
    fill="white"
    ></path>
</svg>