<?xml version="1.0" encoding="UTF-8"?>
<svg width="31px" height="30px" viewBox="0 0 31 30" version="1.1" xmlns="http://www.w3.org/2000/svg" xmlns:xlink="http://www.w3.org/1999/xlink">
    <!-- Generator: sketchtool 51.2 (57519) - http://www.bohemiancoding.com/sketch -->
    <title>07DC0603-0B4D-4DD3-AE25-40F3B6050D54</title>
    <desc>Created with sketchtool.</desc>
    <defs></defs>
    <g id="Updated" stroke="none" stroke-width="1" fill="none" fill-rule="evenodd">
        <g id="01-Train" transform="translate(-720.000000, -15.000000)" fill="#000000">
            <g id="Group-7" transform="translate(720.000000, 15.000000)">
                <g id="Alarm">
                    <path d="M17.8965408,2.40687607 L29.9028374,24.8186299 C30.6852395,26.2791137 30.1355456,28.097332 28.6750618,28.879734 C28.239344,29.1131543 27.7527,29.2352941 27.2583975,29.2352941 L3.24580415,29.2352941 C1.58894991,29.2352941 0.245804155,27.8921484 0.245804155,26.2352941 C0.245804155,25.7409916 0.367944009,25.2543477 0.601364245,24.8186299 L12.6076609,2.40687607 C13.390063,0.946392233 15.2082812,0.396698341 16.6687651,1.17910039 C17.1901008,1.45838738 17.6172538,1.88554036 17.8965408,2.40687607 Z M14.4138573,20.0870454 L15.8240136,20.0870454 L16.5476464,13.9361665 L16.5476464,10.225229 L13.6902245,10.225229 L13.6902245,13.9361665 L14.4138573,20.0870454 Z M13.7273339,23.8907563 L16.482705,23.8907563 L16.482705,21.1539399 L13.7273339,21.1539399 L13.7273339,23.8907563 Z" id="Combined-Shape"></path>
                </g>
            </g>
        </g>
    </g>
</svg>