<?xml version="1.0" encoding="UTF-8"?>
<svg width="16px" height="22px" viewBox="0 0 16 22" version="1.1" xmlns="http://www.w3.org/2000/svg" xmlns:xlink="http://www.w3.org/1999/xlink">
    <!-- Generator: sketchtool 51.2 (57519) - http://www.bohemiancoding.com/sketch -->
    <title>29EDC69D-7734-41CC-AEE0-6B344A3E010C</title>
    <desc>Created with sketchtool.</desc>
    <defs></defs>
    <g id="Updated" stroke="none" stroke-width="1" fill="none" fill-rule="evenodd">
        <g id="01-Train" transform="translate(-49.000000, -661.000000)" fill="#46AE20">
            <g id="Group-11" transform="translate(20.000000, 598.000000)">
                <g id="Group-9" transform="translate(29.000000, 63.000000)">
                    <g id="Answer">
                        <path d="M11.8351977,22 C11.4987752,21.9375363 11.1586565,21.8905392 10.8266625,21.8097266 C9.83978131,21.5694683 8.94349155,21.1218532 8.09211391,20.5726862 C6.74827205,19.7058229 5.61078884,18.6072782 4.59981276,17.3756862 C3.6767431,16.2511647 2.88426032,15.0355665 2.20182619,13.7452018 C1.73373586,12.860095 1.31812437,11.9526672 0.978668221,11.0119161 C0.542936938,9.80443787 0.226843463,8.56627262 0.0825876754,7.28427384 C-0.0361783895,6.22910565 -0.0403278792,5.17769863 0.159545017,4.13620425 C0.429819759,2.72776667 1.02922923,1.50563036 2.19356208,0.608466731 C2.52290602,0.354675194 2.89238495,0.285392214 3.27253399,0.212101999 C3.62039373,0.145033542 3.96971799,0.0859092537 4.31740338,0.0181026228 C4.72070588,-0.0605305723 5.08094434,0.119759842 5.23203459,0.505333162 C5.55185912,1.32154362 5.86097866,2.14197222 6.17487535,2.9605378 C6.32966177,3.36417883 6.490655,3.76549988 6.63916488,4.17149603 C6.80298255,4.61928695 6.77773691,5.05523191 6.52883727,5.47026192 C6.43580502,5.62538409 6.34503929,5.78194746 6.25605192,5.93949506 C6.12612756,6.16948924 5.96750547,6.35758322 5.7361104,6.50704605 C4.9189399,7.03491135 4.6348219,7.82651598 4.70250392,8.77303187 C4.76328173,9.6226711 5.05263018,10.4049255 5.40582498,11.1666516 C5.80972026,12.0377682 6.288132,12.8658949 6.84378005,13.6480439 C7.30231609,14.2934899 7.81109931,14.893837 8.4688806,15.3412412 C9.2976627,15.9049607 10.1630928,16.0000447 11.0631834,15.4994215 C11.1650028,15.4428281 11.2908474,15.4151993 11.4081489,15.4052515 C11.6103232,15.3880626 11.8157055,15.4082042 12.0177403,15.3900311 C12.672209,15.3312583 13.1439606,15.6127489 13.5389293,16.1252532 C14.2722034,17.0767957 15.0325363,18.0072475 15.7863487,18.9425853 C16.0691068,19.2934644 16.0745115,19.6987575 15.782792,20.0439422 C15.4290044,20.4625224 15.0864448,20.8917184 14.7143856,21.2931449 C14.5864488,21.4311484 14.3922248,21.517304 14.2146684,21.5960778 C13.7603865,21.7976698 13.2825327,21.9194335 12.7881855,21.9728281 C12.7604641,21.975816 12.733998,21.9906498 12.7069392,22 L11.8351977,22 Z" id="Fill-1"></path>
                        <path d="M16,10.800202 C15.9947362,11.4849263 15.9058754,12.0566846 15.7646886,12.621916 C15.7175224,12.8107951 15.6065676,12.9454505 15.4059555,12.9878588 C15.2277491,13.0255476 15.0594469,12.9763446 14.9640756,12.8283006 C14.9025726,12.7327733 14.8654491,12.5971472 14.8790934,12.4865577 C14.9220347,12.138723 15.0145663,11.7963107 15.0512049,11.4481413 C15.1826261,10.1988885 14.9308307,9.01979175 14.3160428,7.91376307 C13.8617308,7.09645862 13.2482242,6.41390999 12.4757655,5.86062787 C11.8522854,5.41408603 11.1655016,5.10022479 10.4269111,4.87984914 C10.3071949,4.84413517 10.1842235,4.77146877 10.1000031,4.68280306 C9.9721142,4.54814764 9.97353403,4.38075721 10.0665504,4.21631226 C10.1578007,4.05491321 10.3047015,3.97160291 10.4815574,4.00875616 C10.7617148,4.06759887 11.0418722,4.14093469 11.308974,4.24081332 C12.0060084,4.50145505 12.6529676,4.85337327 13.2354803,5.30828296 C14.2608079,6.10891866 15.0178215,7.10030783 15.4993529,8.28894391 C15.8401129,9.13004652 15.9956712,10.0017755 16,10.800202" id="Fill-3"></path>
                        <path d="M14,10.3263868 C13.9319495,10.7204679 13.8656039,11.15931 13.777835,11.5944877 C13.7158259,11.9020607 13.4796876,12.0454532 13.1798723,11.9873016 C12.9152313,11.935931 12.7653051,11.7038386 12.8368026,11.4138686 C13.0049646,10.732112 13.0428075,10.0505951 12.8872104,9.36226303 C12.6903235,8.49115433 12.256112,7.73645145 11.586207,7.10062018 C10.9990301,6.54324896 10.3006595,6.15005825 9.48916782,5.93183586 C9.3034002,5.88190362 9.11993058,5.81436838 9.04190967,5.63131774 C8.97508225,5.47460311 8.98271755,5.31333361 9.10462292,5.17911931 C9.24283669,5.02699378 9.42634338,4.95767769 9.63486864,5.02685679 C10.0114447,5.1516874 10.395693,5.26607264 10.7529955,5.42919148 C11.6082234,5.81967668 12.3113012,6.38944533 12.8652312,7.10425037 C13.35137,7.73151987 13.691771,8.42653009 13.8405482,9.19006872 C13.9102296,9.54750549 13.9429947,9.91107248 14,10.3263868" id="Fill-5"></path>
                        <path d="M12,10.6205735 C11.9574413,10.9571187 11.926638,11.2711392 11.8760956,11.5809272 C11.827942,11.8759737 11.6035185,12.0481021 11.3753547,11.9881316 C11.1513084,11.9292371 11.0120024,11.6769806 11.0734831,11.3903988 C11.2008136,10.7969342 11.179157,10.2147679 10.9813249,9.65006916 C10.6868398,8.80969235 10.1588475,8.24212416 9.40397996,7.95249365 C9.31597075,7.91874228 9.22315248,7.8814759 9.1508592,7.81849247 C9.00900722,7.69500048 8.96550553,7.47778656 9.02752059,7.30278876 C9.10254843,7.09106259 9.25175547,6.9554115 9.44389842,7.01348107 C9.72898537,7.09959907 10.0190386,7.20472687 10.2754282,7.36670475 C11.0654366,7.86583764 11.5910715,8.62637327 11.8407033,9.61703514 C11.9237463,9.94665797 11.9499605,10.2948961 12,10.6205735" id="Fill-7"></path>
                        <path d="M10,10.3462118 C9.97490181,10.4741219 9.96153041,10.6041332 9.92205976,10.7294839 C9.86092315,10.9236119 9.64122463,11.0259561 9.38398609,10.9943288 C9.14898554,10.9654224 8.9996835,10.8204595 9.00758479,10.6284867 C9.00865736,10.6016008 9.00661947,10.5738798 9.01469951,10.5481254 C9.13622193,10.1617014 8.84884411,9.81873116 8.34995508,9.68308942 C8.04988515,9.60146192 7.93633552,9.41579303 8.03440436,9.21719305 C8.12668132,9.03039269 8.37601858,8.95558095 8.67076139,9.02624397 C9.44233401,9.21123936 9.94497705,9.71703353 10,10.3462118" id="Fill-9"></path>
                    </g>
                </g>
            </g>
        </g>
    </g>
</svg>