<?xml version="1.0" encoding="UTF-8"?>
<svg width="20px" height="20px" viewBox="0 0 20 20" version="1.1" xmlns="http://www.w3.org/2000/svg" xmlns:xlink="http://www.w3.org/1999/xlink">
    <!-- Generator: sketchtool 51.2 (57519) - http://www.bohemiancoding.com/sketch -->
    <title>83131ED1-8C5A-4D9E-A66E-D2DE56EE4675</title>
    <desc>Created with sketchtool.</desc>
    <defs></defs>
    <g id="Updated" stroke="none" stroke-width="1" fill="none" fill-rule="evenodd">
        <g id="02a-Select-Subscriber" transform="translate(-322.000000, -244.000000)">
            <g id="Group-2" transform="translate(102.000000, 231.000000)">
                <g id="Group-7-Copy-8">
                    <g id="Group-15">
                        <g id="Call-wave" transform="translate(220.000000, 13.000000)">
                            <path d="M0,4.31526816 C0.0383730159,4.04842867 0.0657142857,3.7794395 0.11702381,3.51510798 C0.314960317,2.49579946 0.74765873,1.59699267 1.49527778,0.864189255 C1.66543651,0.697429505 1.82626984,0.519364009 2.00833333,0.366855867 C2.63015873,-0.15396481 3.43654762,-0.116982282 4.01154762,0.45706298 C5.01007937,1.45383963 6.00515873,2.45407966 7.00019841,3.45431969 C7.65376984,4.11124722 7.65734127,4.95440108 7.00456349,5.62096237 C6.50865079,6.12733239 6.0052381,6.62625814 5.50281746,7.12617911 C5.45178571,7.17697535 5.38488095,7.21172858 5.35011905,7.23633052 C6.77007937,10.1434199 8.77730159,12.4427061 11.5582143,14.0255105 C11.9028175,14.2216492 12.2511508,14.4113788 12.5921825,14.6134491 C12.6984524,14.6764269 12.7603968,14.6629316 12.845119,14.5765064 C13.3550397,14.056044 13.868373,13.5388857 14.3859524,13.0260666 C14.8978175,12.5189402 15.5964683,12.4073557 16.1834127,12.7417908 C16.3134127,12.8158355 16.4313889,12.9187417 16.5380952,13.0252705 C17.5318254,14.0174691 18.5196429,15.0155992 19.5146825,16.0064842 C19.7566667,16.247408 19.9087698,16.531644 20,16.8550918 L20,17.2531815 C19.911627,17.6927521 19.6767857,18.0419165 19.3438889,18.332721 C19.2493651,18.4152848 19.1631746,18.5076017 19.0747619,18.5970525 C18.4946429,19.1840357 17.8006349,19.5773482 17.0133333,19.8070061 C16.7554365,19.8822451 16.4913889,19.9362658 16.2301587,20 L15.2777778,20 C15.2271429,19.9869825 15.1771429,19.9700239 15.125754,19.9615445 C14.7486111,19.8994426 14.3665873,19.8593947 13.9946032,19.7746813 C11.7783333,19.2699434 9.83503968,18.1994406 8.03269841,16.8459756 C6.5825,15.7569616 5.29678571,14.488648 4.08190476,13.1466878 C2.92880952,11.8729602 1.86519841,10.5314777 1.07416667,8.99365742 C0.612103175,8.09544777 0.263412698,7.15659316 0.113373016,6.15137701 C0.0735714286,5.88465695 0.0376984127,5.61733976 0,5.35030122 L0,4.31526816 Z" id="Fill-1-Copy-2" fill="#5C6166"></path>
                            <path d="M8,7.69158973 L9.9018465,7.69158973 C10.1906553,7.71851555 10.4008325,8.19478781 10.5323779,9.12040651 C10.7296962,10.5088346 11.3395803,9.6235728 11.4071491,9.12040651 C11.474718,8.61724022 11.7421801,6.65612196 11.8912416,5.859744 C12.0403032,5.06336604 12.6402689,4.81783882 12.7659651,5.859744 C12.8916614,6.90164918 13.2941181,10.0952674 13.701534,10.7245113 C14.1089499,11.3537553 14.8499662,11.1054147 14.9542998,9.39850221 C15.0586334,7.69158973 15.1734575,5.24118135 15.3647675,4.59763205 C15.5560775,3.95408274 16.2366777,3.66087108 16.4473952,4.59763205 C16.6581128,5.53439302 16.6210143,7.29313849 16.7165262,8.01584397 C16.8120382,8.73854946 17.3108175,8.97072503 17.6399833,8.01584397 C17.8002984,7.69158973 17.8859733,7.72759219 18.190071,7.69158973 C18.4135209,7.66513526 18.9175455,7.66513526 19.7021449,7.69158973" id="Path-6" stroke="#5C6166" stroke-linecap="round" stroke-linejoin="round"></path>
                        </g>
                    </g>
                </g>
            </g>
        </g>
    </g>
</svg>