<?xml version="1.0" encoding="UTF-8"?>
<svg width="20px" height="25px" viewBox="0 0 20 25" version="1.1" xmlns="http://www.w3.org/2000/svg" xmlns:xlink="http://www.w3.org/1999/xlink">
    <!-- Generator: sketchtool 51.2 (57519) - http://www.bohemiancoding.com/sketch -->
    <title>FBFDC72A-FD6C-4C0B-9639-CFCA8E76659B</title>
    <desc>Created with sketchtool.</desc>
    <defs></defs>
    <g id="Updated" stroke="none" stroke-width="1" fill="none" fill-rule="evenodd">
        <g id="02-Communication" transform="translate(-30.000000, -168.000000)" fill="#FF434F">
            <g id="Individual-Calls" transform="translate(30.000000, 168.000000)">
                <path d="M14.9712624,24.2589428 C17.0938313,24.2873106 18.3637573,23.8486398 19.4028934,22.7546474 C19.8767331,22.2558406 19.9721274,21.7573917 19.6805751,21.1774192 C18.942477,19.709098 17.8734519,18.555596 16.3595812,17.8712803 C15.4901145,17.4783379 15.4363322,17.5180706 14.9644613,18.3310703 C14.1472557,19.739166 12.8248896,19.9249433 11.6823947,18.7837012 C10.7224556,17.8250149 9.77092829,16.8580062 8.81796922,15.8923398 C7.8231297,14.8843455 6.81862546,13.8854791 5.84150459,12.8605715 C5.02528338,12.0046176 5.09141511,10.9705823 5.97797399,10.1964205 C6.22487173,9.98084357 6.48465577,9.77779501 6.78649922,9.64257845 C7.0889691,9.50709343 7.21085193,9.3158573 7.10749314,8.97034363 C6.5138289,6.98415464 5.15593605,5.75011335 3.25878773,5.05693831 C2.8602971,4.91134113 2.49715428,5.02123255 2.15611502,5.3276399 C1.0784095,6.29599093 0.584166567,7.50864455 0.548818757,8.9314163 C0.509086028,10.5322694 0.950262499,12.0297638 1.61238516,13.4589786 C3.45816728,17.4432586 6.35999881,20.4646462 10.1645866,22.614688 C11.8503639,23.5672891 13.6517599,24.2234161 14.9712624,24.2589428" id="Fill-1"></path>
                <path d="M14.7799278,13.6027771 C13.5134918,13.6029561 12.2468769,13.5949022 10.9805304,13.6090413 C10.6845931,13.6123523 10.5610995,13.5531112 10.5689745,13.2224526 C10.5905411,12.3141481 10.564679,11.4047697 10.5761335,10.4961073 C10.5943891,9.0493527 11.7533498,7.8930766 13.2035944,7.8772372 C14.3060882,7.86524579 15.4089399,7.86247166 16.5112546,7.87840055 C17.8795281,7.89808794 19.0276608,9.00496659 19.0724048,10.3661705 C19.1042626,11.3336267 19.071152,12.3030515 19.0884232,13.2712236 C19.0937925,13.5682347 18.961708,13.6080569 18.713468,13.6064461 C17.4023774,13.5980342 16.0911079,13.6025087 14.7799278,13.6027771" id="Fill-4"></path>
                <path d="M14.8778457,0.715878177 C16.4313596,0.718652309 17.728848,2.01354552 17.7334119,3.56553812 C17.7379758,5.14043969 16.4338653,6.44633994 14.8592322,6.4435658 C13.3067027,6.44097065 12.0101092,5.14536153 12.0056348,3.5921161 C12.0010709,2.01390347 13.30017,0.713014557 14.8778457,0.715878177" id="Fill-9"></path>
            </g>
        </g>
    </g>
</svg>