<?xml version="1.0" encoding="UTF-8"?>
<svg width="43px" height="59px" viewBox="0 0 43 59" version="1.1" xmlns="http://www.w3.org/2000/svg" xmlns:xlink="http://www.w3.org/1999/xlink">
    <!-- Generator: sketchtool 51.2 (57519) - http://www.bohemiancoding.com/sketch -->
    <title>A626CD44-6EBE-4C86-8D8F-C52337AB25D0</title>
    <desc>Created with sketchtool.</desc>
    <defs>
        <linearGradient x1="50%" y1="0%" x2="50%" y2="100%" id="linearGradient-1">
            <stop stop-color="#9DD931" offset="0%"></stop>
            <stop stop-color="#429321" offset="100%"></stop>
        </linearGradient>
        <path d="M16.5125809,49.9707043 C15.6060423,48.5951249 14.7281168,47.2893695 13.8767536,45.9666219 C10.4088991,40.5783664 7.1254187,35.0818106 4.25853786,29.3466817 C2.77563479,26.3802896 1.43511384,23.3538392 0.538340783,20.1452608 C-0.295248986,17.1626579 -0.13558178,14.218629 0.843026828,11.3163967 C2.20415314,7.2797949 4.7666409,4.20002445 8.46945525,2.10188994 C11.2223718,0.541936454 14.2019474,-0.146048542 17.367069,0.0257279818 C21.5172445,0.250922219 25.0961337,1.82493814 28.0659437,4.71418215 C30.6600719,7.23799823 32.2221739,10.3178663 32.8417021,13.8972438 C33.3170905,16.6439103 32.8775418,19.2681166 31.9865304,21.8531628 C30.3161283,26.6995264 27.9229756,31.2027275 25.4167376,35.6514368 C22.7341332,40.4134257 19.828483,45.0372318 16.7899233,49.5789093 C16.7184393,49.6858424 16.6413889,49.7891622 16.5125809,49.9707043" id="path-2"></path>
        <filter x="-22.7%" y="-11.0%" width="145.4%" height="130.0%" filterUnits="objectBoundingBox" id="filter-3">
            <feMorphology radius="0.5" operator="dilate" in="SourceAlpha" result="shadowSpreadOuter1"></feMorphology>
            <feOffset dx="0" dy="2" in="shadowSpreadOuter1" result="shadowOffsetOuter1"></feOffset>
            <feGaussianBlur stdDeviation="2" in="shadowOffsetOuter1" result="shadowBlurOuter1"></feGaussianBlur>
            <feComposite in="shadowBlurOuter1" in2="SourceAlpha" operator="out" result="shadowBlurOuter1"></feComposite>
            <feColorMatrix values="0 0 0 0 0   0 0 0 0 0   0 0 0 0 0  0 0 0 0.2 0" type="matrix" in="shadowBlurOuter1"></feColorMatrix>
        </filter>
    </defs>
    <g id="Updated" stroke="none" stroke-width="1" fill="none" fill-rule="evenodd">
        <g id="04-Location" transform="translate(-273.000000, -243.000000)">
            <g id="Location" transform="translate(278.000000, 246.000000)">
                <g id="Fill-1">
                    <use fill="black" fill-opacity="1" filter="url(#filter-3)" xlink:href="#path-2"></use>
                    <use stroke="#65AF30" stroke-width="1" fill="url(#linearGradient-1)" fill-rule="evenodd" xlink:href="#path-2"></use>
                </g>
                <path d="M21.5231676,21.2584923 C24.4158648,18.4144013 24.3814178,13.2144992 21.5905822,11.0420177 C21.2746425,11.3231934 20.9638804,11.5998255 20.6603036,11.8700121 C22.9500737,14.7363985 22.8803346,17.5470993 20.6771044,20.2865816 C20.9688467,20.6217524 21.2287837,20.9203629 21.5231676,21.2584923 M11.2136017,10.9401562 C8.31202861,13.6412819 8.32692743,18.8631624 11.2212096,21.2113655 C11.5104159,20.9192006 11.8041658,20.6222807 12.0939005,20.3296931 C9.80656063,17.4699635 9.84386053,14.6517605 12.076043,11.8740273 C11.7770098,11.5501628 11.5064006,11.2571525 11.2136017,10.9401562 M16.1517705,18.7907816 C17.6744095,18.7907816 18.9100612,17.5795386 18.9376399,16.0599639 C18.9654299,14.5269696 17.6927953,13.2411269 16.1493402,13.2429232 C14.6255388,13.2446138 13.3920004,14.4623024 13.3749883,15.9816658 C13.3574478,17.5393857 14.5944732,18.7908872 16.1517705,18.7907816 M8.47623271,23.9494742 C4.32537711,19.5686906 4.10390234,12.822903 8.42308299,8.26798278 C8.05177462,7.89561776 7.67983226,7.52283008 7.30651625,7.14845741 C2.18131961,11.875718 2.4666163,20.6970918 7.32817767,25 C7.70001436,24.6597573 8.07005474,24.3212052 8.47623271,23.9494742 M24.884491,24.9713647 C30.0908387,20.1464692 29.6727206,11.3217141 24.9212626,7.14285714 C24.544037,7.48320553 24.1717776,7.81901031 23.8006806,8.15375844 C28.2967452,13.0374039 27.6779683,19.8398281 23.7176275,23.8999171 C24.1057367,24.2562209 24.4947969,24.6134758 24.884491,24.9713647" id="Fill-3" fill="#FFFFFF"></path>
            </g>
        </g>
    </g>
</svg>