<?xml version="1.0" encoding="UTF-8"?>
<svg width="20px" height="20px" viewBox="0 0 20 20" version="1.1" xmlns="http://www.w3.org/2000/svg" xmlns:xlink="http://www.w3.org/1999/xlink">
    <!-- Generator: sketchtool 51.2 (57519) - http://www.bohemiancoding.com/sketch -->
    <title>BA54873A-9A6E-449D-A98A-C554C3092EDD</title>
    <desc>Created with sketchtool.</desc>
    <defs></defs>
    <g id="Updated" stroke="none" stroke-width="1" fill="none" fill-rule="evenodd">
        <g id="02-Communication" transform="translate(-991.000000, -319.000000)" fill="#FFFFFF">
            <g id="Group-7-Copy-7" transform="translate(982.000000, 176.000000)">
                <g id="Group-8" transform="translate(0.000000, 127.000000)">
                    <g id="Mark-as-read" transform="translate(9.000000, 16.000000)">
                        <path d="M7.8125e-06,11.6386133 L7.8125e-06,0.857363281 C0.0110234375,0.841699219 0.02653125,0.827441406 0.0324296875,0.810019531 C0.223796875,0.246816406 0.561335937,0.00197265625 1.15082812,0.00177734375 C2.43325,0.00138671875 3.71563281,0.00158203125 4.99797656,0.00158203125 C8.79305469,0.00158203125 12.5881328,0.00259765625 16.3832109,1.953125e-05 C16.7700078,-0.00025390625 17.0995781,0.126855469 17.2975469,0.457324219 C17.4087969,0.643027344 17.4864531,0.880410156 17.4880937,1.09517578 C17.5025078,3.00232422 17.4965703,4.90958984 17.4966094,6.81685547 L17.4966094,8.23208984 C17.4552422,8.21759766 17.4311016,8.21162109 17.4091875,8.20107422 C16.1379375,7.59001953 14.8059062,7.36814453 13.4050078,7.56208984 C13.3287578,7.57263672 13.2173906,7.51927734 13.1619219,7.45916016 C12.8089141,7.07662109 12.4666484,6.68408203 12.1214922,6.29427734 C11.9071953,6.05228516 11.6939531,5.80935547 11.4746562,5.56048828 C11.5260234,5.51349609 11.56325,5.47798828 11.6019609,5.44427734 C12.9953984,4.22978516 14.3889141,3.01541016 15.7825859,1.80119141 C16.111375,1.51478516 16.4406328,1.22888672 16.7698125,0.942871094 C16.8533281,0.870292969 16.9296953,0.790996094 16.8349297,0.680488281 C16.7415312,0.571542969 16.6496562,0.630371094 16.563875,0.700996094 C16.5538359,0.709277344 16.5435234,0.717207031 16.5331719,0.725058594 C14.2600859,2.45498047 11.9867266,4.18451172 9.71414844,5.91501953 C9.1310625,6.35900391 8.40504687,6.36255859 7.81844531,5.91787109 C5.72364062,4.32986328 3.62934375,2.74126953 1.53473437,1.15298828 C1.32215625,0.991816406 1.1141875,0.823535156 0.89184375,0.677167969 C0.838835937,0.642285156 0.736414062,0.682519531 0.656726562,0.688222656 C0.6698125,0.762597656 0.675984375,0.839199219 0.699070312,0.910292969 C0.709578125,0.942636719 0.752898437,0.964785156 0.782390625,0.990371094 C2.1979375,2.21892578 3.61371875,3.44728516 5.02914844,4.67595703 C5.36188281,4.96474609 5.69364062,5.25470703 6.03020312,5.54794922 C5.98532031,5.60287109 5.95414844,5.64384766 5.92008594,5.68228516 C5.177,6.51958984 4.43352344,7.35658203 3.69024219,8.19376953 C2.70071094,9.30830078 1.71129687,10.4229883 0.7216875,11.5374805 C0.645242187,11.6235352 0.564929687,11.7156836 0.67059375,11.8247852 C0.787820312,11.9458398 0.856296875,11.8152148 0.92465625,11.7518164 C2.62825,10.1716992 4.32992969,8.58951172 6.03227344,7.00806641 C6.30246875,6.75705078 6.57434375,6.50779297 6.84098437,6.26181641 C6.87078906,6.28021484 6.88305469,6.28572266 6.89278125,6.29412109 C7.22723437,6.58384766 7.56153125,6.87380859 7.89575,7.16376953 C8.41246875,7.61212891 9.10551562,7.61388672 9.61973437,7.16794922 C9.96274219,6.87048828 10.3056719,6.57287109 10.6621172,6.26361328 C11.2155156,6.77857422 11.7580156,7.28341797 12.3121562,7.79908203 C9.99336719,8.62099609 8.47910937,10.1820898 7.74414844,12.4956445 C5.66809375,12.4956445 3.6048125,12.4957227 1.54157031,12.4955273 C1.35930469,12.4955273 1.17676562,12.500293 0.994851562,12.4919336 C0.708054687,12.4787305 0.456257812,12.3661133 0.279773437,12.1433008 C0.161921875,11.9945508 0.091609375,11.8081836 7.8125e-06,11.6386133" id="Fill-1"></path>
                        <path d="M13.8008203,15.6854766 C13.6999609,15.5919219 13.6517188,15.5500078 13.6066797,15.5049297 C13.0915625,14.9895391 12.5785156,14.472 12.0614844,13.9584844 C11.7744922,13.6734844 11.4234375,13.6714141 11.1462891,13.9446172 C10.8595703,14.2271953 10.8592188,14.5762578 11.1532813,14.8719609 C11.8323438,15.5547734 12.5142187,16.2348125 13.1951953,16.91575 C13.5635156,17.2840703 13.9248047,17.2834453 14.2944531,16.913875 C14.8558203,16.3525859 15.4167188,15.7908281 15.9780859,15.2295 C16.6130469,14.5945781 17.2472656,13.9589531 17.8839844,13.3258281 C18.0601172,13.15075 18.1744531,12.9570781 18.1080859,12.6993047 C17.9745313,12.1804375 17.3919531,12.0191875 17.0092969,12.4001641 C15.9764063,13.4285234 14.9469141,14.4602812 13.9184766,15.4930937 C13.8691406,15.5426641 13.8428906,15.6152422 13.8008203,15.6854766 Z M13.90625,19.9979766 C13.6394141,19.9482109 13.3701172,19.908875 13.1061328,19.8468828 C10.8228125,19.3107109 9.12503906,17.4525469 8.80019531,15.140125 C8.37734375,12.1300078 10.4548047,9.32055469 13.4698047,8.82496875 C16.5302734,8.32196094 19.4418359,10.4167266 19.9213281,13.4659844 C19.944375,13.6125859 19.9736328,13.7581719 20,13.9042266 L20,14.8417266 C19.9866406,14.8911406 19.9664453,14.9397734 19.9609375,14.9900078 C19.7082812,17.2922734 18.0654297,19.2106328 15.8314453,19.7986016 C15.5071875,19.8839141 15.1732422,19.9324687 14.84375,19.9979766 L13.90625,19.9979766 Z" id="Fill-3"></path>
                    </g>
                </g>
            </g>
        </g>
    </g>
</svg>