<?xml version="1.0" encoding="UTF-8"?>
<svg width="22px" height="15px" viewBox="0 0 22 15" version="1.1" xmlns="http://www.w3.org/2000/svg" xmlns:xlink="http://www.w3.org/1999/xlink">
    <!-- Generator: sketchtool 51.2 (57519) - http://www.bohemiancoding.com/sketch -->
    <title>EF0505A0-69F1-47C2-8463-1C04D6D3284A</title>
    <desc>Created with sketchtool.</desc>
    <defs></defs>
    <g id="Updated" stroke="none" stroke-width="1" fill="none" fill-rule="evenodd">
        <g id="02-Communication" transform="translate(-29.000000, -254.000000)" fill="#F79A1D">
            <path d="M43.2724363,261.216181 C43.3657443,261.135277 43.4039797,261.103648 43.4405527,261.070144 C45.2049641,259.452622 46.969205,257.834928 48.7334885,256.217278 C49.1418441,255.842852 49.5499865,255.468214 49.958683,255.094257 C50.0484957,255.012075 50.1003713,254.902697 49.9970463,254.822603 C49.9327239,254.772731 49.8104304,254.786627 49.7154174,254.792381 C49.6747523,254.794811 49.6371563,254.849287 49.5983668,254.880361 C46.7772608,257.140255 43.9563253,259.400405 41.134921,261.659958 C40.3925493,262.254503 39.4241329,262.254376 38.6849155,261.662217 C35.8694362,259.406842 33.0540847,257.151295 30.2380085,254.896644 C30.1138394,254.797198 29.9756891,254.638246 29.8209573,254.818809 C29.6679305,254.997369 29.8586385,255.097454 29.966695,255.196048 C31.6512682,256.732411 33.3381006,258.266302 35.0241231,259.801045 C35.5224618,260.254669 36.019948,260.709146 36.5682442,261.209233 C36.488406,261.262003 36.4134271,261.295422 36.3593776,261.349685 C34.223823,263.493423 32.0900586,265.639038 29.9564648,267.78478 C29.9015628,267.83998 29.8230886,267.892027 29.8055694,267.958693 C29.7857057,268.034439 29.8022019,268.137125 29.8429096,268.203579 C29.8614092,268.233758 29.9779909,268.213255 30.046789,268.199359 C30.0840014,268.191857 30.114692,268.150424 30.1475565,268.123357 C32.4329409,266.239849 34.7181122,264.356213 37.0035819,262.472833 C37.182653,262.325305 37.3632587,262.179567 37.5504714,262.026967 C37.9934818,262.397641 38.4245569,262.755655 38.8526908,263.11708 C39.4828713,263.649008 40.3681247,263.655146 41.0039318,263.126884 C41.271622,262.904505 41.5355612,262.67765 41.8021006,262.453864 C41.9685971,262.314094 42.1367561,262.176242 42.3044888,262.037282 C42.3629714,262.083446 42.4023577,262.113284 42.4404226,262.144784 C43.7919175,263.263031 45.1432845,264.381405 46.4946515,265.499736 C47.5615763,266.382646 48.6282879,267.265768 49.6956816,268.148037 C49.7834482,268.220501 49.8792285,268.311635 49.9908229,268.196034 C50.0996467,268.083331 50.0464496,267.975573 49.9513514,267.880262 C49.9262874,267.855113 49.9017349,267.829452 49.8767562,267.804217 C48.2376647,266.148544 46.6018981,264.489504 44.9575637,262.839032 C44.4117824,262.291247 43.8439636,261.765372 43.2724363,261.216181 M49.7108138,269 L30.1029272,269 C30.0859621,268.988022 30.0706595,268.970375 30.0517762,268.964919 C29.3182281,268.753324 29.0000262,268.332266 29.0000262,267.57067 C28.9999836,263.522665 28.9998984,259.474702 29.0006656,255.426696 C29.0006656,255.313397 28.9981933,255.198051 29.0170766,255.087096 C29.1301203,254.421749 29.6610678,254.001459 30.3874547,254.001331 C34.783415,254.000393 39.1793753,254.000436 43.5752929,254.000223 C45.535357,254.000137 47.495421,253.999626 49.455485,254.000521 C50.1125623,254.000819 50.5909948,254.361093 50.7784206,254.990336 C50.786008,255.015783 50.8052748,255.037778 50.8190856,255.06135 L50.8190856,267.934354 C50.6920606,268.328046 50.4888632,268.663597 50.0995188,268.848849 C49.9743267,268.908397 49.8406521,268.950085 49.7108138,269" id="Message"></path>
        </g>
    </g>
</svg>