<?xml version="1.0" encoding="UTF-8"?>
<svg width="20px" height="25px" viewBox="0 0 20 25" version="1.1" xmlns="http://www.w3.org/2000/svg" xmlns:xlink="http://www.w3.org/1999/xlink">
    <!-- Generator: sketchtool 51.2 (57519) - http://www.bohemiancoding.com/sketch -->
    <title>C70D2ED1-04B8-4959-B571-C4D9138B757F</title>
    <desc>Created with sketchtool.</desc>
    <defs>
        <polygon id="path-1" points="1.77462289e-05 0.100361199 14.0571856 0.100361199 14.0571856 23.1884058 1.77462289e-05 23.1884058"></polygon>
        <polygon id="path-3" points="0.0104447782 0.0411835749 4.03592873 0.0411835749 4.03592873 2.36840024 0.0104447782 2.36840024"></polygon>
        <polygon id="path-5" points="0.0521135266 0.0817512077 4.3544686 0.0817512077 4.3544686 1.08815217 0.0521135266 1.08815217"></polygon>
    </defs>
    <g id="Updated" stroke="#68b128" stroke-width="1" fill="gray" fill-rule="evenodd">
        <g id="01a-Train-Alert-Hover" transform="translate(-98.000000, -478.000000)">
            <g id="Group-9" transform="translate(50.000000, 163.000000)">
                <g id="Group" transform="translate(48.000000, 315.000000)">
                    <g id="Push-to-Talk">
                        <g id="Group-3" transform="translate(0.000000, 1.770411)">
                            <mask id="mask-2" fill="white">
                                <use xlink:href="#path-1"></use>
                            </mask>
                            <g id="Clip-2"></g>
                            <path d="M12.0200242,9.85269324 C12.0200242,10.2679106 11.6802899,10.6075242 11.2651932,10.6075242 L4.68306763,10.6075242 C4.26785024,10.6075242 3.92823671,10.2679106 3.92823671,9.85269324 L3.92823671,7.19568841 C3.92823671,6.78059179 4.26785024,6.44085749 4.68306763,6.44085749 L11.2651932,6.44085749 C11.6802899,6.44085749 12.0200242,6.78059179 12.0200242,7.19568841 L12.0200242,9.85269324 Z M7.87400966,22.1111473 C7.40710145,22.1111473 7.02859903,21.7326449 7.02859903,21.2657367 C7.02859903,20.7988285 7.40710145,20.4203261 7.87400966,20.4203261 C8.34091787,20.4203261 8.71942029,20.7988285 8.71942029,21.2657367 C8.71942029,21.7326449 8.34091787,22.1111473 7.87400966,22.1111473 Z M14.0168841,8.1667029 C13.9805314,5.79919082 13.7805314,3.4340942 13.6386232,1.06875604 C13.602029,0.457886473 13.2074638,0.0844565217 12.6946618,0.100881643 C12.2141063,0.11634058 11.8810145,0.481437198 11.8202657,1.06658213 C11.7461111,1.78071256 11.675942,2.49532609 11.5976812,3.27334541 C11.3121739,3.27334541 11.1325845,3.27322464 10.9531159,3.27334541 C8.7202657,3.27346618 6.48741546,3.26259662 4.25480676,3.27769324 C2.53198068,3.28928744 1.50033816,4.31972222 1.47763285,6.00921498 C1.47461353,6.24580918 1.47727053,6.48228261 1.47727053,6.69858696 C0.211932367,7.05547101 0.000458937198,7.33554348 0.000217391304,8.58240338 C-0.000144927536,9.48759662 9.66183575e-05,10.3927899 9.66183575e-05,11.2979831 C9.66183575e-05,12.7354227 0.13910628,12.935785 1.47714976,13.3877174 C1.47714976,15.7072826 1.47219807,18.0390459 1.47871981,20.37093 C1.48355072,22.1317995 2.53439614,23.1693599 4.30408213,23.171413 C6.57714976,23.1741908 8.85130435,23.1261232 11.1226812,23.1871135 C12.8513043,23.2334903 14.0875362,22.0452053 14.0566184,20.2954469 C13.9851208,16.2535386 14.0788406,12.2088527 14.0168841,8.1667029 Z" id="Fill-1" fill="gray" mask="url(#mask-2)"></path>
                        </g>
                        <g id="Group-6" transform="translate(14.975845, 0.079589)">
                            <mask id="mask-4" fill="white">
                                <use xlink:href="#path-3"></use>
                            </mask>
                            <g id="Clip-5"></g>
                            <path d="M3.7346256,1.00524155 L0.715181159,2.32637681 C0.461557971,2.43736715 0.163369565,2.32082126 0.0525,2.06719807 L0.0523792271,2.06719807 C-0.0584903382,1.81357488 0.0581763285,1.51538647 0.311678744,1.40451691 L3.33124396,0.0831400966 C3.58474638,-0.0278502415 3.88305556,0.0889371981 3.99392512,0.342560386 C4.10491546,0.595942029 3.98824879,0.894251208 3.7346256,1.00524155" id="Fill-4" fill="#gray" mask="url(#mask-4)"></path>
                        </g>
                        <g id="Group-9" transform="translate(14.975845, 2.857367)">
                            <mask id="mask-6" fill="white">
                                <use xlink:href="#path-5"></use>
                            </mask>
                            <g id="Clip-8"></g>
                            <path d="M3.85126812,1.08815217 L0.555374396,1.08815217 C0.278562802,1.08815217 0.0521135266,0.861702899 0.0521135266,0.584891304 C0.0521135266,0.308200483 0.278562802,0.0817512077 0.555374396,0.0817512077 L3.85126812,0.0817512077 C4.12807971,0.0817512077 4.35452899,0.308200483 4.35452899,0.584891304 C4.35452899,0.861702899 4.12807971,1.08815217 3.85126812,1.08815217" id="Fill-7" fill="gray" mask="url(#mask-6)"></path>
                        </g>
                        <path d="M18.264058,6.71304348 L15.2231159,5.44202899 C14.9678019,5.3352657 14.8461836,5.03900966 14.9528261,4.78357488 C15.0595894,4.52826087 15.3558454,4.40664251 15.6112802,4.5134058 L18.6522222,5.78454106 C18.9075362,5.89118357 19.0291546,6.18743961 18.9223913,6.4428744 C18.815628,6.69818841 18.519372,6.81980676 18.264058,6.71304348" id="Fill-10" fill="gray"></path>
                    </g>
                </g>
            </g>
        </g>
    </g>
</svg>