<?xml version="1.0" encoding="UTF-8"?>
<svg width="20px" height="23px" viewBox="0 0 20 23" version="1.1" xmlns="http://www.w3.org/2000/svg" xmlns:xlink="http://www.w3.org/1999/xlink">
    <!-- Generator: sketchtool 51.2 (57519) - http://www.bohemiancoding.com/sketch -->
    <title>4F026523-DECC-407A-B0EB-09063E0DA681</title>
    <desc>Created with sketchtool.</desc>
    <defs></defs>
    <g id="Updated" stroke="none" stroke-width="1" fill="none" fill-rule="evenodd">
        <g id="01-Train" transform="translate(-172.000000, -661.000000)" fill="#B71923">
            <g id="Group-11" transform="translate(20.000000, 598.000000)">
                <g id="Group-9" transform="translate(29.000000, 63.000000)">
                    <path d="M130.293201,17.0646122 L124.414214,22.9435999 L123,21.5293864 L129.117303,15.4120829 C128.770631,14.8720231 128.447264,14.3159256 128.145426,13.7452018 C127.677336,12.860095 127.261724,11.9526672 126.922268,11.0119161 C126.486537,9.80443787 126.170443,8.56627262 126.026188,7.28427384 C125.907422,6.22910565 125.903272,5.17769863 126.103145,4.13620425 C126.37342,2.72776667 126.972829,1.50563036 128.137162,0.608466731 C128.466506,0.354675194 128.835985,0.285392214 129.216134,0.212101999 C129.563994,0.145033542 129.913318,0.0859092537 130.261003,0.0181026228 C130.664306,-0.0605305723 131.024544,0.119759842 131.175635,0.505333162 C131.495459,1.32154362 131.804579,2.14197222 132.118475,2.9605378 C132.273262,3.36417883 132.434255,3.76549988 132.582765,4.17149603 C132.746582,4.61928695 132.721337,5.05523191 132.472437,5.47026192 C132.379405,5.62538409 132.288639,5.78194746 132.199652,5.93949506 C132.069727,6.16948924 131.911105,6.35758322 131.67971,6.50704605 C130.86254,7.03491135 130.578422,7.82651598 130.646104,8.77303187 C130.706882,9.6226711 130.99623,10.4049255 131.349425,11.1666516 C131.559322,11.6193557 131.789344,12.0604496 132.039873,12.4895138 L141.4436,3.08578644 L142.857813,4.5 L133.18387,14.1739434 C133.540537,14.6156882 133.937695,15.0183057 134.412481,15.3412412 C135.241263,15.9049607 136.106693,16.0000447 137.006783,15.4994215 C137.108603,15.4428281 137.234447,15.4151993 137.351749,15.4052515 C137.553923,15.3880626 137.759305,15.4082042 137.96134,15.3900311 C138.615809,15.3312583 139.087561,15.6127489 139.482529,16.1252532 C140.215803,17.0767957 140.976136,18.0072475 141.729949,18.9425853 C142.012707,19.2934644 142.018111,19.6987575 141.726392,20.0439422 C141.372604,20.4625224 141.030045,20.8917184 140.657985,21.2931449 C140.530049,21.4311484 140.335825,21.517304 140.158268,21.5960778 C139.703986,21.7976698 139.226133,21.9194335 138.731785,21.9728281 C138.704064,21.975816 138.677598,21.9906498 138.650539,22 L137.778798,22 C137.442375,21.9375363 137.102256,21.8905392 136.770262,21.8097266 C135.783381,21.5694683 134.887091,21.1218532 134.035714,20.5726862 C132.691872,19.7058229 131.554389,18.6072782 130.543413,17.3756862 C130.45892,17.2727538 130.375522,17.1690582 130.293201,17.0646121 Z" id="Reject"></path>
                </g>
            </g>
        </g>
    </g>
</svg>