<?xml version="1.0" standalone="no"?>
<!DOCTYPE svg PUBLIC "-//W3C//DTD SVG 20010904//EN"
 "http://www.w3.org/TR/2001/REC-SVG-20010904/DTD/svg10.dtd">
<svg version="1.0" xmlns="http://www.w3.org/2000/svg"
 width="309.000000pt" height="163.000000pt" viewBox="0 0 309.000000 163.000000"
 preserveAspectRatio="xMidYMid meet">

<g transform="translate(0.000000,163.000000) scale(0.100000,-0.100000)"
fill="gray" stroke="none">
<path d="M2962 1619 c-22 -8 -192 -174 -967 -939 -192 -190 -373 -367 -402
-394 l-52 -49 -76 66 c-65 58 -81 67 -114 67 -54 0 -91 -38 -91 -93 0 -39 5
-46 113 -149 118 -114 155 -136 201 -118 29 11 1189 1150 1392 1367 136 146
144 162 97 212 -31 33 -67 44 -101 30z"/>
<path d="M1384 933 c-383 -379 -701 -690 -706 -691 -5 -2 -86 72 -181 165
-318 312 -364 353 -392 353 -61 0 -115 -59 -102 -112 9 -35 616 -634 651 -642
19 -5 39 -1 62 11 48 25 1493 1459 1500 1489 16 62 -26 114 -91 114 l-43 0
-698 -687z"/>
</g>
</svg>
