<?xml version="1.0" encoding="UTF-8"?>
<svg width="19px" height="18px" viewBox="0 0 19 18" version="1.1" xmlns="http://www.w3.org/2000/svg" xmlns:xlink="http://www.w3.org/1999/xlink">
    <!-- Generator: sketchtool 51.2 (57519) - http://www.bohemiancoding.com/sketch -->
    <title>A4508B1F-0C93-4D20-99D6-B43440CC0E81</title>
    <desc>Created with sketchtool.</desc>
    <defs></defs>
    <g id="Updated" stroke="none" stroke-width="1" fill="none" fill-rule="evenodd">
        <g id="04-Location" transform="translate(-145.000000, -419.000000)" fill="#FFFFFF">
            <g id="Group-9" transform="translate(114.000000, 346.000000)">
                <g id="Group-10" transform="translate(31.000000, 73.000000)">
                    <g id="Snail-Trail">
                        <path d="M0,1.5415229 C0.036515625,1.42413023 0.0688378906,1.30520082 0.110251953,1.18964475 C0.359404297,0.49435932 1.007,0.0163177873 1.73835156,0.0079593694 C2.56076953,-0.00137357255 3.38355859,-0.00410973625 4.20586523,0.0086340399 C5.14239453,0.0232144191 5.91683008,0.800397356 5.93286133,1.74474865 C5.94707422,2.58152748 5.94648047,3.41890602 5.93326953,4.25568485 C5.91835156,5.20022355 5.14573438,5.97335847 4.21150586,5.99940824 C4.00261719,6.00521791 3.79346875,6.00027032 3.57682422,6.00027032 C3.57682422,6.56388256 3.54357422,7.11370154 3.58706641,7.65722359 C3.62365625,8.11461271 4.02132031,8.399661 4.51016211,8.40003582 C6.39639453,8.40146012 8.28266406,8.4004856 10.1688965,8.40052308 C11.6222109,8.40052308 13.0755625,8.39857403 14.528877,8.40146012 C15.7060605,8.40382147 16.6186543,9.32718301 16.6245547,10.5174892 C16.6270039,11.0035893 16.6249629,11.4896894 16.6249629,11.9983909 C16.8146289,11.9983909 16.9917148,11.9974914 17.1688008,11.9985409 C18.0845488,12.0039757 18.766916,12.5626779 18.9687539,13.4706344 C18.9738379,13.4935357 18.9893496,13.5140382 19,13.5356652 L19,16.4592373 C18.9753965,16.5414722 18.9501621,16.6235946 18.9263008,16.7060543 C18.7115117,17.4486791 18.0266582,17.9859042 17.2620195,17.993588 C16.4461328,18.0017215 15.6300234,18.0022088 14.8140996,17.994525 C13.8555273,17.9855294 13.0736699,17.1936162 13.0643184,16.2224655 C13.0564141,15.4046149 13.0554863,14.5865394 13.0640957,13.7687263 C13.0743379,12.7963013 13.8536719,12.0154451 14.8169199,11.9991406 C15.0143418,11.9958047 15.2118008,11.9986908 15.4261445,11.9986908 C15.4302266,11.9390199 15.4369434,11.885646 15.4370176,11.8322721 C15.4377598,11.4201608 15.4364238,11.0080871 15.4372773,10.5959759 C15.4385762,9.96620842 15.0755723,9.60012471 14.4463086,9.60012471 C11.1576387,9.60012471 7.86896875,9.59885034 4.58029883,9.60169894 C3.65831641,9.60252354 2.9774707,9.20896575 2.56477734,8.36978809 C2.41949414,8.07435737 2.37169727,7.7542637 2.37366406,7.42509946 C2.37648437,6.95807755 2.37436914,6.49098067 2.37436914,6.00184455 C2.20307227,6.00184455 2.04442969,6.00199448 1.88575,6.00180707 C0.911740234,6.00057018 0.252083984,5.47042909 0.0287226563,4.51048541 C0.0249003906,4.49399346 0.00983398437,4.48016272 0,4.46509508 L0,1.5415229 Z" id="Fill-1"></path>
                    </g>
                </g>
            </g>
        </g>
    </g>
</svg>