<?xml version="1.0" encoding="UTF-8"?>
<svg width="21px" height="20px" viewBox="0 0 21 20" version="1.1" xmlns="http://www.w3.org/2000/svg" xmlns:xlink="http://www.w3.org/1999/xlink">
    <!-- Generator: sketchtool 51.2 (57519) - http://www.bohemiancoding.com/sketch -->
    <title>76E494D3-E49F-4DC6-B811-983996609A88</title>
    <desc>Created with sketchtool.</desc>
    <defs></defs>
    <g id="Updated" stroke="none" stroke-width="1" fill="none" fill-rule="evenodd">
        <g id="02-Communication" transform="translate(-120.000000, -186.000000)" fill="#4A90E2">
            <g id="Group-14" transform="translate(100.000000, 80.000000)">
                <g id="Group-7-Copy-8" transform="translate(0.000000, 45.000000)">
                    <g id="Group-21">
                        <g id="Speaking" transform="translate(20.000000, 61.000000)">
                            <path d="M20.6422018,13.4437523 C20.4774312,13.7339358 20.2343119,13.8612752 19.8950459,13.8586147 C19.0100917,13.8517339 18.1250459,13.8660459 17.24,13.8672385 C17.0573394,13.8675138 16.8741284,13.8543028 16.7184404,13.7344862 C16.5113761,13.574945 16.4589908,13.3575138 16.5190826,13.1218257 C16.5855963,12.8603578 16.7649541,12.7027431 17.0457798,12.7012752 C18.052844,12.6961376 19.06,12.6986147 20.0670642,12.6920092 C20.3529358,12.6900826 20.4905505,12.8889817 20.6422018,13.0767798 L20.6422018,13.4437523 Z" id="Fill-4"></path>
                            <path d="M16.4756881,12.1184954 C16.1609174,12.1021651 15.969633,11.9363853 15.9016514,11.6608807 C15.8252294,11.3512477 15.9811009,11.1217064 16.2508257,10.9902385 C16.9883486,10.6306972 17.7330275,10.2857431 18.4748624,9.93482569 C18.6397248,9.85684404 18.7975229,9.75537615 18.9701835,9.70390826 C19.2648624,9.61620183 19.5293578,9.6980367 19.6711009,9.9806055 C19.8059633,10.2494128 19.7933945,10.5583119 19.5141284,10.710055 C18.5666055,11.2251927 17.5880734,11.6797798 16.5931193,12.0974862 C16.5522018,12.1146422 16.5037615,12.1137248 16.4756881,12.1184954" id="Fill-6"></path>
                            <path d="M19.7482477,16.2660183 C19.7594404,16.684 19.3760459,16.9922569 18.971367,16.8174862 C18.0250367,16.4086789 17.0937523,15.9628073 16.171367,15.5020734 C15.901,15.3670275 15.8276055,15.0846422 15.9537523,14.7893211 C16.0912752,14.4673945 16.3795321,14.3444587 16.6654954,14.4697798 C17.6234771,14.8894128 18.5634771,15.3503303 19.5055872,15.8051009 C19.683844,15.8910642 19.7467798,16.0701468 19.7482477,16.2660183" id="Fill-8"></path>
                            <path d="M0,8.12265138 L0,6.28778899 C0.196880734,6.08980734 0.160642202,5.81375229 0.226238532,5.57512844 C1.50082569,0.939715596 7.94825688,-1.89936697 12.5779817,1.76797248 C13.8462385,2.77265138 14.2778899,4.11457798 13.9950459,5.63659633 C13.8042202,6.66338532 14.17,7.31200917 14.9545872,7.84549541 C15.2444037,8.04265138 15.5470642,8.21320183 15.8856881,8.31843119 C16.2863303,8.44283486 16.3947706,8.71301835 16.2531193,9.10182569 C16.0691743,9.60714679 15.7054128,9.95466972 15.2266972,10.1432018 C14.873578,10.2822844 14.8146789,10.4687064 14.8459633,10.8223761 C14.9557798,12.0634771 14.7633945,12.1694404 13.659633,12.5848532 C13.3557798,12.6991651 12.9983486,12.6912752 12.6643119,12.7003578 C12.1965138,12.7131101 12.18,12.7230183 12.3663303,13.1775138 C12.6659633,13.908156 13.2915596,14.1939358 13.9986239,14.3497156 C14.2698165,14.4095321 14.4655046,14.5036606 14.3986239,14.8166881 C14.3012844,15.2733853 14.3283486,15.7239358 14.3929358,16.1815505 C14.4586239,16.6466881 14.2573394,16.963844 13.816422,17.1555872 C13.2054128,17.4211835 12.5614679,17.5233853 11.9093578,17.5727431 C11.1931193,17.6269633 10.4765138,17.6010917 9.75889908,17.5297156 C8.70119266,17.4244862 7.72825688,18.131367 7.18715596,19.3672385 C7.11192661,19.5392569 7.05220183,19.6860459 6.84972477,19.7532936 C5.12,20.3283394 2.77073394,19.4193486 1.87486239,17.8295321 C1.73908257,17.5884312 1.72550459,17.4260459 1.95055046,17.207055 C2.4846789,16.687055 2.73678899,16.0303578 2.76458716,15.2801743 C2.81366972,13.9578807 2.23504587,12.8643945 1.5253211,11.8187982 C1.00100917,11.0463211 0.580091743,10.2250367 0.311559633,9.33054128 C0.192018349,8.93255963 0.10293578,8.52558716 0,8.12265138" id="Fill-1"></path>
                        </g>
                    </g>
                </g>
            </g>
        </g>
    </g>
</svg>