<svg width="20" height="20" viewBox="0 0 20 20" fill="none" xmlns="http://www.w3.org/2000/svg">
<path fill-rule="evenodd" clip-rule="evenodd" d="M10 18.75C12.3206 18.75 14.5462 17.8281 16.1872 16.1872C17.8281 14.5462 18.75 12.3206 18.75 10C18.75 7.67936 17.8281 5.45376 16.1872 3.81282C14.5462 2.17187 12.3206 1.25 10 1.25C7.67936 1.25 5.45376 2.17187 3.81282 3.81282C2.17187 5.45376 1.25 7.67936 1.25 10C1.25 12.3206 2.17187 14.5462 3.81282 16.1872C5.45376 17.8281 7.67936 18.75 10 18.75ZM10 20C12.6522 20 15.1957 18.9464 17.0711 17.0711C18.9464 15.1957 20 12.6522 20 10C20 7.34784 18.9464 4.8043 17.0711 2.92893C15.1957 1.05357 12.6522 0 10 0C7.34784 0 4.8043 1.05357 2.92893 2.92893C1.05357 4.8043 0 7.34784 0 10C0 12.6522 1.05357 15.1957 2.92893 17.0711C4.8043 18.9464 7.34784 20 10 20Z" fill="#09AF59"/>
<path fill-rule="evenodd" clip-rule="evenodd" d="M13.7123 6.21261C13.8873 6.0392 14.1234 5.9416 14.3697 5.94092C14.6161 5.94024 14.8528 6.03653 15.0286 6.20897C15.2045 6.38142 15.3055 6.61616 15.3097 6.86244C15.3139 7.10873 15.221 7.34677 15.0511 7.52511L10.0611 13.7626C9.97532 13.855 9.87181 13.9291 9.75675 13.9806C9.64168 14.032 9.51742 14.0597 9.3914 14.0621C9.26537 14.0644 9.14017 14.0413 9.02328 13.9941C8.90639 13.947 8.8002 13.8767 8.71108 13.7876L5.40483 10.4801C5.31272 10.3943 5.23884 10.2908 5.1876 10.1758C5.13636 10.0608 5.10881 9.93664 5.10659 9.81076C5.10437 9.68488 5.12753 9.55984 5.17468 9.44311C5.22183 9.32637 5.29201 9.22033 5.38103 9.13131C5.47006 9.04228 5.5761 8.9721 5.69283 8.92495C5.80957 8.8778 5.93461 8.85465 6.06048 8.85687C6.18636 8.85909 6.3105 8.88664 6.4255 8.93788C6.5405 8.98912 6.644 9.063 6.72983 9.15511L9.34733 11.7714L13.6886 6.24011C13.6963 6.23042 13.7047 6.22124 13.7136 6.21261H13.7123Z" fill="#09AF59"/>
</svg>
