<svg width="20" height="20" viewBox="0 0 20 20" fill="none" xmlns="http://www.w3.org/2000/svg">
<path d="M9.99999 6.56222C10.6799 6.56222 11.3445 6.76382 11.9098 7.14154C12.4751 7.51926 12.9157 8.05612 13.1758 8.68424C13.436 9.31236 13.5041 10.0035 13.3714 10.6703C13.2388 11.3371 12.9114 11.9497 12.4307 12.4304C11.9499 12.9111 11.3374 13.2385 10.6706 13.3712C10.0038 13.5038 9.31264 13.4357 8.68452 13.1756C8.0564 12.9154 7.51953 12.4748 7.14181 11.9095C6.7641 11.3442 6.56249 10.6796 6.56249 9.99972C6.56352 9.08835 6.92602 8.21461 7.57045 7.57018C8.21489 6.92575 9.08863 6.56325 9.99999 6.56222ZM9.99999 11.5622C10.309 11.5622 10.6111 11.4706 10.8681 11.2989C11.125 11.1272 11.3253 10.8832 11.4436 10.5977C11.5618 10.3121 11.5928 9.99798 11.5325 9.69489C11.4722 9.39179 11.3234 9.11338 11.1048 8.89486C10.8863 8.67634 10.6079 8.52753 10.3048 8.46724C10.0017 8.40695 9.68756 8.43789 9.40205 8.55615C9.11654 8.67442 8.87251 8.87469 8.70082 9.13164C8.52913 9.38859 8.43749 9.69068 8.43749 9.99972C8.43795 10.414 8.60271 10.8111 8.89564 11.1041C9.18857 11.397 9.58573 11.5618 9.99999 11.5622ZM13.3146 13.3143C13.1412 13.4906 13.0444 13.7283 13.0454 13.9756C13.0464 14.2229 13.1451 14.4598 13.32 14.6347C13.4949 14.8096 13.7318 14.9083 13.9791 14.9093C14.2264 14.9103 14.4641 14.8136 14.6404 14.6401C15.2503 14.031 15.7342 13.3077 16.0643 12.5114C16.3945 11.7152 16.5644 10.8617 16.5644 9.99972C16.5644 9.13774 16.3945 8.28423 16.0643 7.48799C15.7342 6.69175 15.2503 5.9684 14.6404 5.35932C14.5536 5.27111 14.4502 5.20094 14.3361 5.15289C14.2221 5.10483 14.0997 5.07983 13.9759 5.07932C13.8522 5.07882 13.7295 5.10282 13.6151 5.14995C13.5007 5.19708 13.3967 5.26639 13.3092 5.3539C13.2217 5.44141 13.1524 5.54538 13.1052 5.65982C13.0581 5.77425 13.0341 5.89688 13.0346 6.02063C13.0351 6.14439 13.0601 6.26682 13.1082 6.38087C13.1562 6.49491 13.2264 6.59831 13.3146 6.68511C13.7504 7.12007 14.0962 7.63672 14.3322 8.20548C14.5681 8.77425 14.6895 9.38396 14.6895 9.99972C14.6895 10.6155 14.5681 11.2252 14.3322 11.7939C14.0962 12.3627 13.7504 12.8794 13.3146 13.3143ZM3.95366 12.5544C4.28291 13.3341 4.76039 14.0424 5.3596 14.6401C5.44639 14.7283 5.5498 14.7985 5.66384 14.8465C5.77788 14.8946 5.90032 14.9196 6.02407 14.9201C6.14783 14.9206 6.27046 14.8966 6.38489 14.8495C6.49932 14.8024 6.60329 14.733 6.6908 14.6455C6.77831 14.558 6.84763 14.454 6.89475 14.3396C6.94188 14.2252 6.96589 14.1026 6.96538 13.9788C6.96488 13.855 6.93988 13.7326 6.89182 13.6186C6.84376 13.5045 6.7736 13.4011 6.68538 13.3143C6.24953 12.8794 5.90375 12.3627 5.66782 11.7939C5.43189 11.2252 5.31045 10.6155 5.31045 9.99972C5.31045 9.38396 5.43189 8.77425 5.66782 8.20548C5.90375 7.63672 6.24953 7.12007 6.68538 6.68511C6.7736 6.59831 6.84376 6.49491 6.89182 6.38087C6.93988 6.26682 6.96488 6.14439 6.96538 6.02063C6.96589 5.89688 6.94188 5.77425 6.89475 5.65982C6.84763 5.54538 6.77831 5.44141 6.6908 5.3539C6.60329 5.26639 6.49932 5.19708 6.38489 5.14995C6.27046 5.10282 6.14783 5.07882 6.02407 5.07932C5.90032 5.07983 5.77788 5.10483 5.66384 5.15289C5.5498 5.20094 5.44639 5.27111 5.3596 5.35932C4.43659 6.28303 3.80985 7.46088 3.55942 8.74246C3.30898 10.024 3.44621 11.3512 3.95358 12.5544H3.95366ZM15.5242 15.5239C15.3492 15.6999 15.2511 15.9381 15.2514 16.1863C15.2517 16.4345 15.3505 16.6724 15.526 16.848C15.7015 17.0235 15.9394 17.1222 16.1876 17.1226C16.4358 17.1229 16.674 17.0248 16.85 16.8498C17.7504 15.9507 18.4648 14.8829 18.9522 13.7075C19.4396 12.5321 19.6904 11.2722 19.6904 9.99972C19.6904 8.72727 19.4396 7.4673 18.9522 6.2919C18.4648 5.11649 17.7504 4.04871 16.85 3.14964C16.6737 2.97619 16.436 2.87943 16.1887 2.88043C15.9414 2.88144 15.7045 2.98013 15.5296 3.15501C15.3547 3.32989 15.256 3.56679 15.255 3.81411C15.254 4.06142 15.3508 4.29912 15.5242 4.47542C16.2506 5.20039 16.8268 6.06147 17.22 7.0094C17.6131 7.95733 17.8155 8.97348 17.8155 9.99972C17.8155 11.0259 17.6131 12.0421 17.22 12.99C16.8268 13.938 16.2506 14.799 15.5242 15.524V15.5239ZM0.31249 9.99972C0.311014 11.2721 0.560909 12.5323 1.04782 13.7078C1.53474 14.8833 2.24908 15.9511 3.14983 16.8498C3.2368 16.9372 3.34017 17.0067 3.45401 17.0541C3.56785 17.1015 3.68994 17.126 3.81326 17.1262C3.93659 17.1264 4.05874 17.1022 4.17272 17.0551C4.28669 17.008 4.39025 16.9388 4.47746 16.8516C4.56467 16.7644 4.63381 16.6609 4.68094 16.5469C4.72806 16.4329 4.75223 16.3108 4.75207 16.1875C4.7519 16.0641 4.7274 15.942 4.67998 15.8282C4.63256 15.7144 4.56313 15.611 4.47569 15.524C3.74935 14.799 3.17311 13.938 2.77994 12.99C2.38677 12.0421 2.18439 11.0259 2.18439 9.99972C2.18439 8.97348 2.38677 7.95733 2.77994 7.0094C3.17311 6.06147 3.74935 5.20039 4.47569 4.47542C4.56391 4.38862 4.63407 4.28522 4.68213 4.17118C4.73019 4.05713 4.75519 3.9347 4.75569 3.81095C4.7562 3.68719 4.73219 3.56456 4.68507 3.45013C4.63794 3.3357 4.56862 3.23173 4.48111 3.14422C4.39361 3.05671 4.28964 2.98739 4.1752 2.94026C4.06077 2.89314 3.93814 2.86913 3.81438 2.86964C3.69063 2.87014 3.5682 2.89514 3.45415 2.9432C3.34011 2.99126 3.23671 3.06142 3.14991 3.14964C2.24917 4.04833 1.53482 5.1161 1.04789 6.29164C0.560963 7.46718 0.311045 8.72732 0.31249 9.99972Z" fill="white"/>
</svg>
