<svg width="21" height="21" viewBox="0 0 21 21" fill="none" xmlns="http://www.w3.org/2000/svg">
<path d="M13.1632 16.3314L14.865 14.6255C15.0606 14.4425 15.4029 14.3641 15.8919 14.3902C16.3809 14.4164 16.8797 14.4948 17.3883 14.6255C17.8968 14.7562 18.3076 14.9 18.6206 15.0569C19.3508 15.3968 19.8855 15.8249 20.2245 16.3412C20.5636 16.8576 20.5897 17.2661 20.3028 17.5668L18.2098 19.6452C17.636 20.2204 16.8699 20.544 15.9114 20.6159C14.953 20.6878 13.9163 20.5374 12.8013 20.1649C11.6864 19.7923 10.4997 19.2008 9.24135 18.3903C7.98296 17.5798 6.78651 16.606 5.65201 15.4687C4.51751 14.3314 3.54601 13.1353 2.73751 11.8804C1.92901 10.6254 1.33894 9.43586 0.967293 8.31165C0.595645 7.18744 0.445681 6.1482 0.517403 5.19393C0.589124 4.23966 0.911871 3.47494 1.48564 2.89976L3.55905 0.821285C3.83289 0.546769 4.19476 0.572913 4.64465 0.899718C5.09454 1.22652 5.57377 1.75595 6.08234 2.48799C6.31706 2.84094 6.50615 3.47167 6.64959 4.38019C6.79303 5.28871 6.74087 5.9129 6.49311 6.25278L4.79135 7.9587C5.02608 8.8084 5.64549 9.85417 6.64959 11.096C7.65369 12.3379 8.77516 13.4654 10.014 14.4785C11.2528 15.4916 12.3025 16.1092 13.1632 16.3314Z" fill="#40DD7F"/>
</svg>
