<svg width="12" height="13" viewBox="0 0 12 13" fill="none"  xmlns="http://www.w3.org/2000/svg">
<path d="M18.6809 17.3283L10.4468 8.9828L16.0267 9.02029C16.2919 9.02207 16.547 8.91842 16.7357 8.73215C16.9245 8.54588 17.0316 8.29224 17.0334 8.02703C17.0352 7.76182 16.9315 7.50676 16.7452 7.31797C16.559 7.12918 16.3053 7.02211 16.0401 7.02033L8.09031 6.96692C7.8251 6.96514 7.57004 7.06879 7.38125 7.25506C7.19246 7.44133 7.0854 7.69497 7.08361 7.96018L7.02987 15.96C7.02809 16.2252 7.13173 16.4803 7.318 16.6691C7.50428 16.8578 7.75792 16.9649 8.02313 16.9667L7.97313 16.9664C8.23834 16.9681 8.49339 16.8645 8.68219 16.6782C8.87098 16.492 8.97804 16.2383 8.97982 15.9731L9.01711 10.4232L17.2214 18.7385C17.3138 18.8329 17.4239 18.908 17.5454 18.9596C17.6669 19.0112 17.7974 19.0382 17.9294 19.0391C18.0614 19.04 18.1923 19.0147 18.3145 18.9648C18.4367 18.9148 18.5478 18.8412 18.6414 18.7481C18.7377 18.6577 18.8152 18.5492 18.8694 18.4288C18.9235 18.3084 18.9533 18.1784 18.957 18.0464C18.9607 17.9144 18.9382 17.783 18.8908 17.6598C18.8434 17.5365 18.7721 17.4238 18.6809 17.3283Z" fill="#E89806"/>
</svg>
