<svg width="30" height="26"  viewBox="0 0 193 151" fill="none" xmlns="http://www.w3.org/2000/svg">
<path fill-rule="evenodd" clip-rule="evenodd" d="M191.312 81.7385H136.315C117.111 81.7385 99.8887 69.5815 93.46 51.4907L75.4189 0.730713H0L21.5 120.592H163.758C173.8 120.592 183.007 115.538 188.4 107.066C193.26 99.4287 194.273 90.155 191.312 81.7385ZM134.07 75H189L163.262 20.3745C157.716 8.60498 145.671 1 132.578 1H84L102.617 52.9719C107.338 66.1479 119.978 75 134.07 75ZM21.2832 128C19.0449 128 17.0801 129.487 16.4717 131.64L12.7969 144.64C11.8955 147.831 14.293 151 17.6084 151H169.055C171.368 151 173.38 149.413 173.918 147.163L177.026 134.163C177.778 131.02 175.396 128 172.163 128H21.2832Z" fill="#00F0FF"/>
</svg>
