<svg width="21" height="21" viewBox="0 0 21 21" fill="none" xmlns="http://www.w3.org/2000/svg">
<path d="M13.1632 16.1981L14.865 14.4922C15.0606 14.3092 15.4029 14.2308 15.8919 14.2569C16.3809 14.2831 16.8797 14.3615 17.3883 14.4922C17.8968 14.6229 18.3076 14.7667 18.6206 14.9236C19.3508 15.2635 19.8855 15.6916 20.2245 16.2079C20.5636 16.7243 20.5897 17.1328 20.3028 17.4335L18.2098 19.5119C17.636 20.0871 16.8699 20.4107 15.9114 20.4826C14.953 20.5545 13.9163 20.4041 12.8013 20.0316C11.6864 19.659 10.4997 19.0675 9.24135 18.257C7.98296 17.4465 6.78651 16.4727 5.65201 15.3354C4.51751 14.1981 3.54601 13.002 2.73751 11.7471C1.92901 10.4921 1.33894 9.30256 0.967293 8.17835C0.595645 7.05414 0.445681 6.0149 0.517403 5.06063C0.589124 4.10636 0.911871 3.34164 1.48564 2.76646L3.55905 0.687984C3.83289 0.413468 4.19476 0.439612 4.64465 0.766417C5.09454 1.09322 5.57377 1.62265 6.08234 2.35469C6.31706 2.70764 6.50615 3.33837 6.64959 4.24689C6.79303 5.15541 6.74087 5.7796 6.49311 6.11948L4.79135 7.8254C5.02608 8.67509 5.64549 9.72087 6.64959 10.9627C7.65369 12.2046 8.77516 13.3321 10.014 14.3452C11.2528 15.3583 12.3025 15.9759 13.1632 16.1981Z" fill="#757575"/>
<path d="M16.7942 4.60736L3.38533 20.1247C3.04628 20.1247 2.23948 19.7603 1.99171 19.5119C1.74395 19.2636 1.38039 18.8322 1.38039 18.4923L15.0924 2.90144C15.3271 2.66614 15.6108 2.54849 15.9433 2.54849C16.2758 2.54849 16.5595 2.66614 16.7942 2.90144C17.0289 3.13674 17.1463 3.42106 17.1463 3.7544C17.1463 4.08774 17.0289 4.37206 16.7942 4.60736Z" fill="#757575"/>
</svg>
