<svg width="13" height="14" viewBox="0 0 13 14" fill="none" xmlns="http://www.w3.org/2000/svg">
<g clip-path="url(#clip0)">
<path d="M9 6C9 5.03646 8.65755 4.21224 7.97266 3.52734C7.28776 2.84245 6.46354 2.5 5.5 2.5C4.53646 2.5 3.71224 2.84245 3.02734 3.52734C2.34245 4.21224 2 5.03646 2 6C2 6.96354 2.34245 7.78776 3.02734 8.47266C3.71224 9.15755 4.53646 9.5 5.5 9.5C6.46354 9.5 7.28776 9.15755 7.97266 8.47266C8.65755 7.78776 9 6.96354 9 6ZM13 12.5C13 12.7708 12.901 13.0052 12.7031 13.2031C12.5052 13.401 12.2708 13.5 12 13.5C11.7188 13.5 11.4844 13.401 11.2969 13.2031L8.61719 10.5312C7.6849 11.1771 6.64583 11.5 5.5 11.5C4.75521 11.5 4.04297 11.3555 3.36328 11.0664C2.68359 10.7773 2.09766 10.3867 1.60547 9.89453C1.11328 9.40234 0.722656 8.81641 0.433594 8.13672C0.144531 7.45703 0 6.74479 0 6C0 5.25521 0.144531 4.54297 0.433594 3.86328C0.722656 3.18359 1.11328 2.59766 1.60547 2.10547C2.09766 1.61328 2.68359 1.22266 3.36328 0.933594C4.04297 0.644531 4.75521 0.5 5.5 0.5C6.24479 0.5 6.95703 0.644531 7.63672 0.933594C8.31641 1.22266 8.90234 1.61328 9.39453 2.10547C9.88672 2.59766 10.2773 3.18359 10.5664 3.86328C10.8555 4.54297 11 5.25521 11 6C11 7.14583 10.6771 8.1849 10.0312 9.11719L12.7109 11.7969C12.9036 11.9896 13 12.224 13 12.5Z" fill="white"/>
</g>
<defs>
<clipPath id="clip0">
<rect width="13" height="13" fill="white" transform="translate(0 0.5)"/>
</clipPath>
</defs>
</svg>
