<svg width="25" height="26" viewBox="0 0 25 26" fill="none" xmlns="http://www.w3.org/2000/svg">
<path fill-rule="evenodd" clip-rule="evenodd" d="M18.5836 25.8328C21.5836 25.8328 24.0164 23.4023 24.0164 20.4V5.43281C24.0164 2.43281 21.5859 0 18.5836 0H5.43516C2.43516 0 0 2.43047 0 5.43281V20.4C0 23.4 2.4375 25.8328 5.43516 25.8328H18.5836ZM18.682 11.543C20.3039 11.543 21.6117 10.2305 21.6117 8.61328V4.90781C21.6117 3.29063 20.3039 1.98047 18.682 1.98047H5.32031C3.70312 1.98047 2.39062 3.29063 2.39062 4.90781V8.61328C2.39062 10.2305 3.70312 11.543 5.32031 11.543H18.682ZM4.41484 22.5423C5.50234 22.5423 6.38594 21.661 6.38594 20.5735C6.38594 19.4837 5.50234 18.6001 4.41484 18.6001C3.89146 18.6001 3.3895 18.808 3.01941 19.1781C2.64932 19.5482 2.44141 20.0501 2.44141 20.5735C2.44141 21.661 3.325 22.5423 4.41484 22.5423ZM17.6152 20.5735C17.6152 21.661 18.4965 22.5423 19.5863 22.5423C20.6738 22.5423 21.5551 21.661 21.5551 20.5735C21.5551 19.4837 20.6738 18.6001 19.5863 18.6001C18.4965 18.6001 17.6152 19.4837 17.6152 20.5735Z" fill="#F6A609"/>
</svg>
