<svg width="16" height="15" viewBox="0 0 16 15" fill="none" xmlns="http://www.w3.org/2000/svg">
<path d="M5.14286 15H1.71429C0.767857 15 0 14.2801 0 13.3929V1.60714C0 0.719866 0.767857 0 1.71429 0H5.14286C6.08929 0 6.85714 0.719866 6.85714 1.60714V13.3929C6.85714 14.2801 6.08929 15 5.14286 15ZM16 13.3929V1.60714C16 0.719866 15.2321 0 14.2857 0H10.8571C9.91071 0 9.14286 0.719866 9.14286 1.60714V13.3929C9.14286 14.2801 9.91071 15 10.8571 15H14.2857C15.2321 15 16 14.2801 16 13.3929Z" fill="#757575"/>
</svg>
