<svg width="16" height="17" viewBox="0 0 16 17" fill="none" xmlns="http://www.w3.org/2000/svg">
<path d="M5.14286 17H1.71429C0.767857 17 0 16.1842 0 15.1786V1.82143C0 0.815848 0.767857 0 1.71429 0H5.14286C6.08929 0 6.85714 0.815848 6.85714 1.82143V15.1786C6.85714 16.1842 6.08929 17 5.14286 17ZM16 15.1786V1.82143C16 0.815848 15.2321 0 14.2857 0H10.8571C9.91071 0 9.14286 0.815848 9.14286 1.82143V15.1786C9.14286 16.1842 9.91071 17 10.8571 17H14.2857C15.2321 17 16 16.1842 16 15.1786Z" fill="#F6A609"/>
</svg>
