<svg width="16" height="10" viewBox="0 0 16 10" fill="white" xmlns="http://www.w3.org/2000/svg">
<path d="M10.625 4.25C11.8008 4.25 12.7429 3.30083 12.7429 2.125C12.7429 0.949167 11.8008 0 10.625 0C9.44917 0 8.5 0.949167 8.5 2.125C8.5 3.30083 9.44917 4.25 10.625 4.25ZM4.95833 4.25C6.13417 4.25 7.07625 3.30083 7.07625 2.125C7.07625 0.949167 6.13417 0 4.95833 0C3.7825 0 2.83333 0.949167 2.83333 2.125C2.83333 3.30083 3.7825 4.25 4.95833 4.25ZM4.95833 5.66667C3.30792 5.66667 0 6.49542 0 8.14583V9.91667H9.91667V8.14583C9.91667 6.49542 6.60875 5.66667 4.95833 5.66667ZM10.625 5.66667C10.4196 5.66667 10.1858 5.68083 9.93792 5.70208C10.7596 6.29708 11.3333 7.0975 11.3333 8.14583V9.91667H15.5833V8.14583C15.5833 6.49542 12.2754 5.66667 10.625 5.66667Z"/>
</svg>
