<svg width="13" height="13" viewBox="0 0 13 13" fill="none" xmlns="http://www.w3.org/2000/svg">
<path d="M0.293463 1.79958L8.64293 10.0297L3.06307 10.0699C2.79786 10.0718 2.54428 10.179 2.35809 10.3678C2.17191 10.5567 2.06839 10.8118 2.0703 11.077C2.07221 11.3422 2.17939 11.5958 2.36828 11.782C2.55716 11.9682 2.81226 12.0717 3.07747 12.0698L11.0273 12.0126C11.2925 12.0107 11.5461 11.9035 11.7322 11.7146C11.9184 11.5257 12.0219 11.2706 12.02 11.0054L11.9624 3.00561C11.9605 2.7404 11.8533 2.48681 11.6645 2.30063C11.4756 2.11445 11.2205 2.01092 10.9553 2.01283L11.0053 2.01247C10.7401 2.01438 10.4865 2.12157 10.3003 2.31045C10.1141 2.49933 10.0106 2.75444 10.0125 3.01965L10.0525 8.5695L1.7332 0.369184C1.63957 0.276127 1.52843 0.202529 1.40621 0.152639C1.28399 0.102749 1.1531 0.0775535 1.02109 0.0785039C0.889082 0.0794543 0.758568 0.106532 0.637078 0.158177C0.515587 0.209821 0.405524 0.285012 0.313238 0.379407C0.218176 0.471061 0.142209 0.580633 0.0897194 0.701802C0.0372303 0.822972 0.00925922 0.953339 0.00742059 1.08538C0.00558196 1.21741 0.029912 1.34851 0.0790069 1.47109C0.128102 1.59367 0.20099 1.70532 0.293463 1.79958V1.79958Z" fill="#25282B"/>
</svg>
