<svg width="20" height="25" viewBox="0 0 85 99" fill="none" xmlns="http://www.w3.org/2000/svg">
<path d="M8.69636 63.3465C8.73667 63.1209 8.76893 62.8792 8.78505 62.6456C6.68868 59.9305 6.36616 57.4571 6.95476 55.7813C7.26921 54.8871 7.84169 54.2022 8.55123 53.8155C9.27689 53.4207 10.1316 53.316 10.9943 53.5899C12.4698 54.0572 13.9857 55.6202 14.8323 58.6737C15.0742 59.5438 15.1709 60.3897 15.1467 61.1793C15.1225 62.0011 14.9532 62.7826 14.6791 63.5077C14.6549 63.6124 14.6226 63.7091 14.5823 63.8058L14.5662 63.838C14.5178 63.9427 14.4614 64.0475 14.3969 64.1361C13.9292 65.0787 13.26 65.9166 12.4376 66.6497C11.6232 67.3668 10.6557 67.9791 9.59135 68.4544C9.44622 68.7364 9.31721 69.0345 9.20433 69.3407C9.06726 69.7032 8.94631 70.0899 8.84956 70.4767C8.68023 71.1695 8.57542 71.8705 8.54316 72.5633C8.51091 73.2401 8.55929 73.9088 8.67217 74.5291L8.6883 74.6178C8.89793 74.505 9.14789 74.3358 9.43009 74.1183C9.92999 73.7235 10.5186 73.1756 11.1798 72.4908C11.978 71.661 12.8488 70.7989 13.768 69.9127C14.6952 69.0184 15.6466 68.1161 16.6303 67.1976C19.6539 64.3456 22.9033 61.284 25.548 58.2225C28.1684 55.2013 30.2003 52.18 30.8534 49.3844C31.4097 46.9996 30.8534 44.7035 28.5958 42.6007C26.3301 40.4979 22.3873 38.5804 16.1949 36.953C16.3562 37.8553 16.6061 38.7657 16.9528 39.6842C17.3882 40.8524 17.9768 42.0287 18.7186 43.213L18.7428 43.2452C18.9928 43.648 19.0573 44.1153 18.9605 44.5423C18.8638 44.9693 18.5977 45.3641 18.1945 45.6139H18.1865C17.7833 45.8636 17.3157 45.9281 16.8883 45.8314C16.4691 45.7347 16.0901 45.4769 15.8321 45.0902L15.7998 45.0418C14.8807 43.5675 14.155 42.1012 13.6309 40.6349C13.0987 39.1605 12.7601 37.6861 12.615 36.2198C12.4698 34.7454 12.5101 33.2791 12.744 31.8209C12.9697 30.3626 13.389 28.9286 13.9776 27.4945C15.2516 24.4088 17.0012 21.9596 19.025 20.1307C21.2262 18.1407 23.7499 16.8678 26.3623 16.2957C27.6766 16.0057 29.0231 15.901 30.3616 15.9654C31.7 16.0299 33.0385 16.2716 34.3285 16.6905C35.6267 17.1095 36.8926 17.6976 38.0698 18.463C39.2228 19.2042 40.3113 20.1065 41.2949 21.17C43.5284 23.5709 45.2539 26.7855 46.1166 30.7574C46.8906 34.3023 46.9793 38.4515 46.1247 43.1808C45.7618 45.2191 45.2216 47.1124 44.5363 48.8929C43.8509 50.6815 43.0204 52.3573 42.0529 53.9767C41.1256 55.588 40.0532 57.1187 38.876 58.6253C37.7069 60.1239 36.433 61.5902 35.0945 63.0645C34.5543 63.6527 33.9899 64.2489 33.4094 64.8531C32.8691 65.4171 32.2805 66.0133 31.6919 66.6175C31.1033 67.2621 30.4502 67.8905 29.8375 68.5189C28.5635 69.8321 26.5881 71.8624 24.9513 73.8443C23.379 75.7457 22.1212 77.5907 22.1293 78.63V78.6783C22.1373 79.1456 21.9599 79.5807 21.6616 79.8949C21.3713 80.201 20.9682 80.4024 20.5167 80.4347L20.4441 80.4427C19.9765 80.4508 19.5411 80.2735 19.2266 79.9754C18.9202 79.6854 18.7186 79.2826 18.6864 78.8314L18.6783 78.7589C18.6299 76.922 20.1135 74.4727 21.968 72.1041C23.7822 69.7999 25.9592 67.5602 27.3621 66.118C27.9749 65.4896 28.5877 64.8451 29.2086 64.2247C29.7568 63.6607 30.3132 63.1048 30.8937 62.5006C31.442 61.9286 31.9983 61.3404 32.5466 60.7442C33.8367 59.3343 35.0381 57.9405 36.1346 56.5387C37.2312 55.1368 38.2229 53.7188 39.1018 52.2445C39.9726 50.7862 40.7225 49.2716 41.3353 47.6844C41.948 46.0892 42.4238 44.4054 42.7543 42.5926C43.5042 38.4112 43.4478 34.7616 42.8027 31.6759C42.0851 28.2679 40.6499 25.5528 38.7874 23.5467C38.0052 22.7008 37.1425 21.9837 36.2314 21.3956C35.2961 20.7913 34.3043 20.3241 33.2884 20.0018C32.2886 19.6795 31.2565 19.4942 30.2164 19.4459C29.1844 19.3976 28.1362 19.4862 27.1041 19.7037C25.04 20.1549 23.0323 21.17 21.2827 22.7813C19.6459 24.2799 18.2268 26.294 17.1705 28.8399C16.8319 29.6617 16.5658 30.4835 16.3642 31.3133C16.203 31.9981 16.0901 32.691 16.0337 33.3758C23.758 35.2852 28.6441 37.7345 31.442 40.5221C34.3689 43.4386 35.0219 46.7257 34.2237 50.1739C33.4497 53.5174 31.2162 56.9254 28.3781 60.2447C25.5722 63.5318 22.1696 66.7384 19.0008 69.7274C18.0252 70.6539 17.0657 71.5482 16.1788 72.4102C15.2838 73.2723 14.4372 74.1102 13.6712 74.8997C12.8085 75.8021 12.0022 76.5191 11.2684 77.0589C10.5025 77.6148 9.79292 77.9774 9.13982 78.1305C8.11583 78.3722 7.26115 78.2513 6.59192 77.7276C5.94689 77.2281 5.51149 76.3822 5.28572 75.1737C5.12446 74.3036 5.06802 73.3932 5.10028 72.4666C5.14059 71.5321 5.2696 70.5894 5.50342 69.671C5.72919 68.7525 6.05171 67.8663 6.45485 67.0284C6.84994 66.2227 7.32565 65.4654 7.882 64.7887C8.01101 64.6356 8.13195 64.4906 8.2529 64.3617C8.34159 64.265 8.43834 64.1602 8.54316 64.0636C8.5996 63.8299 8.65604 63.5963 8.69636 63.3465ZM63.6616 46.4115C63.6294 46.4034 63.5971 46.3954 63.5649 46.3873C63.0569 46.2262 62.6537 45.8797 62.4119 45.4447C62.17 45.0096 62.0974 44.4859 62.2264 43.9703C62.2345 43.9381 62.2425 43.8978 62.2587 43.8656C62.4199 43.358 62.7666 42.9552 63.202 42.7135C63.6536 42.4637 64.2018 42.3912 64.734 42.5443L80.4245 47.0802C80.4568 47.0882 80.489 47.0963 80.5213 47.1043C81.0293 47.2655 81.4324 47.6119 81.6743 48.047C81.9162 48.482 81.9887 49.0057 81.8597 49.5213C81.8517 49.5536 81.8436 49.5938 81.8275 49.6261C81.6662 50.1336 81.3195 50.5365 80.8841 50.7782C80.4487 51.0199 79.9246 51.0924 79.4086 50.9635C79.3764 50.9554 79.3441 50.9474 79.3118 50.9393L63.6616 46.4115ZM66.5159 27.7442C65.9596 27.7523 65.4516 27.5348 65.0888 27.1722C64.7179 26.8097 64.4921 26.3101 64.484 25.7542C64.476 25.1983 64.6937 24.6908 65.0565 24.3282C65.4193 23.9576 65.9193 23.732 66.4756 23.724C71.644 23.6515 76.8688 23.4984 82.0291 23.4984C82.5612 23.5064 83.0531 23.724 83.4078 24.0704C83.7787 24.433 84.0045 24.9325 84.0126 25.4884V25.5448C84.0045 26.0765 83.7868 26.568 83.4401 26.9225C83.0773 27.2931 82.5773 27.5186 82.021 27.5267L66.5159 27.7442ZM63.6213 11.776C63.1456 12.058 62.6054 12.1143 62.1135 11.9935C61.6136 11.8646 61.1621 11.5504 60.8799 11.075L60.8718 11.0589C60.5896 10.5836 60.5332 10.0438 60.6541 9.55234C60.7831 9.05282 61.0976 8.60165 61.5733 8.31967L75.0465 0.287199C75.5222 0.00521702 76.0705 -0.0672927 76.5704 0.0616135C77.0542 0.182463 77.4977 0.488615 77.7799 0.939787L77.8283 1.02035C78.0943 1.48764 78.1508 2.01938 78.0298 2.50278C77.9089 2.98617 77.6025 3.42929 77.151 3.71127C72.676 6.41025 68.1285 9.17367 63.6213 11.776ZM0.351187 88.7411C0.351187 69.4293 -0.438984 48.5223 0.351187 29.412C0.310872 23.297 0.318935 22.4268 5.26154 16.6019C5.87432 15.8768 6.51129 15.1839 7.1644 14.5152C7.80943 13.8546 8.47866 13.2262 9.15595 12.638C9.8413 12.0418 10.5347 11.4859 11.2443 10.9542C11.9538 10.4305 12.6714 9.931 13.4051 9.47177C16.332 7.6268 19.4443 6.09604 22.613 5.0809C25.5238 4.14633 28.4829 3.63071 31.4017 3.6871C34.1431 3.7435 36.8361 4.29135 39.4001 5.44345C41.7868 6.52304 44.0686 8.11825 46.173 10.3419C46.5923 10.785 46.9955 11.2523 47.3825 11.7357C47.7695 12.2191 48.1323 12.7186 48.479 13.2503C48.8258 13.774 49.1563 14.3219 49.4708 14.8858C49.7772 15.4498 50.0755 16.0299 50.3497 16.6341C51.4946 19.1478 52.2283 21.9676 52.6476 24.9647C53.1072 28.2599 53.1717 31.7645 52.954 35.3014C52.7121 39.3055 52.0993 43.358 51.285 47.2091C50.3416 51.6322 49.1241 55.7894 47.8663 59.2779C46.6407 62.6698 44.8991 66.2389 42.7947 69.7838C40.6338 73.4173 38.0859 77.0348 35.3042 80.4427C32.5627 83.7943 29.5633 86.9525 26.4671 89.7401C23.5 92.3988 20.428 94.711 17.3963 96.4915C15.4289 97.6517 13.5664 98.4251 11.8329 98.7796C10.059 99.1422 8.40609 99.0616 6.90638 98.4896C5.39861 97.9176 4.08434 96.8622 2.98778 95.2992C1.9154 93.7684 1.05267 91.7381 0.415691 89.16L0.407628 89.1358C0.391502 89.0714 0.383439 89.015 0.375376 88.9586C0.367313 88.878 0.35925 88.8136 0.351187 88.7411ZM3.8102 31.2005V88.5477C4.3101 90.4974 4.93095 92.0121 5.67275 93.1319C6.39035 94.2196 7.21277 94.9124 8.13195 95.2669C9.06726 95.6214 10.1638 95.6456 11.3975 95.3556C12.6795 95.0575 14.1066 94.4371 15.6547 93.5267C18.5009 91.859 21.3875 89.6756 24.2015 87.1458C27.1444 84.5033 29.9987 81.482 32.6353 78.2594C35.3122 74.9884 37.7553 71.524 39.8194 68.0597C41.8352 64.6759 43.48 61.3001 44.6411 58.1017C45.8505 54.7581 47.0196 50.7701 47.9227 46.5081C48.7048 42.8101 49.2934 38.9268 49.5272 35.0999C49.7288 31.8048 49.6724 28.558 49.2612 25.5448C48.8903 22.8297 48.2291 20.2838 47.2132 18.0521C46.9793 17.5365 46.7294 17.0289 46.4633 16.5455C46.1972 16.0621 45.915 15.5948 45.6167 15.1517C45.3264 14.7086 45.012 14.2896 44.6975 13.8868C44.375 13.484 44.0364 13.0892 43.6896 12.7267C41.9158 10.8575 40.0049 9.51205 38.0133 8.60971C35.8686 7.64291 33.6271 7.18368 31.3452 7.13534C28.7893 7.087 26.1769 7.54623 23.5887 8.39218C20.7344 9.31869 17.9204 10.7125 15.2516 12.3963C14.5904 12.8153 13.9373 13.2584 13.3003 13.7337C12.6633 14.2091 12.0425 14.7086 11.4297 15.2403C10.8169 15.7721 10.2203 16.336 9.63166 16.9403C9.04307 17.5365 8.4706 18.1729 7.89813 18.8416C5.80982 21.2989 4.76969 22.7008 4.26979 24.0865C3.77795 25.4642 3.78601 26.9144 3.80214 29.4603C3.80214 29.565 3.8102 31.1925 3.8102 31.2005Z" fill="white"/>
</svg>
