<svg width="21" height="17" viewBox="0 0 21 17" fill="none" xmlns="http://www.w3.org/2000/svg">
<path d="M10.5063 15.1705C10.5063 15.5475 10.2926 15.89 9.95806 16.0498C9.82873 16.1122 9.69014 16.1423 9.55245 16.1423C9.33441 16.1423 9.1184 16.0659 8.94393 15.9185L3.73038 11.5161H0.953643C0.427051 11.5166 0 11.0812 0 10.5446V6.67285C0 6.13601 0.427051 5.70083 0.953643 5.70083H3.7306L8.94415 1.29847C9.229 1.05788 9.624 1.00659 9.95829 1.1676C10.2926 1.32745 10.5065 1.67016 10.5065 2.04692L10.5063 15.1705ZM14.1712 13.652C14.148 13.6536 14.1256 13.6545 14.1026 13.6545C13.8507 13.6545 13.6079 13.5531 13.4284 13.37L13.3009 13.2396C12.9664 12.8994 12.9271 12.3605 13.2088 11.9736C13.923 10.9924 14.2999 9.82926 14.2999 8.60906C14.2999 7.29663 13.8719 6.06563 13.0621 5.04899C12.7538 4.66257 12.7822 4.10135 13.1278 3.74944L13.2551 3.61949C13.4456 3.42536 13.7009 3.31956 13.9771 3.33635C14.2462 3.35015 14.4974 3.47918 14.668 3.69171C15.7914 5.09246 16.3848 6.79314 16.3848 8.60929C16.3848 10.3008 15.86 11.9108 14.8669 13.2647C14.701 13.4903 14.4473 13.632 14.1712 13.652ZM18.114 16.6552C17.9416 16.8629 17.6922 16.9876 17.4251 16.9991C17.412 16.9995 17.3987 17 17.3852 17C17.1326 17 16.8902 16.8983 16.7108 16.7155L16.5855 16.5878C16.2354 16.2313 16.2117 15.6611 16.53 15.2752C18.068 13.4112 18.9153 11.0439 18.9153 8.60906C18.9153 6.07644 18.0082 3.63835 16.3616 1.744C16.0277 1.35942 16.0447 0.777272 16.3999 0.413858L16.525 0.286203C16.7105 0.0962163 16.9516 -0.00843744 17.2281 0.000532891C17.4906 0.00812317 17.7389 0.126347 17.9134 0.326455C19.9037 2.60998 21 5.55179 21 8.60906C21.0005 11.5506 19.9755 14.4083 18.114 16.6552Z" fill="#757575"/>
</svg>
