<svg width="19" height="20" viewBox="0 0 19 20" fill="none" xmlns="http://www.w3.org/2000/svg">
<path d="M7.00409 4.00017C7.00409 3.46974 7.21481 2.96103 7.58988 2.58596C7.96495 2.21089 8.47366 2.00017 9.00409 2.00017C9.53452 2.00017 10.0432 2.21089 10.4183 2.58596C10.7934 2.96103 11.0041 3.46974 11.0041 4.00017V9.00017C11.0084 9.05342 11.0084 9.10693 11.0041 9.16017L12.6041 10.7502C12.8683 10.2047 13.0051 9.60628 13.0041 9.00017V4.00017C12.993 3.01237 12.6168 2.0636 11.948 1.33662C11.2791 0.609637 10.3649 0.155877 9.38144 0.0627455C8.39798 -0.0303856 7.41484 0.2437 6.6214 0.832206C5.82797 1.42071 5.28037 2.28201 5.08409 3.25017L7.00409 5.17017V4.00017ZM16.0041 9.00017C16.0041 8.73496 15.8987 8.4806 15.7112 8.29307C15.5237 8.10553 15.2693 8.00017 15.0041 8.00017C14.7389 8.00017 14.4845 8.10553 14.297 8.29307C14.1094 8.4806 14.0041 8.73496 14.0041 9.00017C14.0012 9.87383 13.7628 10.7306 13.3141 11.4802L14.7841 13.0002C15.5888 11.8223 16.0145 10.4267 16.0041 9.00017V9.00017ZM9.00409 13.0002H9.16409L5.00409 8.83017V9.00017C5.00409 10.061 5.42552 11.0785 6.17566 11.8286C6.92581 12.5787 7.94323 13.0002 9.00409 13.0002ZM17.7141 17.2902L1.71409 1.29017C1.62085 1.19694 1.51016 1.12297 1.38834 1.07251C1.26652 1.02205 1.13595 0.996083 1.00409 0.996083C0.872233 0.996083 0.741665 1.02205 0.619843 1.07251C0.498021 1.12297 0.38733 1.19694 0.294092 1.29017C0.105788 1.47848 0 1.73387 0 2.00017C0 2.26648 0.105788 2.52187 0.294092 2.71017L16.2941 18.7102C16.3871 18.8039 16.4977 18.8783 16.6195 18.9291C16.7414 18.9798 16.8721 19.006 17.0041 19.006C17.1361 19.006 17.2668 18.9798 17.3887 18.9291C17.5105 18.8783 17.6211 18.8039 17.7141 18.7102C17.8078 18.6172 17.8822 18.5066 17.933 18.3848C17.9838 18.2629 18.0099 18.1322 18.0099 18.0002C18.0099 17.8682 17.9838 17.7375 17.933 17.6156C17.8822 17.4937 17.8078 17.3831 17.7141 17.2902V17.2902Z" fill="#757575"/>
<path d="M12.0041 18H10.0041V15.92C10.57 15.8412 11.1241 15.6935 11.6541 15.48L10.0541 13.88C9.70991 13.9605 9.35755 14.0007 9.00409 14C7.67801 14 6.40624 13.4732 5.46856 12.5355C4.53087 11.5979 4.00409 10.3261 4.00409 9C4.00409 8.73478 3.89873 8.48043 3.7112 8.29289C3.52366 8.10536 3.26931 8 3.00409 8C2.73887 8 2.48452 8.10536 2.29698 8.29289C2.10945 8.48043 2.00409 8.73478 2.00409 9C2.00606 10.6818 2.6135 12.3068 3.71527 13.5775C4.81704 14.8482 6.33949 15.6797 8.00409 15.92V18H6.00409C5.73887 18 5.48452 18.1054 5.29698 18.2929C5.10945 18.4804 5.00409 18.7348 5.00409 19C5.00409 19.2652 5.10945 19.5196 5.29698 19.7071C5.48452 19.8946 5.73887 20 6.00409 20H12.0041C12.2693 20 12.5237 19.8946 12.7112 19.7071C12.8987 19.5196 13.0041 19.2652 13.0041 19C13.0041 18.7348 12.8987 18.4804 12.7112 18.2929C12.5237 18.1054 12.2693 18 12.0041 18Z" fill="#757575"/>
</svg>
