<svg width="14" height="14" viewBox="0 0 14 14" fill="none" xmlns="http://www.w3.org/2000/svg">
<path d="M12.8447 11.1382L4.27931 3.13304L9.85612 2.94452C10.1212 2.93556 10.3718 2.82167 10.5529 2.6279C10.734 2.43413 10.8307 2.17637 10.8218 1.9113C10.8128 1.64624 10.6989 1.39559 10.5051 1.21449C10.3114 1.0334 10.0536 0.936698 9.78855 0.945659L1.84309 1.21426C1.57802 1.22322 1.32737 1.33711 1.14628 1.53088C0.965187 1.72464 0.868484 1.98241 0.877445 2.24748L1.14774 10.2429C1.1567 10.508 1.27059 10.7586 1.46435 10.9397C1.65812 11.1208 1.91589 11.2175 2.18095 11.2085L2.13098 11.2102C2.39604 11.2013 2.64669 11.0874 2.82779 10.8936C3.00888 10.6999 3.10558 10.4421 3.09662 10.177L2.90911 4.63019L11.4435 12.6064C11.5395 12.6969 11.6526 12.7675 11.7761 12.8142C11.8996 12.8608 12.0311 12.8825 12.1631 12.878C12.295 12.8736 12.4247 12.843 12.5448 12.7882C12.6649 12.7333 12.7729 12.6552 12.8627 12.5584C12.9552 12.4643 13.0283 12.3527 13.0775 12.2302C13.1268 12.1077 13.1513 11.9766 13.1496 11.8446C13.1479 11.7125 13.1201 11.5821 13.0678 11.4609C13.0154 11.3397 12.9396 11.23 12.8447 11.1382V11.1382Z" fill="#25282B"/>
</svg>
