<svg width="9" height="10" viewBox="0 0 9 10" fill="none" xmlns="http://www.w3.org/2000/svg">
<path d="M0.259201 5.41134C0.179261 5.36547 0.1139 5.30409 0.0687466 5.23249C0.023592 5.16089 0 5.08122 0 5.00034C0 4.91945 0.023592 4.83978 0.0687466 4.76818C0.1139 4.69659 0.179261 4.63521 0.259201 4.58934L8.05866 0.0893393C8.14862 0.0372515 8.25399 0.00670719 8.36332 0.00102234C8.47265 -0.00466156 8.58175 0.0147314 8.67879 0.0570965C8.77582 0.0994616 8.85706 0.163177 8.91369 0.241322C8.97032 0.319466 9.00017 0.409049 9 0.50034V9.50034C8.99955 9.59142 8.96931 9.68067 8.91255 9.7585C8.85578 9.83633 8.77463 9.89979 8.67783 9.94205C8.58102 9.98432 8.47222 10.0038 8.36312 9.99838C8.25403 9.99297 8.14877 9.96288 8.05866 9.91134L0.259201 5.41134Z" fill="white"/>
</svg>
