<svg width="14" height="50" viewBox="0 0 14 50" fill="none" xmlns="http://www.w3.org/2000/svg">
<path d="M0.244141 43.75V42.4316C0.244141 42.3991 0.260417 42.3665 0.292969 42.334L0.341797 42.1387C0.537109 40.7389 1.1556 39.5426 2.19727 38.5498C3.23893 37.557 4.44336 37.028 5.81055 36.9629C7.34049 36.8327 8.69141 37.1663 9.86328 37.9639C11.0352 38.7614 11.8327 39.8763 12.2559 41.3086C12.2884 41.3411 12.3128 41.39 12.3291 41.4551C12.3454 41.5202 12.3617 41.5771 12.3779 41.626C12.3942 41.6748 12.4023 41.7236 12.4023 41.7725C12.4023 41.8213 12.4105 41.8783 12.4268 41.9434C12.443 42.0085 12.4593 42.0654 12.4756 42.1143C12.4919 42.1631 12.5081 42.2201 12.5244 42.2852C12.5407 42.3503 12.5488 42.3991 12.5488 42.4316V43.75L12.5244 43.8721L12.4512 44.043C12.2559 45.3125 11.7269 46.4111 10.8643 47.3389C10.0016 48.2666 8.93555 48.8607 7.66602 49.1211C7.56836 49.1536 7.43815 49.1862 7.27539 49.2188C7.17773 49.2513 7.11263 49.2676 7.08008 49.2676H5.66406C5.56641 49.235 5.5013 49.2025 5.46875 49.1699C4.19922 48.9746 3.11686 48.4538 2.22168 47.6074C1.3265 46.7611 0.732422 45.7194 0.439453 44.4824C0.406901 44.3848 0.366211 44.2546 0.317383 44.0918C0.268555 43.929 0.244141 43.8151 0.244141 43.75ZM12.5488 6.25V7.56836L12.5244 7.69043L12.4512 7.86133C12.2559 9.26107 11.6292 10.4574 10.5713 11.4502C9.51335 12.443 8.30078 12.972 6.93359 13.0371C5.92448 13.1022 4.98047 12.9639 4.10156 12.6221C3.22266 12.2803 2.47396 11.7676 1.85547 11.084C1.23698 10.4004 0.78125 9.58659 0.488281 8.64258C0.488281 8.54492 0.406901 8.18685 0.244141 7.56836V6.25C0.244141 6.21745 0.260417 6.16862 0.292969 6.10352L0.341797 5.95703C0.797526 3.45052 2.26237 1.79036 4.73633 0.976562C4.86654 0.94401 5.05371 0.895182 5.29785 0.830078C5.54199 0.764974 5.68034 0.732422 5.71289 0.732422H7.08008L7.12891 0.78125C7.22656 0.813802 7.29167 0.830078 7.32422 0.830078C8.59375 1.02539 9.68424 1.54622 10.5957 2.39258C11.5072 3.23893 12.1094 4.29688 12.4023 5.56641C12.4349 5.69661 12.4837 5.9082 12.5488 6.20117V6.25ZM12.5488 24.3164V25.6836L12.5 25.8057L12.4512 25.9766C12.2233 27.3763 11.5804 28.5726 10.5225 29.5654C9.46452 30.5583 8.25195 31.0872 6.88477 31.1523C5.32227 31.2174 3.94694 30.8268 2.75879 29.9805C1.57064 29.1341 0.797526 27.9948 0.439453 26.5625C0.406901 26.3672 0.341797 26.0742 0.244141 25.6836V24.3164L0.292969 24.1943L0.341797 24.0234C0.537109 22.6237 1.17188 21.4274 2.24609 20.4346C3.32031 19.4417 4.54102 18.9128 5.9082 18.8477C7.4707 18.7826 8.84603 19.1732 10.0342 20.0195C11.2223 20.8659 11.9954 22.0052 12.3535 23.4375C12.3861 23.6328 12.4512 23.9258 12.5488 24.3164Z" fill="white"/>
</svg>
