<svg width="1760" height="914" viewBox="0 0 1760 914" fill="none" xmlns="http://www.w3.org/2000/svg">
<rect width="1760" height="914" rx="30" fill="white"/>
<path d="M1725.71 0H34.2857C15.3502 0 0 15.3454 0 34.275V879.725C0 898.655 15.3502 914 34.2857 914H1725.71C1744.65 914 1760 898.655 1760 879.725V34.275C1760 15.3454 1744.65 0 1725.71 0Z" fill="white"/>
<path d="M1760 816.888H0V914H1760V816.888Z" fill="url(#paint0_linear)"/>
<path d="M1760 816.888H0V914H1760V816.888Z" fill="url(#paint1_linear)"/>
<path d="M641.681 690.236H595.481C593.321 690.236 591.561 690.076 590.201 689.756C588.921 689.356 587.921 688.796 587.201 688.076C586.481 687.356 586.001 686.437 585.761 685.317C585.521 684.197 585.401 682.918 585.401 681.478V665.643C585.401 664.204 585.521 662.924 585.761 661.804C586.001 660.685 586.481 659.765 587.201 659.045C587.921 658.325 588.921 657.806 590.201 657.486C591.561 657.086 593.321 656.886 595.481 656.886H641.681V638.771H587.321C578.441 638.771 572.001 640.491 568.001 643.93C564.001 647.289 562.001 652.447 562.001 659.405V687.716C562.001 694.674 564.001 699.872 568.001 703.311C572.001 706.67 578.441 708.35 587.321 708.35H641.681V690.236ZM688.221 656.886H701.061C703.221 656.886 704.941 657.086 706.221 657.486C707.581 657.806 708.621 658.325 709.341 659.045C710.061 659.765 710.541 660.685 710.781 661.804C711.021 662.924 711.141 664.204 711.141 665.643V681.478C711.141 682.918 711.021 684.197 710.781 685.317C710.541 686.437 710.061 687.356 709.341 688.076C708.621 688.796 707.581 689.356 706.221 689.756C704.941 690.076 703.221 690.236 701.061 690.236H688.221C686.061 690.236 684.301 690.076 682.941 689.756C681.661 689.356 680.661 688.796 679.941 688.076C679.221 687.356 678.741 686.437 678.501 685.317C678.261 684.197 678.141 682.918 678.141 681.478V665.643C678.141 664.204 678.261 662.924 678.501 661.804C678.741 660.685 679.221 659.765 679.941 659.045C680.661 658.325 681.661 657.806 682.941 657.486C684.301 657.086 686.061 656.886 688.221 656.886ZM734.421 687.716V659.405C734.421 652.447 732.421 647.289 728.421 643.93C724.501 640.491 718.101 638.771 709.221 638.771H680.061C671.181 638.771 664.741 640.491 660.741 643.93C656.741 647.289 654.741 652.447 654.741 659.405V687.716C654.741 694.674 656.741 699.872 660.741 703.311C664.741 706.67 671.181 708.35 680.061 708.35H709.221C718.101 708.35 724.501 706.67 728.421 703.311C732.421 699.872 734.421 694.674 734.421 687.716ZM770.881 708.35V665.643C770.881 664.204 771.001 662.924 771.242 661.804C771.481 660.685 771.961 659.765 772.681 659.045C773.401 658.325 774.401 657.806 775.681 657.486C777.041 657.086 778.801 656.886 780.961 656.886H793.801C795.961 656.886 797.681 657.086 798.961 657.486C800.321 657.806 801.361 658.325 802.081 659.045C802.801 659.765 803.282 660.685 803.522 661.804C803.762 662.924 803.881 664.204 803.881 665.643V708.35H827.161V659.405C827.161 652.447 825.161 647.289 821.161 643.93C817.241 640.491 810.841 638.771 801.961 638.771H772.801C763.921 638.771 757.481 640.491 753.481 643.93C749.481 647.289 747.481 652.447 747.481 659.405V708.35H770.881ZM921.221 692.755C921.221 690.595 920.942 688.676 920.382 686.996C919.822 685.237 919.101 683.717 918.221 682.438C917.421 681.078 916.501 679.959 915.461 679.079C914.421 678.119 913.381 677.399 912.341 676.92L871.061 657.486L871.182 657.606C870.941 657.526 870.622 657.286 870.222 656.886H921.101V638.771H858.341C853.541 638.771 849.661 639.971 846.701 642.37C843.821 644.77 841.741 647.929 840.461 651.847C840.381 652.087 840.341 652.927 840.341 654.367C840.341 657.726 841.021 660.885 842.381 663.844C843.821 666.723 846.061 668.882 849.101 670.322L890.501 689.756C890.901 689.996 891.101 690.156 891.101 690.236H840.341V708.35H903.102C907.901 708.35 911.741 707.15 914.621 704.751C917.581 702.352 919.661 699.193 920.862 695.274C921.022 694.954 921.101 694.634 921.101 694.314C921.181 693.914 921.221 693.394 921.221 692.755ZM967.496 656.886H980.336C982.496 656.886 984.216 657.086 985.496 657.486C986.856 657.806 987.896 658.325 988.616 659.045C989.336 659.765 989.816 660.685 990.056 661.804C990.296 662.924 990.416 664.204 990.416 665.643V681.478C990.416 682.918 990.296 684.197 990.056 685.317C989.816 686.437 989.336 687.356 988.616 688.076C987.896 688.796 986.856 689.356 985.496 689.756C984.216 690.076 982.496 690.236 980.336 690.236H967.496C965.336 690.236 963.576 690.076 962.216 689.756C960.936 689.356 959.936 688.796 959.216 688.076C958.496 687.356 958.016 686.437 957.776 685.317C957.536 684.197 957.416 682.918 957.416 681.478V665.643C957.416 664.204 957.536 662.924 957.776 661.804C958.016 660.685 958.496 659.765 959.216 659.045C959.936 658.325 960.936 657.806 962.216 657.486C963.576 657.086 965.336 656.886 967.496 656.886ZM1013.7 687.716V659.405C1013.7 652.447 1011.7 647.289 1007.7 643.93C1003.78 640.491 997.376 638.771 988.496 638.771H959.336C950.456 638.771 944.016 640.491 940.016 643.93C936.016 647.289 934.016 652.447 934.016 659.405V687.716C934.016 694.674 936.016 699.872 940.016 703.311C944.016 706.67 950.456 708.35 959.336 708.35H988.496C997.376 708.35 1003.78 706.67 1007.7 703.311C1011.7 699.872 1013.7 694.674 1013.7 687.716ZM1050.16 656.886H1074.52C1076.44 656.886 1077.96 656.966 1079.08 657.126C1080.2 657.206 1081.04 657.446 1081.6 657.846C1082.24 658.165 1082.64 658.685 1082.8 659.405C1083.04 660.045 1083.16 660.925 1083.16 662.044C1083.16 664.124 1082.56 665.483 1081.36 666.123C1080.24 666.763 1077.96 667.083 1074.52 667.083H1050.16V656.886ZM1106.56 664.563V659.405C1106.56 652.447 1104.56 647.289 1100.56 643.93C1096.56 640.491 1090.12 638.771 1081.24 638.771H1026.88V708.35H1050.16V685.437H1060.48L1082.68 708.35H1109.44L1087.36 685.077C1094.32 684.437 1099.24 682.438 1102.12 679.079C1105.08 675.72 1106.56 670.881 1106.56 664.563ZM1198.46 656.886H1170.62V708.35H1147.22V656.886H1119.26V638.771H1198.46V656.886Z" fill="#777777"/>
<path d="M545.149 142.516L547.069 131.616H559.137L556.6 146.217C555.914 150.102 554.291 152.981 551.731 154.855C549.171 156.728 545.4 157.665 540.417 157.665H537.811L535.411 171.375H523.343L525.743 157.665H523.137C518.154 157.665 514.726 156.728 512.851 154.855C510.977 152.981 510.383 150.102 511.069 146.217L513.606 131.616H525.674L523.754 142.516C523.571 143.567 523.503 144.481 523.549 145.258C523.594 145.989 523.823 146.606 524.234 147.109C524.646 147.611 525.263 148 526.086 148.274C526.954 148.502 528.12 148.617 529.583 148.617H537.263C538.68 148.617 539.846 148.502 540.76 148.274C541.72 148 542.497 147.611 543.091 147.109C543.686 146.606 544.12 145.989 544.394 145.258C544.714 144.481 544.966 143.567 545.149 142.516ZM590.263 140.665C591.68 140.665 592.823 140.802 593.691 141.076C594.56 141.305 595.2 141.67 595.611 142.173C596.023 142.676 596.229 143.315 596.229 144.092C596.274 144.869 596.206 145.76 596.023 146.766L594.377 156.226C594.194 157.277 593.943 158.191 593.623 158.968C593.349 159.699 592.914 160.316 592.32 160.819C591.726 161.321 590.949 161.71 589.989 161.984C589.029 162.212 587.84 162.327 586.423 162.327H578.743C577.28 162.327 576.114 162.212 575.246 161.984C574.423 161.71 573.806 161.321 573.394 160.819C572.983 160.316 572.754 159.699 572.709 158.968C572.709 158.191 572.8 157.277 572.983 156.226L574.629 146.766C574.811 145.76 575.04 144.869 575.314 144.092C575.634 143.315 576.091 142.676 576.686 142.173C577.28 141.67 578.034 141.305 578.949 141.076C579.909 140.802 581.12 140.665 582.583 140.665H590.263ZM608.777 143.064C609.463 139.18 608.846 136.3 606.926 134.427C605.051 132.553 601.623 131.616 596.64 131.616H579.36C574.377 131.616 570.606 132.553 568.046 134.427C565.531 136.3 563.931 139.18 563.246 143.064L560.229 159.927C559.589 163.812 560.206 166.691 562.08 168.565C563.954 170.438 567.383 171.375 572.366 171.375H589.646C594.629 171.375 598.4 170.438 600.96 168.565C603.52 166.691 605.12 163.812 605.76 159.927L608.777 143.064ZM646.007 156.226L650.327 131.616H662.396L657.39 159.927C656.75 163.812 655.15 166.691 652.59 168.565C650.03 170.438 646.259 171.375 641.276 171.375H623.996C619.013 171.375 615.584 170.438 613.71 168.565C611.836 166.691 611.219 163.812 611.859 159.927L616.864 131.616H628.933L624.613 156.226C624.43 157.277 624.339 158.191 624.339 158.968C624.384 159.699 624.613 160.316 625.024 160.819C625.436 161.321 626.053 161.71 626.876 161.984C627.744 162.212 628.91 162.327 630.373 162.327H638.053C639.47 162.327 640.659 162.212 641.619 161.984C642.579 161.71 643.356 161.321 643.95 160.819C644.544 160.316 644.979 159.699 645.253 158.968C645.573 158.191 645.824 157.277 646.007 156.226ZM694.346 140.665C695.671 140.665 696.723 140.711 697.5 140.802C698.277 140.893 698.849 141.076 699.214 141.35C699.58 141.625 699.786 142.036 699.831 142.584C699.877 143.087 699.831 143.772 699.694 144.641C699.42 146.195 698.826 147.246 697.911 147.794C696.997 148.297 695.351 148.548 692.974 148.548H677.614L678.986 140.665H694.346ZM697.02 157.597C701.546 157.414 704.929 156.386 707.169 154.512C709.409 152.638 710.849 149.851 711.489 146.149L712.037 143.064C712.723 139.18 712.106 136.3 710.186 134.427C708.311 132.553 704.883 131.616 699.9 131.616H668.494L661.5 171.375H673.569L675.969 157.665H683.306L694.14 171.375H707.58L697.02 157.597ZM795.474 143.064L794.926 146.149C794.24 150.033 792.617 152.912 790.057 154.786C787.497 156.66 783.726 157.597 778.743 157.597H759.406L757.006 171.375H744.937L751.931 131.616H783.337C788.32 131.616 791.749 132.553 793.623 134.427C795.543 136.3 796.16 139.18 795.474 143.064ZM777.783 140.665H762.423L761.051 148.548H776.411C778.789 148.548 780.434 148.297 781.349 147.794C782.263 147.246 782.857 146.195 783.131 144.641C783.269 143.772 783.314 143.087 783.269 142.584C783.223 142.036 783.017 141.625 782.651 141.35C782.286 141.076 781.714 140.893 780.937 140.802C780.16 140.711 779.109 140.665 777.783 140.665ZM813.876 149.302H828.07C827.796 146.149 827.316 143.932 826.63 142.653C825.944 141.327 824.893 140.665 823.476 140.665H821.624C820.801 140.665 820.07 140.825 819.43 141.145C818.836 141.419 818.241 141.899 817.647 142.584C817.099 143.224 816.527 144.092 815.933 145.189C815.339 146.286 814.653 147.657 813.876 149.302ZM842.607 171.375H830.127L828.893 158.351H809.967L804.207 171.375H791.796L804.07 142.996C804.527 141.99 805.19 140.825 806.059 139.499C806.973 138.174 807.979 136.94 809.076 135.798C810.219 134.61 811.43 133.627 812.71 132.85C813.99 132.028 815.247 131.616 816.481 131.616H831.636C832.916 131.616 834.059 131.982 835.064 132.713C836.07 133.399 836.916 134.29 837.601 135.386C838.333 136.483 838.904 137.717 839.316 139.088C839.727 140.413 840.001 141.716 840.139 142.996L842.607 171.375ZM880.774 140.665C882.1 140.665 883.151 140.711 883.929 140.802C884.706 140.893 885.277 141.076 885.643 141.35C886.009 141.625 886.214 142.036 886.26 142.584C886.306 143.087 886.26 143.772 886.123 144.641C885.849 146.195 885.254 147.246 884.34 147.794C883.426 148.297 881.78 148.548 879.403 148.548H864.043L865.414 140.665H880.774ZM883.449 157.597C887.974 157.414 891.357 156.386 893.597 154.512C895.837 152.638 897.277 149.851 897.917 146.149L898.466 143.064C899.151 139.18 898.534 136.3 896.614 134.427C894.74 132.553 891.311 131.616 886.328 131.616H854.923L847.929 171.375H859.997L862.397 157.665H869.734L880.569 171.375H894.009L883.449 157.597ZM950.097 140.665H933.503L928.086 171.375H916.017L921.434 140.665H904.84L906.417 131.616H951.674L950.097 140.665ZM967.107 146.766C967.29 145.76 967.519 144.869 967.793 144.092C968.113 143.315 968.57 142.676 969.164 142.173C969.758 141.67 970.513 141.305 971.427 141.076C972.387 140.802 973.599 140.665 975.061 140.665H982.741C984.159 140.665 985.301 140.802 986.17 141.076C987.038 141.305 987.679 141.67 988.09 142.173C988.501 142.676 988.707 143.315 988.707 144.092C988.753 144.869 988.684 145.76 988.501 146.766L984.181 171.375H996.25L1001.26 143.064C1001.94 139.18 1001.32 136.3 999.404 134.427C997.53 132.553 994.101 131.616 989.119 131.616H971.839C966.856 131.616 963.084 132.553 960.524 134.427C958.01 136.3 956.41 139.18 955.724 143.064L950.719 171.375H962.787L967.107 146.766ZM1049.46 162.327L1047.88 171.375H1016.47C1011.49 171.375 1008.06 170.438 1006.19 168.565C1004.31 166.691 1003.7 163.812 1004.34 159.927L1007.35 143.064C1008.04 139.18 1009.64 136.3 1012.15 134.427C1014.71 132.553 1018.48 131.616 1023.47 131.616H1054.87L1053.3 140.665H1026.69C1025.23 140.665 1024.02 140.802 1023.06 141.076C1022.14 141.305 1021.39 141.67 1020.79 142.173C1020.2 142.676 1019.74 143.315 1019.42 144.092C1019.15 144.869 1018.92 145.76 1018.74 146.766V146.834H1052.2L1050.62 155.883H1017.16L1017.09 156.226C1016.91 157.277 1016.82 158.191 1016.82 158.968C1016.86 159.699 1017.09 160.316 1017.5 160.819C1017.91 161.321 1018.53 161.71 1019.35 161.984C1020.22 162.212 1021.39 162.327 1022.85 162.327H1049.46ZM1086.82 140.665C1088.15 140.665 1089.2 140.711 1089.98 140.802C1090.75 140.893 1091.33 141.076 1091.69 141.35C1092.06 141.625 1092.26 142.036 1092.31 142.584C1092.35 143.087 1092.31 143.772 1092.17 144.641C1091.9 146.195 1091.3 147.246 1090.39 147.794C1089.47 148.297 1087.83 148.548 1085.45 148.548H1070.09L1071.46 140.665H1086.82ZM1089.5 157.597C1094.02 157.414 1097.41 156.386 1099.65 154.512C1101.89 152.638 1103.33 149.851 1103.97 146.149L1104.51 143.064C1105.2 139.18 1104.58 136.3 1102.66 134.427C1100.79 132.553 1097.36 131.616 1092.38 131.616H1060.97L1053.98 171.375H1066.05L1068.45 157.665H1075.78L1086.62 171.375H1100.06L1089.5 157.597ZM1152.92 164.04C1152.97 163.995 1153.06 163.629 1153.2 162.944C1153.61 160.613 1153.43 158.716 1152.65 157.254C1151.87 155.792 1150.98 154.809 1149.98 154.306L1127.48 142.721C1127.3 142.63 1127.12 142.493 1126.94 142.31C1126.8 142.127 1126.71 141.899 1126.66 141.625V141.556C1126.71 141.327 1126.87 141.122 1127.14 140.939C1127.46 140.756 1127.8 140.665 1128.17 140.665H1157.04L1158.62 131.616H1122.27C1119.67 131.616 1117.43 132.302 1115.55 133.673C1113.72 134.998 1112.28 136.757 1111.23 138.951C1111.19 138.997 1111.12 139.362 1111.03 140.048C1110.66 141.83 1110.73 143.544 1111.23 145.189C1111.74 146.789 1112.72 147.977 1114.18 148.754L1136.67 160.27C1136.81 160.362 1136.99 160.499 1137.22 160.681C1137.45 160.819 1137.52 161.07 1137.43 161.435C1137.29 162.03 1136.79 162.327 1135.92 162.327H1107.05L1105.47 171.375H1141.88C1144.49 171.375 1146.71 170.713 1148.54 169.387C1150.41 168.016 1151.87 166.234 1152.92 164.04ZM1208.78 131.616L1201.78 171.375H1189.65L1196.64 131.616H1208.78ZM1224.18 146.766C1224.37 145.76 1224.59 144.869 1224.87 144.092C1225.19 143.315 1225.65 142.676 1226.24 142.173C1226.83 141.67 1227.59 141.305 1228.5 141.076C1229.46 140.802 1230.67 140.665 1232.14 140.665H1239.82C1241.23 140.665 1242.38 140.802 1243.25 141.076C1244.11 141.305 1244.75 141.67 1245.17 142.173C1245.58 142.676 1245.78 143.315 1245.78 144.092C1245.83 144.869 1245.76 145.76 1245.58 146.766L1241.26 171.375H1253.33L1258.33 143.064C1259.02 139.18 1258.4 136.3 1256.48 134.427C1254.61 132.553 1251.18 131.616 1246.19 131.616H1228.91C1223.93 131.616 1220.16 132.553 1217.6 134.427C1215.09 136.3 1213.49 139.18 1212.8 143.064L1207.79 171.375H1219.86L1224.18 146.766ZM374.334 240.873C372.871 240.873 371.706 240.759 370.837 240.531C370.014 240.257 369.397 239.868 368.986 239.365C368.574 238.863 368.346 238.246 368.3 237.515C368.3 236.738 368.391 235.824 368.574 234.773L370.22 225.313C370.403 224.307 370.631 223.416 370.906 222.639C371.226 221.862 371.683 221.222 372.277 220.72C372.871 220.217 373.626 219.851 374.54 219.623C375.5 219.349 376.711 219.212 378.174 219.212H404.78L406.357 210.163H374.951C369.969 210.163 366.197 211.1 363.637 212.974C361.123 214.847 359.523 217.726 358.837 221.611L355.82 238.474C355.18 242.359 355.797 245.238 357.671 247.112C359.546 248.985 362.974 249.922 367.957 249.922H399.363L400.94 240.873H374.334ZM438.307 219.212C439.633 219.212 440.684 219.257 441.461 219.349C442.239 219.44 442.81 219.623 443.176 219.897C443.541 220.171 443.747 220.583 443.793 221.131C443.839 221.634 443.793 222.319 443.656 223.188C443.381 224.741 442.787 225.792 441.873 226.341C440.959 226.844 439.313 227.095 436.936 227.095H421.576L422.947 219.212H438.307ZM440.981 236.144C445.507 235.961 448.89 234.932 451.13 233.059C453.37 231.185 454.81 228.397 455.45 224.696L455.999 221.611C456.684 217.726 456.067 214.847 454.147 212.974C452.273 211.1 448.844 210.163 443.861 210.163H412.456L405.461 249.922H417.53L419.93 236.212H427.267L438.101 249.922H451.541L440.981 236.144ZM476.089 210.163L469.094 249.922H456.957L463.951 210.163H476.089ZM525.779 219.212H509.184L503.767 249.922H491.699L497.116 219.212H480.521L482.099 210.163H527.356L525.779 219.212ZM545.53 210.163L538.536 249.922H526.399L533.393 210.163H545.53ZM565.049 240.873C563.586 240.873 562.42 240.759 561.551 240.531C560.729 240.257 560.111 239.868 559.7 239.365C559.289 238.863 559.06 238.246 559.014 237.515C559.014 236.738 559.106 235.824 559.289 234.773L560.934 225.313C561.117 224.307 561.346 223.416 561.62 222.639C561.94 221.862 562.397 221.222 562.991 220.72C563.586 220.217 564.34 219.851 565.254 219.623C566.214 219.349 567.426 219.212 568.889 219.212H595.494L597.071 210.163H565.666C560.683 210.163 556.911 211.1 554.351 212.974C551.837 214.847 550.237 217.726 549.551 221.611L546.534 238.474C545.894 242.359 546.511 245.238 548.386 247.112C550.26 248.985 553.689 249.922 558.671 249.922H590.077L591.654 240.873H565.049ZM617.57 227.849H631.764C631.49 224.696 631.01 222.479 630.324 221.2C629.639 219.874 628.587 219.212 627.17 219.212H625.319C624.496 219.212 623.764 219.372 623.124 219.692C622.53 219.966 621.936 220.446 621.341 221.131C620.793 221.771 620.221 222.639 619.627 223.736C619.033 224.833 618.347 226.204 617.57 227.849ZM646.301 249.922H633.821L632.587 236.898H613.661L607.901 249.922H595.49L607.764 221.542C608.221 220.537 608.884 219.372 609.753 218.046C610.667 216.721 611.673 215.487 612.77 214.345C613.913 213.156 615.124 212.174 616.404 211.397C617.684 210.574 618.941 210.163 620.176 210.163H635.33C636.61 210.163 637.753 210.529 638.759 211.26C639.764 211.945 640.61 212.837 641.296 213.933C642.027 215.03 642.599 216.264 643.01 217.635C643.421 218.96 643.696 220.263 643.833 221.542L646.301 249.922ZM670.317 240.873C668.854 240.873 667.689 240.759 666.82 240.531C665.997 240.257 665.38 239.868 664.969 239.365C664.557 238.863 664.329 238.246 664.283 237.515C664.283 236.738 664.374 235.824 664.557 234.773L668.877 210.163H656.809L651.803 238.474C651.163 242.359 651.78 245.238 653.654 247.112C655.529 248.985 658.957 249.922 663.94 249.922H695.346L696.923 240.873H670.317ZM753.889 240.873C752.426 240.873 751.26 240.759 750.391 240.531C749.569 240.257 748.951 239.868 748.54 239.365C748.129 238.863 747.9 238.246 747.854 237.515C747.854 236.738 747.946 235.824 748.129 234.773L749.774 225.313C749.957 224.307 750.186 223.416 750.46 222.639C750.78 221.862 751.237 221.222 751.831 220.72C752.426 220.217 753.18 219.851 754.094 219.623C755.054 219.349 756.266 219.212 757.729 219.212H784.334L785.911 210.163H754.506C749.523 210.163 745.751 211.1 743.191 212.974C740.677 214.847 739.077 217.726 738.391 221.611L735.374 238.474C734.734 242.359 735.351 245.238 737.226 247.112C739.1 248.985 742.529 249.922 747.511 249.922H778.917L780.494 240.873H753.889ZM817.037 219.212C818.454 219.212 819.597 219.349 820.466 219.623C821.334 219.851 821.974 220.217 822.386 220.72C822.797 221.222 823.003 221.862 823.003 222.639C823.049 223.416 822.98 224.307 822.797 225.313L821.151 234.773C820.969 235.824 820.717 236.738 820.397 237.515C820.123 238.246 819.689 238.863 819.094 239.365C818.5 239.868 817.723 240.257 816.763 240.531C815.803 240.759 814.614 240.873 813.197 240.873H805.517C804.054 240.873 802.889 240.759 802.02 240.531C801.197 240.257 800.58 239.868 800.169 239.365C799.757 238.863 799.529 238.246 799.483 237.515C799.483 236.738 799.574 235.824 799.757 234.773L801.403 225.313C801.586 224.307 801.814 223.416 802.089 222.639C802.409 221.862 802.866 221.222 803.46 220.72C804.054 220.217 804.809 219.851 805.723 219.623C806.683 219.349 807.894 219.212 809.357 219.212H817.037ZM835.551 221.611C836.237 217.726 835.62 214.847 833.7 212.974C831.826 211.1 828.397 210.163 823.414 210.163H806.134C801.151 210.163 797.38 211.1 794.82 212.974C792.306 214.847 790.706 217.726 790.02 221.611L787.003 238.474C786.363 242.359 786.98 245.238 788.854 247.112C790.729 248.985 794.157 249.922 799.14 249.922H816.42C821.403 249.922 825.174 248.985 827.734 247.112C830.294 245.238 831.894 242.359 832.534 238.474L835.551 221.611ZM853.033 225.313L848.713 249.922H836.644L841.65 221.611C842.336 217.726 843.936 214.847 846.45 212.974C849.01 211.1 852.781 210.163 857.764 210.163H887.867C892.85 210.163 896.279 211.1 898.153 212.974C900.073 214.847 900.69 217.726 900.004 221.611L894.999 249.922H882.93L887.25 225.313C887.433 224.307 887.501 223.416 887.456 222.639C887.456 221.862 887.25 221.222 886.839 220.72C886.427 220.217 885.787 219.851 884.919 219.623C884.05 219.349 882.907 219.212 881.49 219.212H877.17L871.753 249.922H859.684L865.101 219.212H860.987C859.524 219.212 858.313 219.349 857.353 219.623C856.439 219.851 855.684 220.217 855.09 220.72C854.496 221.222 854.039 221.862 853.719 222.639C853.444 223.416 853.216 224.307 853.033 225.313ZM917.453 225.313L913.133 249.922H901.064L906.07 221.611C906.756 217.726 908.356 214.847 910.87 212.974C913.43 211.1 917.201 210.163 922.184 210.163H952.287C957.27 210.163 960.699 211.1 962.573 212.974C964.493 214.847 965.11 217.726 964.424 221.611L959.419 249.922H947.35L951.67 225.313C951.853 224.307 951.921 223.416 951.876 222.639C951.876 221.862 951.67 221.222 951.258 220.72C950.847 220.217 950.207 219.851 949.339 219.623C948.47 219.349 947.327 219.212 945.91 219.212H941.59L936.173 249.922H924.104L929.521 219.212H925.407C923.944 219.212 922.733 219.349 921.773 219.623C920.859 219.851 920.104 220.217 919.51 220.72C918.916 221.222 918.459 221.862 918.139 222.639C917.864 223.416 917.636 224.307 917.453 225.313ZM1001.62 234.773L1005.94 210.163H1018.01L1013 238.474C1012.36 242.359 1010.76 245.238 1008.2 247.112C1005.64 248.985 1001.87 249.922 996.89 249.922H979.61C974.627 249.922 971.198 248.985 969.324 247.112C967.45 245.238 966.833 242.359 967.473 238.474L972.479 210.163H984.547L980.227 234.773C980.044 235.824 979.953 236.738 979.953 237.515C979.998 238.246 980.227 238.863 980.639 239.365C981.05 239.868 981.667 240.257 982.49 240.531C983.358 240.759 984.524 240.873 985.987 240.873H993.667C995.084 240.873 996.273 240.759 997.233 240.531C998.193 240.257 998.97 239.868 999.564 239.365C1000.16 238.863 1000.59 238.246 1000.87 237.515C1001.19 236.738 1001.44 235.824 1001.62 234.773ZM1033.5 225.313C1033.68 224.307 1033.91 223.416 1034.19 222.639C1034.51 221.862 1034.96 221.222 1035.56 220.72C1036.15 220.217 1036.91 219.851 1037.82 219.623C1038.78 219.349 1039.99 219.212 1041.46 219.212H1049.14C1050.55 219.212 1051.7 219.349 1052.56 219.623C1053.43 219.851 1054.07 220.217 1054.48 220.72C1054.9 221.222 1055.1 221.862 1055.1 222.639C1055.15 223.416 1055.08 224.307 1054.9 225.313L1050.58 249.922H1062.64L1067.65 221.611C1068.34 217.726 1067.72 214.847 1065.8 212.974C1063.92 211.1 1060.5 210.163 1055.51 210.163H1038.23C1033.25 210.163 1029.48 211.1 1026.92 212.974C1024.4 214.847 1022.8 217.726 1022.12 221.611L1017.11 249.922H1029.18L1033.5 225.313ZM1087.87 210.163L1080.88 249.922H1068.74L1075.74 210.163H1087.87ZM1107.39 240.873C1105.93 240.873 1104.76 240.759 1103.9 240.531C1103.07 240.257 1102.46 239.868 1102.04 239.365C1101.63 238.863 1101.4 238.246 1101.36 237.515C1101.36 236.738 1101.45 235.824 1101.63 234.773L1103.28 225.313C1103.46 224.307 1103.69 223.416 1103.96 222.639C1104.28 221.862 1104.74 221.222 1105.34 220.72C1105.93 220.217 1106.68 219.851 1107.6 219.623C1108.56 219.349 1109.77 219.212 1111.23 219.212H1137.84L1139.42 210.163H1108.01C1103.03 210.163 1099.26 211.1 1096.7 212.974C1094.18 214.847 1092.58 217.726 1091.9 221.611L1088.88 238.474C1088.24 242.359 1088.86 245.238 1090.73 247.112C1092.6 248.985 1096.03 249.922 1101.02 249.922H1132.42L1134 240.873H1107.39ZM1159.91 227.849H1174.11C1173.83 224.696 1173.35 222.479 1172.67 221.2C1171.98 219.874 1170.93 219.212 1169.51 219.212H1167.66C1166.84 219.212 1166.11 219.372 1165.47 219.692C1164.87 219.966 1164.28 220.446 1163.69 221.131C1163.14 221.771 1162.57 222.639 1161.97 223.736C1161.38 224.833 1160.69 226.204 1159.91 227.849ZM1188.65 249.922H1176.17L1174.93 236.898H1156.01L1150.25 249.922H1137.83L1150.11 221.542C1150.57 220.537 1151.23 219.372 1152.1 218.046C1153.01 216.721 1154.02 215.487 1155.11 214.345C1156.26 213.156 1157.47 212.174 1158.75 211.397C1160.03 210.574 1161.29 210.163 1162.52 210.163H1177.67C1178.95 210.163 1180.1 210.529 1181.1 211.26C1182.11 211.945 1182.95 212.837 1183.64 213.933C1184.37 215.03 1184.94 216.264 1185.35 217.635C1185.77 218.96 1186.04 220.263 1186.18 221.542L1188.65 249.922ZM1237.94 219.212H1221.35L1215.93 249.922H1203.86L1209.28 219.212H1192.69L1194.26 210.163H1239.52L1237.94 219.212ZM1257.7 210.163L1250.7 249.922H1238.56L1245.56 210.163H1257.7ZM1288.73 219.212C1290.15 219.212 1291.29 219.349 1292.16 219.623C1293.03 219.851 1293.67 220.217 1294.08 220.72C1294.49 221.222 1294.7 221.862 1294.7 222.639C1294.75 223.416 1294.68 224.307 1294.49 225.313L1292.85 234.773C1292.67 235.824 1292.41 236.738 1292.09 237.515C1291.82 238.246 1291.39 238.863 1290.79 239.365C1290.2 239.868 1289.42 240.257 1288.46 240.531C1287.5 240.759 1286.31 240.873 1284.89 240.873H1277.21C1275.75 240.873 1274.59 240.759 1273.72 240.531C1272.89 240.257 1272.28 239.868 1271.87 239.365C1271.45 238.863 1271.23 238.246 1271.18 237.515C1271.18 236.738 1271.27 235.824 1271.45 234.773L1273.1 225.313C1273.28 224.307 1273.51 223.416 1273.79 222.639C1274.11 221.862 1274.56 221.222 1275.16 220.72C1275.75 220.217 1276.51 219.851 1277.42 219.623C1278.38 219.349 1279.59 219.212 1281.05 219.212H1288.73ZM1307.25 221.611C1307.93 217.726 1307.32 214.847 1305.4 212.974C1303.52 211.1 1300.09 210.163 1295.11 210.163H1277.83C1272.85 210.163 1269.08 211.1 1266.52 212.974C1264 214.847 1262.4 217.726 1261.72 221.611L1258.7 238.474C1258.06 242.359 1258.68 245.238 1260.55 247.112C1262.43 248.985 1265.85 249.922 1270.84 249.922H1288.12C1293.1 249.922 1296.87 248.985 1299.43 247.112C1301.99 245.238 1303.59 242.359 1304.23 238.474L1307.25 221.611ZM1324.73 225.313C1324.91 224.307 1325.14 223.416 1325.42 222.639C1325.74 221.862 1326.19 221.222 1326.79 220.72C1327.38 220.217 1328.14 219.851 1329.05 219.623C1330.01 219.349 1331.22 219.212 1332.68 219.212H1340.36C1341.78 219.212 1342.92 219.349 1343.79 219.623C1344.66 219.851 1345.3 220.217 1345.71 220.72C1346.12 221.222 1346.33 221.862 1346.33 222.639C1346.38 223.416 1346.31 224.307 1346.12 225.313L1341.8 249.922H1353.87L1358.88 221.611C1359.56 217.726 1358.95 214.847 1357.03 212.974C1355.15 211.1 1351.72 210.163 1346.74 210.163H1329.46C1324.48 210.163 1320.71 211.1 1318.15 212.974C1315.63 214.847 1314.03 217.726 1313.35 221.611L1308.34 249.922H1320.41L1324.73 225.313ZM1407.42 242.587C1407.47 242.542 1407.56 242.176 1407.7 241.49C1408.11 239.16 1407.92 237.263 1407.15 235.801C1406.37 234.338 1405.48 233.356 1404.47 232.853L1381.98 221.268C1381.8 221.177 1381.62 221.04 1381.43 220.857C1381.3 220.674 1381.2 220.446 1381.16 220.171V220.103C1381.2 219.874 1381.36 219.669 1381.64 219.486C1381.96 219.303 1382.3 219.212 1382.67 219.212H1411.54L1413.11 210.163H1376.77C1374.16 210.163 1371.92 210.849 1370.05 212.22C1368.22 213.545 1366.78 215.304 1365.73 217.498C1365.68 217.544 1365.62 217.909 1365.52 218.595C1365.16 220.377 1365.23 222.091 1365.73 223.736C1366.23 225.335 1367.22 226.524 1368.68 227.301L1391.17 238.817C1391.31 238.908 1391.49 239.045 1391.72 239.228C1391.95 239.365 1392.02 239.617 1391.92 239.982C1391.79 240.576 1391.28 240.873 1390.42 240.873H1361.55L1359.97 249.922H1396.38C1398.99 249.922 1401.2 249.259 1403.03 247.934C1404.91 246.563 1406.37 244.781 1407.42 242.587Z" fill="#FF6262"/>
<path d="M488.002 316.598C489.442 316.598 490.71 316.941 491.807 317.627C492.927 318.289 493.796 319.249 494.413 320.506C495.03 321.762 495.339 323.225 495.339 324.893C495.339 326.79 494.996 328.458 494.31 329.897C493.647 331.337 492.71 332.456 491.499 333.256C490.287 334.033 488.893 334.421 487.316 334.421C485.922 334.421 484.699 334.113 483.647 333.496C482.596 332.879 481.83 332.011 481.35 330.891L481.076 334.181H478.984L481.007 308.955H483.064L482.207 319.717C482.779 318.735 483.579 317.969 484.607 317.421C485.659 316.873 486.79 316.598 488.002 316.598ZM487.316 332.605C489.144 332.605 490.584 331.919 491.636 330.548C492.687 329.154 493.213 327.246 493.213 324.824C493.213 322.791 492.722 321.214 491.739 320.094C490.756 318.952 489.396 318.381 487.659 318.381C485.807 318.381 484.344 319.078 483.27 320.471C482.219 321.865 481.693 323.785 481.693 326.23C481.693 328.309 482.173 329.897 483.133 330.994C484.093 332.068 485.487 332.605 487.316 332.605ZM508.019 316.598C508.613 316.598 509.104 316.644 509.493 316.735L509.287 318.586C508.853 318.495 508.339 318.449 507.744 318.449C505.984 318.449 504.636 319.009 503.699 320.129C502.761 321.248 502.247 322.574 502.156 324.105L501.333 334.181H499.242L500.236 321.774C500.327 320.266 500.373 319.123 500.373 318.346C500.373 317.752 500.362 317.307 500.339 317.01H502.293L502.327 319.82C502.876 318.815 503.664 318.027 504.693 317.455C505.722 316.884 506.83 316.598 508.019 316.598ZM511.229 334.181L512.6 317.01H514.692L513.32 334.181H511.229ZM512.772 309.915H515.549L515.343 312.588H512.566L512.772 309.915ZM528.116 316.598C530.036 316.598 531.499 317.09 532.504 318.072C533.533 319.032 534.047 320.471 534.047 322.391C534.047 322.802 534.036 323.111 534.013 323.316L533.156 334.181H531.099L531.956 323.453C531.979 323.271 531.99 322.996 531.99 322.631C531.99 321.191 531.647 320.129 530.962 319.443C530.276 318.758 529.236 318.415 527.842 318.415C526.082 318.415 524.676 318.929 523.624 319.957C522.596 320.986 522.013 322.414 521.876 324.242L521.087 334.181H518.996L519.99 321.774C520.082 320.837 520.127 319.775 520.127 318.586C520.127 317.878 520.116 317.352 520.093 317.01H522.047L522.082 319.992C522.653 318.895 523.464 318.061 524.516 317.49C525.567 316.895 526.767 316.598 528.116 316.598ZM554.863 317.01L553.492 334.25C553.08 339.3 550.509 341.825 545.777 341.825C543.24 341.825 541 341.196 539.057 339.94L539.64 338.123C540.714 338.831 541.709 339.323 542.623 339.597C543.537 339.871 544.6 340.008 545.812 340.008C549.263 340.008 551.149 338.112 551.469 334.319L551.812 330.411C551.263 331.439 550.452 332.239 549.377 332.81C548.326 333.382 547.172 333.667 545.914 333.667C543.629 333.667 541.812 332.948 540.463 331.508C539.114 330.068 538.44 328.138 538.44 325.716C538.44 323.91 538.772 322.322 539.434 320.951C540.097 319.557 541.034 318.484 542.246 317.729C543.48 316.975 544.897 316.598 546.497 316.598C547.937 316.598 549.183 316.907 550.234 317.524C551.286 318.141 552.063 319.009 552.566 320.129L552.806 317.01H554.863ZM546.223 331.816C548.074 331.816 549.537 331.165 550.612 329.863C551.686 328.56 552.223 326.767 552.223 324.482C552.223 322.539 551.72 321.043 550.714 319.992C549.732 318.918 548.36 318.381 546.6 318.381C544.726 318.381 543.251 319.043 542.177 320.369C541.126 321.671 540.6 323.476 540.6 325.784C540.6 327.749 541.08 329.246 542.04 330.274C543 331.302 544.394 331.816 546.223 331.816ZM559.243 334.181L560.614 317.01H562.706L561.334 334.181H559.243ZM560.786 309.915H563.563L563.357 312.588H560.58L560.786 309.915ZM576.13 316.598C578.05 316.598 579.513 317.09 580.519 318.072C581.547 319.032 582.062 320.471 582.062 322.391C582.062 322.802 582.05 323.111 582.027 323.316L581.17 334.181H579.113L579.97 323.453C579.993 323.271 580.004 322.996 580.004 322.631C580.004 321.191 579.661 320.129 578.976 319.443C578.29 318.758 577.25 318.415 575.856 318.415C574.096 318.415 572.69 318.929 571.639 319.957C570.61 320.986 570.027 322.414 569.89 324.242L569.102 334.181H567.01L568.004 321.774C568.096 320.837 568.142 319.775 568.142 318.586C568.142 317.878 568.13 317.352 568.107 317.01H570.062L570.096 319.992C570.667 318.895 571.479 318.061 572.53 317.49C573.582 316.895 574.781 316.598 576.13 316.598ZM602.877 317.01L601.506 334.25C601.094 339.3 598.523 341.825 593.791 341.825C591.254 341.825 589.014 341.196 587.072 339.94L587.654 338.123C588.729 338.831 589.723 339.323 590.637 339.597C591.552 339.871 592.614 340.008 593.826 340.008C597.277 340.008 599.163 338.112 599.483 334.319L599.826 330.411C599.277 331.439 598.466 332.239 597.392 332.81C596.34 333.382 595.186 333.667 593.929 333.667C591.643 333.667 589.826 332.948 588.477 331.508C587.129 330.068 586.454 328.138 586.454 325.716C586.454 323.91 586.786 322.322 587.449 320.951C588.111 319.557 589.049 318.484 590.26 317.729C591.494 316.975 592.911 316.598 594.511 316.598C595.951 316.598 597.197 316.907 598.249 317.524C599.3 318.141 600.077 319.009 600.58 320.129L600.82 317.01H602.877ZM594.237 331.816C596.089 331.816 597.551 331.165 598.626 329.863C599.7 328.56 600.237 326.767 600.237 324.482C600.237 322.539 599.734 321.043 598.729 319.992C597.746 318.918 596.374 318.381 594.614 318.381C592.74 318.381 591.266 319.043 590.192 320.369C589.14 321.671 588.614 323.476 588.614 325.784C588.614 327.749 589.094 329.246 590.054 330.274C591.014 331.302 592.409 331.816 594.237 331.816ZM619.286 328.903C619.263 329.063 619.252 329.292 619.252 329.589C619.252 330.708 619.492 331.485 619.972 331.919C620.474 332.353 621.183 332.571 622.097 332.571C622.783 332.571 623.4 332.468 623.949 332.262L623.812 334.113C623.126 334.296 622.394 334.387 621.617 334.387C620.223 334.387 619.126 334.022 618.326 333.29C617.549 332.559 617.16 331.462 617.16 330C617.16 329.726 617.172 329.509 617.194 329.349L618.017 318.689H614.623L614.76 317.01H618.154L618.497 312.451L620.623 311.663L620.212 317.01H625.286L625.149 318.689H620.074L619.286 328.903ZM629.294 325.339C629.272 325.521 629.26 325.818 629.26 326.23C629.26 328.218 629.752 329.783 630.734 330.925C631.74 332.045 633.18 332.605 635.054 332.605C636.106 332.605 637.134 332.433 638.14 332.091C639.146 331.748 640.06 331.234 640.883 330.548L641.569 332.125C640.883 332.81 639.923 333.37 638.689 333.804C637.477 334.216 636.254 334.421 635.02 334.421C632.574 334.421 630.643 333.679 629.226 332.194C627.809 330.685 627.1 328.675 627.1 326.161C627.1 324.265 627.443 322.597 628.129 321.157C628.814 319.717 629.786 318.598 631.043 317.798C632.323 316.998 633.809 316.598 635.5 316.598C637.649 316.598 639.34 317.215 640.574 318.449C641.832 319.683 642.46 321.454 642.46 323.762C642.46 324.265 642.426 324.79 642.357 325.339H629.294ZM635.637 318.278C633.969 318.278 632.609 318.758 631.557 319.717C630.506 320.654 629.809 321.991 629.466 323.728H640.54C640.586 321.991 640.163 320.654 639.271 319.717C638.38 318.758 637.169 318.278 635.637 318.278ZM653.361 334.421C651.83 334.421 650.482 334.079 649.316 333.393C648.173 332.708 647.281 331.748 646.641 330.514C646.024 329.257 645.716 327.806 645.716 326.161C645.716 324.242 646.059 322.562 646.744 321.123C647.43 319.683 648.413 318.575 649.693 317.798C650.973 316.998 652.482 316.598 654.219 316.598C655.43 316.598 656.562 316.793 657.613 317.181C658.687 317.57 659.59 318.129 660.322 318.861L659.396 320.471C658.482 319.74 657.613 319.215 656.79 318.895C655.967 318.552 655.076 318.381 654.116 318.381C652.15 318.381 650.619 319.078 649.522 320.471C648.424 321.865 647.876 323.785 647.876 326.23C647.876 328.218 648.367 329.783 649.35 330.925C650.333 332.045 651.739 332.605 653.567 332.605C654.482 332.605 655.327 332.445 656.104 332.125C656.882 331.805 657.716 331.28 658.607 330.548L659.293 332.125C658.562 332.833 657.67 333.393 656.619 333.804C655.59 334.216 654.504 334.421 653.361 334.421ZM672.056 316.598C673.976 316.598 675.439 317.09 676.444 318.072C677.473 319.032 677.987 320.471 677.987 322.391C677.987 322.802 677.976 323.111 677.953 323.316L677.096 334.181H675.039L675.896 323.453C675.919 323.271 675.93 322.996 675.93 322.631C675.93 321.191 675.587 320.129 674.902 319.443C674.216 318.758 673.176 318.415 671.782 318.415C670.022 318.415 668.616 318.929 667.564 319.957C666.536 320.986 665.953 322.414 665.816 324.242L665.027 334.181H662.936L664.924 308.955H667.016L666.159 319.752C666.73 318.723 667.53 317.947 668.559 317.421C669.587 316.873 670.753 316.598 672.056 316.598ZM691.877 316.598C693.797 316.598 695.26 317.09 696.266 318.072C697.294 319.032 697.809 320.471 697.809 322.391C697.809 322.802 697.797 323.111 697.774 323.316L696.917 334.181H694.86L695.717 323.453C695.74 323.271 695.752 322.996 695.752 322.631C695.752 321.191 695.409 320.129 694.723 319.443C694.037 318.758 692.997 318.415 691.603 318.415C689.843 318.415 688.437 318.929 687.386 319.957C686.357 320.986 685.774 322.414 685.637 324.242L684.849 334.181H682.757L683.752 321.774C683.843 320.837 683.889 319.775 683.889 318.586C683.889 317.878 683.877 317.352 683.854 317.01H685.809L685.843 319.992C686.414 318.895 687.226 318.061 688.277 317.49C689.329 316.895 690.529 316.598 691.877 316.598ZM709.813 334.421C708.281 334.421 706.933 334.079 705.767 333.393C704.624 332.708 703.733 331.748 703.093 330.514C702.476 329.257 702.167 327.795 702.167 326.127C702.167 324.23 702.499 322.562 703.162 321.123C703.847 319.683 704.807 318.575 706.042 317.798C707.276 316.998 708.693 316.598 710.293 316.598C711.824 316.598 713.161 316.941 714.304 317.627C715.47 318.312 716.362 319.283 716.979 320.54C717.619 321.774 717.939 323.225 717.939 324.893C717.939 326.79 717.596 328.458 716.91 329.897C716.247 331.337 715.299 332.456 714.064 333.256C712.83 334.033 711.413 334.421 709.813 334.421ZM709.95 332.605C711.779 332.605 713.207 331.908 714.236 330.514C715.287 329.12 715.813 327.212 715.813 324.79C715.813 322.779 715.321 321.214 714.339 320.094C713.356 318.952 712.007 318.381 710.293 318.381C708.441 318.381 706.979 319.089 705.904 320.506C704.853 321.9 704.327 323.808 704.327 326.23C704.327 328.309 704.807 329.897 705.767 330.994C706.727 332.068 708.121 332.605 709.95 332.605ZM721.832 334.181L723.854 308.955H725.946L723.923 334.181H721.832ZM736.866 334.421C735.334 334.421 733.986 334.079 732.82 333.393C731.677 332.708 730.786 331.748 730.146 330.514C729.529 329.257 729.22 327.795 729.22 326.127C729.22 324.23 729.551 322.562 730.214 321.123C730.9 319.683 731.86 318.575 733.094 317.798C734.329 316.998 735.746 316.598 737.346 316.598C738.877 316.598 740.214 316.941 741.357 317.627C742.523 318.312 743.414 319.283 744.032 320.54C744.672 321.774 744.992 323.225 744.992 324.893C744.992 326.79 744.649 328.458 743.963 329.897C743.3 331.337 742.351 332.456 741.117 333.256C739.883 334.033 738.466 334.421 736.866 334.421ZM737.003 332.605C738.831 332.605 740.26 331.908 741.289 330.514C742.34 329.12 742.866 327.212 742.866 324.79C742.866 322.779 742.374 321.214 741.392 320.094C740.409 318.952 739.06 318.381 737.346 318.381C735.494 318.381 734.032 319.089 732.957 320.506C731.906 321.9 731.38 323.808 731.38 326.23C731.38 328.309 731.86 329.897 732.82 330.994C733.78 332.068 735.174 332.605 737.003 332.605ZM764.93 317.01L763.559 334.25C763.147 339.3 760.576 341.825 755.844 341.825C753.307 341.825 751.067 341.196 749.124 339.94L749.707 338.123C750.781 338.831 751.776 339.323 752.69 339.597C753.604 339.871 754.667 340.008 755.879 340.008C759.33 340.008 761.216 338.112 761.536 334.319L761.879 330.411C761.33 331.439 760.519 332.239 759.444 332.81C758.393 333.382 757.239 333.667 755.982 333.667C753.696 333.667 751.879 332.948 750.53 331.508C749.181 330.068 748.507 328.138 748.507 325.716C748.507 323.91 748.839 322.322 749.501 320.951C750.164 319.557 751.102 318.484 752.313 317.729C753.547 316.975 754.964 316.598 756.564 316.598C758.004 316.598 759.25 316.907 760.301 317.524C761.353 318.141 762.13 319.009 762.633 320.129L762.873 317.01H764.93ZM756.29 331.816C758.142 331.816 759.604 331.165 760.679 329.863C761.753 328.56 762.29 326.767 762.29 324.482C762.29 322.539 761.787 321.043 760.781 319.992C759.799 318.918 758.427 318.381 756.667 318.381C754.793 318.381 753.319 319.043 752.244 320.369C751.193 321.671 750.667 323.476 750.667 325.784C750.667 327.749 751.147 329.246 752.107 330.274C753.067 331.302 754.462 331.816 756.29 331.816ZM785.183 317.01L775.549 335.964C774.589 337.86 773.48 339.243 772.223 340.111C770.989 340.979 769.469 341.596 767.663 341.962L767.354 340.282C769 339.894 770.257 339.391 771.126 338.774C772.017 338.157 772.806 337.198 773.491 335.895L774.383 334.25L768.383 317.01H770.509L775.583 332.125L783.023 317.01H785.183ZM811.97 329.486C813.159 330.857 814.736 332.034 816.701 333.016L815.433 334.456C813.536 333.473 812.004 332.342 810.839 331.062C809.879 332.159 808.77 332.993 807.513 333.565C806.279 334.136 804.93 334.421 803.467 334.421C801.982 334.421 800.656 334.159 799.49 333.633C798.347 333.108 797.456 332.376 796.816 331.439C796.199 330.48 795.89 329.394 795.89 328.183C795.89 326.698 796.336 325.373 797.227 324.207C798.142 323.019 799.639 321.785 801.719 320.506C801.741 320.506 801.753 320.494 801.753 320.471C800.633 319.146 799.867 318.072 799.456 317.25C799.044 316.427 798.839 315.57 798.839 314.679C798.839 313.125 799.353 311.88 800.382 310.943C801.433 310.006 802.804 309.538 804.496 309.538C806.096 309.538 807.364 309.96 808.301 310.806C809.239 311.651 809.707 312.794 809.707 314.233C809.707 315.056 809.547 315.799 809.227 316.461C808.93 317.101 808.416 317.764 807.684 318.449C806.953 319.135 805.913 319.923 804.564 320.814L810.702 328.012C811.844 325.864 812.45 323.202 812.519 320.026H814.507C814.37 323.865 813.524 327.018 811.97 329.486ZM800.93 314.679C800.93 315.387 801.09 316.061 801.41 316.701C801.753 317.341 802.416 318.255 803.399 319.443C805.067 318.392 806.199 317.501 806.793 316.77C807.41 316.039 807.719 315.25 807.719 314.405C807.719 313.468 807.421 312.714 806.827 312.143C806.256 311.571 805.49 311.286 804.53 311.286C803.433 311.286 802.553 311.606 801.89 312.245C801.25 312.862 800.93 313.674 800.93 314.679ZM803.536 332.639C804.77 332.639 805.902 332.388 806.93 331.885C807.959 331.359 808.862 330.617 809.639 329.657L802.919 321.842C801.09 323.008 799.799 324.059 799.044 324.996C798.313 325.933 797.947 326.984 797.947 328.149C797.947 329.52 798.45 330.617 799.456 331.439C800.484 332.239 801.844 332.639 803.536 332.639ZM836.517 316.598C837.957 316.598 839.226 316.941 840.323 317.627C841.443 318.289 842.311 319.249 842.929 320.506C843.546 321.762 843.854 323.225 843.854 324.893C843.854 326.79 843.512 328.458 842.826 329.897C842.163 331.337 841.226 332.456 840.014 333.256C838.803 334.033 837.409 334.421 835.831 334.421C834.437 334.421 833.214 334.113 832.163 333.496C831.111 332.879 830.346 332.011 829.866 330.891L829.591 334.181H827.5L829.523 308.955H831.58L830.723 319.717C831.294 318.735 832.094 317.969 833.123 317.421C834.174 316.873 835.306 316.598 836.517 316.598ZM835.831 332.605C837.66 332.605 839.1 331.919 840.152 330.548C841.203 329.154 841.729 327.246 841.729 324.824C841.729 322.791 841.237 321.214 840.254 320.094C839.271 318.952 837.912 318.381 836.174 318.381C834.323 318.381 832.86 319.078 831.786 320.471C830.734 321.865 830.209 323.785 830.209 326.23C830.209 328.309 830.689 329.897 831.649 330.994C832.609 332.068 834.003 332.605 835.831 332.605ZM862.946 317.01L861.609 334.181H859.586L859.826 331.165C859.231 332.216 858.42 333.028 857.392 333.599C856.386 334.147 855.254 334.421 853.997 334.421C852.123 334.421 850.672 333.93 849.643 332.948C848.637 331.942 848.134 330.491 848.134 328.595C848.134 328.206 848.146 327.909 848.169 327.704L849.026 317.01H851.083L850.26 327.532C850.237 327.715 850.226 327.989 850.226 328.355C850.226 331.188 851.574 332.605 854.271 332.605C855.963 332.605 857.323 332.091 858.352 331.062C859.38 330.011 859.963 328.572 860.1 326.744L860.889 317.01H862.946ZM873.037 334.421C871.757 334.421 870.534 334.227 869.369 333.839C868.226 333.427 867.243 332.856 866.42 332.125L867.346 330.548C868.283 331.28 869.197 331.816 870.089 332.159C870.98 332.479 871.974 332.639 873.072 332.639C874.58 332.639 875.723 332.399 876.5 331.919C877.3 331.417 877.7 330.674 877.7 329.691C877.7 329.075 877.506 328.572 877.117 328.183C876.751 327.795 876.283 327.486 875.711 327.258C875.14 327.007 874.374 326.744 873.414 326.47C872.203 326.104 871.231 325.761 870.5 325.441C869.769 325.121 869.14 324.653 868.614 324.036C868.112 323.419 867.86 322.608 867.86 321.603C867.86 320.049 868.443 318.826 869.609 317.935C870.797 317.044 872.397 316.598 874.409 316.598C875.62 316.598 876.751 316.804 877.803 317.215C878.854 317.604 879.712 318.152 880.374 318.861L879.449 320.471C877.894 319.078 876.226 318.381 874.443 318.381C873.003 318.381 871.894 318.643 871.117 319.169C870.34 319.695 869.952 320.471 869.952 321.5C869.952 322.117 870.134 322.619 870.5 323.008C870.889 323.396 871.357 323.705 871.906 323.933C872.477 324.139 873.254 324.39 874.237 324.687C875.426 325.03 876.386 325.361 877.117 325.681C877.871 326.001 878.511 326.481 879.037 327.121C879.563 327.738 879.826 328.56 879.826 329.589C879.826 331.074 879.209 332.251 877.974 333.119C876.74 333.987 875.094 334.421 873.037 334.421ZM884.253 334.181L885.624 317.01H887.716L886.344 334.181H884.253ZM885.796 309.915H888.573L888.367 312.588H885.59L885.796 309.915ZM901.14 316.598C903.06 316.598 904.523 317.09 905.529 318.072C906.557 319.032 907.072 320.471 907.072 322.391C907.072 322.802 907.06 323.111 907.037 323.316L906.18 334.181H904.123L904.98 323.453C905.003 323.271 905.014 322.996 905.014 322.631C905.014 321.191 904.671 320.129 903.986 319.443C903.3 318.758 902.26 318.415 900.866 318.415C899.106 318.415 897.7 318.929 896.649 319.957C895.62 320.986 895.037 322.414 894.9 324.242L894.111 334.181H892.02L893.014 321.774C893.106 320.837 893.151 319.775 893.151 318.586C893.151 317.878 893.14 317.352 893.117 317.01H895.071L895.106 319.992C895.677 318.895 896.489 318.061 897.54 317.49C898.592 316.895 899.791 316.598 901.14 316.598ZM913.624 325.339C913.601 325.521 913.59 325.818 913.59 326.23C913.59 328.218 914.081 329.783 915.064 330.925C916.07 332.045 917.51 332.605 919.384 332.605C920.436 332.605 921.464 332.433 922.47 332.091C923.476 331.748 924.39 331.234 925.213 330.548L925.899 332.125C925.213 332.81 924.253 333.37 923.019 333.804C921.807 334.216 920.584 334.421 919.35 334.421C916.904 334.421 914.973 333.679 913.556 332.194C912.139 330.685 911.43 328.675 911.43 326.161C911.43 324.265 911.773 322.597 912.459 321.157C913.144 319.717 914.116 318.598 915.373 317.798C916.653 316.998 918.139 316.598 919.83 316.598C921.979 316.598 923.67 317.215 924.904 318.449C926.161 319.683 926.79 321.454 926.79 323.762C926.79 324.265 926.756 324.79 926.687 325.339H913.624ZM919.967 318.278C918.299 318.278 916.939 318.758 915.887 319.717C914.836 320.654 914.139 321.991 913.796 323.728H924.87C924.916 321.991 924.493 320.654 923.601 319.717C922.71 318.758 921.499 318.278 919.967 318.278ZM936.219 334.421C934.939 334.421 933.716 334.227 932.55 333.839C931.407 333.427 930.424 332.856 929.602 332.125L930.527 330.548C931.464 331.28 932.379 331.816 933.27 332.159C934.161 332.479 935.156 332.639 936.253 332.639C937.762 332.639 938.904 332.399 939.681 331.919C940.481 331.417 940.882 330.674 940.882 329.691C940.882 329.075 940.687 328.572 940.299 328.183C939.933 327.795 939.464 327.486 938.893 327.258C938.321 327.007 937.556 326.744 936.596 326.47C935.384 326.104 934.413 325.761 933.682 325.441C932.95 325.121 932.322 324.653 931.796 324.036C931.293 323.419 931.042 322.608 931.042 321.603C931.042 320.049 931.624 318.826 932.79 317.935C933.979 317.044 935.579 316.598 937.59 316.598C938.801 316.598 939.933 316.804 940.984 317.215C942.036 317.604 942.893 318.152 943.556 318.861L942.63 320.471C941.076 319.078 939.407 318.381 937.624 318.381C936.184 318.381 935.076 318.643 934.299 319.169C933.521 319.695 933.133 320.471 933.133 321.5C933.133 322.117 933.316 322.619 933.682 323.008C934.07 323.396 934.539 323.705 935.087 323.933C935.659 324.139 936.436 324.39 937.419 324.687C938.607 325.03 939.567 325.361 940.299 325.681C941.053 326.001 941.693 326.481 942.219 327.121C942.744 327.738 943.007 328.56 943.007 329.589C943.007 331.074 942.39 332.251 941.156 333.119C939.922 333.987 938.276 334.421 936.219 334.421ZM953.16 334.421C951.88 334.421 950.657 334.227 949.491 333.839C948.349 333.427 947.366 332.856 946.543 332.125L947.469 330.548C948.406 331.28 949.32 331.816 950.212 332.159C951.103 332.479 952.097 332.639 953.194 332.639C954.703 332.639 955.846 332.399 956.623 331.919C957.423 331.417 957.823 330.674 957.823 329.691C957.823 329.075 957.629 328.572 957.24 328.183C956.874 327.795 956.406 327.486 955.834 327.258C955.263 327.007 954.497 326.744 953.537 326.47C952.326 326.104 951.354 325.761 950.623 325.441C949.891 325.121 949.263 324.653 948.737 324.036C948.234 323.419 947.983 322.608 947.983 321.603C947.983 320.049 948.566 318.826 949.732 317.935C950.92 317.044 952.52 316.598 954.531 316.598C955.743 316.598 956.874 316.804 957.926 317.215C958.977 317.604 959.834 318.152 960.497 318.861L959.572 320.471C958.017 319.078 956.349 318.381 954.566 318.381C953.126 318.381 952.017 318.643 951.24 319.169C950.463 319.695 950.074 320.471 950.074 321.5C950.074 322.117 950.257 322.619 950.623 323.008C951.011 323.396 951.48 323.705 952.029 323.933C952.6 324.139 953.377 324.39 954.36 324.687C955.549 325.03 956.509 325.361 957.24 325.681C957.994 326.001 958.634 326.481 959.16 327.121C959.686 327.738 959.949 328.56 959.949 329.589C959.949 331.074 959.332 332.251 958.097 333.119C956.863 333.987 955.217 334.421 953.16 334.421ZM973.116 334.181L974.487 317.01H976.579L975.207 334.181H973.116ZM974.659 309.915H977.436L977.23 312.588H974.453L974.659 309.915ZM990.001 316.598C991.921 316.598 993.384 317.09 994.39 318.072C995.419 319.032 995.933 320.471 995.933 322.391C995.933 322.802 995.922 323.111 995.899 323.316L995.041 334.181H992.984L993.841 323.453C993.864 323.271 993.876 322.996 993.876 322.631C993.876 321.191 993.533 320.129 992.847 319.443C992.161 318.758 991.122 318.415 989.727 318.415C987.967 318.415 986.561 318.929 985.51 319.957C984.481 320.986 983.899 322.414 983.761 324.242L982.973 334.181H980.882L981.876 321.774C981.967 320.837 982.013 319.775 982.013 318.586C982.013 317.878 982.001 317.352 981.979 317.01H983.933L983.967 319.992C984.539 318.895 985.35 318.061 986.402 317.49C987.453 316.895 988.653 316.598 990.001 316.598ZM1009.82 316.598C1011.74 316.598 1013.21 317.09 1014.21 318.072C1015.24 319.032 1015.75 320.471 1015.75 322.391C1015.75 322.802 1015.74 323.111 1015.72 323.316L1014.86 334.181H1012.81L1013.66 323.453C1013.69 323.271 1013.7 322.996 1013.7 322.631C1013.7 321.191 1013.35 320.129 1012.67 319.443C1011.98 318.758 1010.94 318.415 1009.55 318.415C1007.79 318.415 1006.38 318.929 1005.33 319.957C1004.3 320.986 1003.72 322.414 1003.58 324.242L1002.79 334.181H1000.7L1001.7 321.774C1001.79 320.837 1001.83 319.775 1001.83 318.586C1001.83 317.878 1001.82 317.352 1001.8 317.01H1003.75L1003.79 319.992C1004.36 318.895 1005.17 318.061 1006.22 317.49C1007.27 316.895 1008.47 316.598 1009.82 316.598ZM1027.76 334.421C1026.23 334.421 1024.88 334.079 1023.71 333.393C1022.57 332.708 1021.68 331.748 1021.04 330.514C1020.42 329.257 1020.11 327.795 1020.11 326.127C1020.11 324.23 1020.44 322.562 1021.11 321.123C1021.79 319.683 1022.75 318.575 1023.99 317.798C1025.22 316.998 1026.64 316.598 1028.24 316.598C1029.77 316.598 1031.11 316.941 1032.25 317.627C1033.42 318.312 1034.31 319.283 1034.92 320.54C1035.56 321.774 1035.88 323.225 1035.88 324.893C1035.88 326.79 1035.54 328.458 1034.86 329.897C1034.19 331.337 1033.24 332.456 1032.01 333.256C1030.78 334.033 1029.36 334.421 1027.76 334.421ZM1027.9 332.605C1029.72 332.605 1031.15 331.908 1032.18 330.514C1033.23 329.12 1033.76 327.212 1033.76 324.79C1033.76 322.779 1033.27 321.214 1032.28 320.094C1031.3 318.952 1029.95 318.381 1028.24 318.381C1026.39 318.381 1024.92 319.089 1023.85 320.506C1022.8 321.9 1022.27 323.808 1022.27 326.23C1022.27 328.309 1022.75 329.897 1023.71 330.994C1024.67 332.068 1026.07 332.605 1027.9 332.605ZM1053.36 317.01H1055.52L1046.84 334.181H1044.68L1038.72 317.01H1040.84L1045.92 332.125L1053.36 317.01ZM1073.4 317.01L1072.03 334.181H1070L1070.24 331.2C1069.7 332.205 1068.88 332.993 1067.81 333.565C1066.76 334.136 1065.62 334.421 1064.38 334.421C1062.92 334.421 1061.64 334.079 1060.54 333.393C1059.44 332.708 1058.59 331.737 1057.97 330.48C1057.38 329.223 1057.08 327.761 1057.08 326.093C1057.08 324.196 1057.41 322.539 1058.07 321.123C1058.74 319.683 1059.67 318.575 1060.88 317.798C1062.12 316.998 1063.52 316.598 1065.1 316.598C1066.52 316.598 1067.74 316.907 1068.77 317.524C1069.82 318.141 1070.6 319.009 1071.1 320.129L1071.34 317.01H1073.4ZM1064.79 332.605C1066.62 332.605 1068.06 331.908 1069.11 330.514C1070.19 329.12 1070.72 327.212 1070.72 324.79C1070.72 322.711 1070.24 321.123 1069.28 320.026C1068.32 318.929 1066.95 318.381 1065.17 318.381C1063.3 318.381 1061.83 319.078 1060.78 320.471C1059.75 321.842 1059.24 323.75 1059.24 326.195C1059.24 328.229 1059.72 329.806 1060.68 330.925C1061.64 332.045 1063.01 332.605 1064.79 332.605ZM1081.04 328.903C1081.02 329.063 1081 329.292 1081 329.589C1081 330.708 1081.24 331.485 1081.72 331.919C1082.23 332.353 1082.94 332.571 1083.85 332.571C1084.54 332.571 1085.15 332.468 1085.7 332.262L1085.56 334.113C1084.88 334.296 1084.15 334.387 1083.37 334.387C1081.98 334.387 1080.88 334.022 1080.08 333.29C1079.3 332.559 1078.91 331.462 1078.91 330C1078.91 329.726 1078.92 329.509 1078.95 329.349L1079.77 318.689H1076.38L1076.51 317.01H1079.91L1080.25 312.451L1082.38 311.663L1081.96 317.01H1087.04L1086.9 318.689H1081.83L1081.04 328.903ZM1089.3 334.181L1090.67 317.01H1092.76L1091.39 334.181H1089.3ZM1090.84 309.915H1093.62L1093.41 312.588H1090.64L1090.84 309.915ZM1104.3 334.421C1102.77 334.421 1101.42 334.079 1100.25 333.393C1099.11 332.708 1098.22 331.748 1097.58 330.514C1096.96 329.257 1096.65 327.795 1096.65 326.127C1096.65 324.23 1096.99 322.562 1097.65 321.123C1098.33 319.683 1099.29 318.575 1100.53 317.798C1101.76 316.998 1103.18 316.598 1104.78 316.598C1106.31 316.598 1107.65 316.941 1108.79 317.627C1109.96 318.312 1110.85 319.283 1111.47 320.54C1112.11 321.774 1112.43 323.225 1112.43 324.893C1112.43 326.79 1112.08 328.458 1111.4 329.897C1110.73 331.337 1109.79 332.456 1108.55 333.256C1107.32 334.033 1105.9 334.421 1104.3 334.421ZM1104.44 332.605C1106.27 332.605 1107.69 331.908 1108.72 330.514C1109.77 329.12 1110.3 327.212 1110.3 324.79C1110.3 322.779 1109.81 321.214 1108.83 320.094C1107.84 318.952 1106.49 318.381 1104.78 318.381C1102.93 318.381 1101.47 319.089 1100.39 320.506C1099.34 321.9 1098.81 323.808 1098.81 326.23C1098.81 328.309 1099.29 329.897 1100.25 330.994C1101.21 332.068 1102.61 332.605 1104.44 332.605ZM1125.44 316.598C1127.36 316.598 1128.82 317.09 1129.83 318.072C1130.85 319.032 1131.37 320.471 1131.37 322.391C1131.37 322.802 1131.36 323.111 1131.33 323.316L1130.48 334.181H1128.42L1129.28 323.453C1129.3 323.271 1129.31 322.996 1129.31 322.631C1129.31 321.191 1128.97 320.129 1128.28 319.443C1127.6 318.758 1126.56 318.415 1125.16 318.415C1123.4 318.415 1122 318.929 1120.95 319.957C1119.92 320.986 1119.33 322.414 1119.2 324.242L1118.41 334.181H1116.32L1117.31 321.774C1117.4 320.837 1117.45 319.775 1117.45 318.586C1117.45 317.878 1117.44 317.352 1117.41 317.01H1119.37L1119.4 319.992C1119.97 318.895 1120.79 318.061 1121.84 317.49C1122.89 316.895 1124.09 316.598 1125.44 316.598ZM1148.2 328.903C1148.18 329.063 1148.17 329.292 1148.17 329.589C1148.17 330.708 1148.41 331.485 1148.89 331.919C1149.39 332.353 1150.1 332.571 1151.01 332.571C1151.7 332.571 1152.32 332.468 1152.87 332.262L1152.73 334.113C1152.04 334.296 1151.31 334.387 1150.53 334.387C1149.14 334.387 1148.04 334.022 1147.24 333.29C1146.47 332.559 1146.08 331.462 1146.08 330C1146.08 329.726 1146.09 329.509 1146.11 329.349L1146.93 318.689H1143.54L1143.68 317.01H1147.07L1147.41 312.451L1149.54 311.663L1149.13 317.01H1154.2L1154.07 318.689H1148.99L1148.2 328.903ZM1163.66 334.421C1162.13 334.421 1160.78 334.079 1159.62 333.393C1158.47 332.708 1157.58 331.748 1156.94 330.514C1156.33 329.257 1156.02 327.795 1156.02 326.127C1156.02 324.23 1156.35 322.562 1157.01 321.123C1157.7 319.683 1158.66 318.575 1159.89 317.798C1161.13 316.998 1162.54 316.598 1164.14 316.598C1165.67 316.598 1167.01 316.941 1168.15 317.627C1169.32 318.312 1170.21 319.283 1170.83 320.54C1171.47 321.774 1171.79 323.225 1171.79 324.893C1171.79 326.79 1171.45 328.458 1170.76 329.897C1170.1 331.337 1169.15 332.456 1167.91 333.256C1166.68 334.033 1165.26 334.421 1163.66 334.421ZM1163.8 332.605C1165.63 332.605 1167.06 331.908 1168.09 330.514C1169.14 329.12 1169.66 327.212 1169.66 324.79C1169.66 322.779 1169.17 321.214 1168.19 320.094C1167.21 318.952 1165.86 318.381 1164.14 318.381C1162.29 318.381 1160.83 319.089 1159.75 320.506C1158.7 321.9 1158.18 323.808 1158.18 326.23C1158.18 328.309 1158.66 329.897 1159.62 330.994C1160.58 332.068 1161.97 332.605 1163.8 332.605ZM1191.73 317.01L1190.36 334.25C1189.94 339.3 1187.37 341.825 1182.64 341.825C1180.1 341.825 1177.86 341.196 1175.92 339.94L1176.5 338.123C1177.58 338.831 1178.57 339.323 1179.49 339.597C1180.4 339.871 1181.46 340.008 1182.68 340.008C1186.13 340.008 1188.01 338.112 1188.33 334.319L1188.68 330.411C1188.13 331.439 1187.32 332.239 1186.24 332.81C1185.19 333.382 1184.04 333.667 1182.78 333.667C1180.49 333.667 1178.68 332.948 1177.33 331.508C1175.98 330.068 1175.3 328.138 1175.3 325.716C1175.3 323.91 1175.64 322.322 1176.3 320.951C1176.96 319.557 1177.9 318.484 1179.11 317.729C1180.34 316.975 1181.76 316.598 1183.36 316.598C1184.8 316.598 1186.05 316.907 1187.1 317.524C1188.15 318.141 1188.93 319.009 1189.43 320.129L1189.67 317.01H1191.73ZM1183.09 331.816C1184.94 331.816 1186.4 331.165 1187.48 329.863C1188.55 328.56 1189.09 326.767 1189.09 324.482C1189.09 322.539 1188.58 321.043 1187.58 319.992C1186.6 318.918 1185.22 318.381 1183.46 318.381C1181.59 318.381 1180.12 319.043 1179.04 320.369C1177.99 321.671 1177.46 323.476 1177.46 325.784C1177.46 327.749 1177.94 329.246 1178.9 330.274C1179.86 331.302 1181.26 331.816 1183.09 331.816ZM1197.85 325.339C1197.83 325.521 1197.82 325.818 1197.82 326.23C1197.82 328.218 1198.31 329.783 1199.29 330.925C1200.3 332.045 1201.74 332.605 1203.61 332.605C1204.67 332.605 1205.69 332.433 1206.7 332.091C1207.71 331.748 1208.62 331.234 1209.44 330.548L1210.13 332.125C1209.44 332.81 1208.48 333.37 1207.25 333.804C1206.04 334.216 1204.81 334.421 1203.58 334.421C1201.13 334.421 1199.2 333.679 1197.79 332.194C1196.37 330.685 1195.66 328.675 1195.66 326.161C1195.66 324.265 1196 322.597 1196.69 321.157C1197.37 319.717 1198.35 318.598 1199.6 317.798C1200.88 316.998 1202.37 316.598 1204.06 316.598C1206.21 316.598 1207.9 317.215 1209.13 318.449C1210.39 319.683 1211.02 321.454 1211.02 323.762C1211.02 324.265 1210.99 324.79 1210.92 325.339H1197.85ZM1204.2 318.278C1202.53 318.278 1201.17 318.758 1200.12 319.717C1199.07 320.654 1198.37 321.991 1198.03 323.728H1209.1C1209.15 321.991 1208.72 320.654 1207.83 319.717C1206.94 318.758 1205.73 318.278 1204.2 318.278ZM1217.98 328.903C1217.96 329.063 1217.95 329.292 1217.95 329.589C1217.95 330.708 1218.19 331.485 1218.67 331.919C1219.17 332.353 1219.88 332.571 1220.79 332.571C1221.48 332.571 1222.09 332.468 1222.64 332.262L1222.51 334.113C1221.82 334.296 1221.09 334.387 1220.31 334.387C1218.92 334.387 1217.82 334.022 1217.02 333.29C1216.24 332.559 1215.85 331.462 1215.85 330C1215.85 329.726 1215.87 329.509 1215.89 329.349L1216.71 318.689H1213.32L1213.45 317.01H1216.85L1217.19 312.451L1219.32 311.663L1218.91 317.01H1223.98L1223.84 318.689H1218.77L1217.98 328.903ZM1235.33 316.598C1237.25 316.598 1238.71 317.09 1239.71 318.072C1240.74 319.032 1241.26 320.471 1241.26 322.391C1241.26 322.802 1241.25 323.111 1241.22 323.316L1240.37 334.181H1238.31L1239.17 323.453C1239.19 323.271 1239.2 322.996 1239.2 322.631C1239.2 321.191 1238.86 320.129 1238.17 319.443C1237.49 318.758 1236.45 318.415 1235.05 318.415C1233.29 318.415 1231.89 318.929 1230.83 319.957C1229.81 320.986 1229.22 322.414 1229.09 324.242L1228.3 334.181H1226.21L1228.19 308.955H1230.29L1229.43 319.752C1230 318.723 1230.8 317.947 1231.83 317.421C1232.86 316.873 1234.02 316.598 1235.33 316.598ZM1247.81 325.339C1247.79 325.521 1247.78 325.818 1247.78 326.23C1247.78 328.218 1248.27 329.783 1249.25 330.925C1250.26 332.045 1251.7 332.605 1253.57 332.605C1254.62 332.605 1255.65 332.433 1256.66 332.091C1257.66 331.748 1258.58 331.234 1259.4 330.548L1260.08 332.125C1259.4 332.81 1258.44 333.37 1257.2 333.804C1255.99 334.216 1254.77 334.421 1253.54 334.421C1251.09 334.421 1249.16 333.679 1247.74 332.194C1246.32 330.685 1245.62 328.675 1245.62 326.161C1245.62 324.265 1245.96 322.597 1246.64 321.157C1247.33 319.717 1248.3 318.598 1249.56 317.798C1250.84 316.998 1252.32 316.598 1254.02 316.598C1256.16 316.598 1257.86 317.215 1259.09 318.449C1260.35 319.683 1260.98 321.454 1260.98 323.762C1260.98 324.265 1260.94 324.79 1260.87 325.339H1247.81ZM1254.15 318.278C1252.48 318.278 1251.12 318.758 1250.07 319.717C1249.02 320.654 1248.32 321.991 1247.98 323.728H1259.06C1259.1 321.991 1258.68 320.654 1257.79 319.717C1256.9 318.758 1255.68 318.278 1254.15 318.278ZM1273.42 316.598C1274.01 316.598 1274.51 316.644 1274.89 316.735L1274.69 318.586C1274.25 318.495 1273.74 318.449 1273.15 318.449C1271.39 318.449 1270.04 319.009 1269.1 320.129C1268.16 321.248 1267.65 322.574 1267.56 324.105L1266.73 334.181H1264.64L1265.64 321.774C1265.73 320.266 1265.77 319.123 1265.77 318.346C1265.77 317.752 1265.76 317.307 1265.74 317.01H1267.69L1267.73 319.82C1268.28 318.815 1269.07 318.027 1270.09 317.455C1271.12 316.884 1272.23 316.598 1273.42 316.598ZM626.284 370.319C626.261 370.479 626.25 370.707 626.25 371.004C626.25 372.124 626.49 372.901 626.97 373.335C627.473 373.769 628.182 373.986 629.096 373.986C629.782 373.986 630.399 373.883 630.947 373.678L630.81 375.529C630.124 375.711 629.393 375.803 628.616 375.803C627.222 375.803 626.124 375.437 625.324 374.706C624.547 373.975 624.159 372.878 624.159 371.416C624.159 371.141 624.17 370.924 624.193 370.764L625.016 360.105H621.622L621.759 358.425H625.153L625.496 353.867L627.621 353.078L627.21 358.425H632.284L632.147 360.105H627.073L626.284 370.319ZM641.744 375.837C640.213 375.837 638.864 375.494 637.699 374.809C636.556 374.123 635.664 373.164 635.024 371.93C634.407 370.673 634.099 369.21 634.099 367.542C634.099 365.646 634.43 363.978 635.093 362.538C635.779 361.099 636.739 359.991 637.973 359.214C639.207 358.414 640.624 358.014 642.224 358.014C643.756 358.014 645.093 358.357 646.236 359.042C647.401 359.728 648.293 360.699 648.91 361.956C649.55 363.19 649.87 364.641 649.87 366.309C649.87 368.205 649.527 369.873 648.841 371.313C648.179 372.752 647.23 373.872 645.996 374.672C644.761 375.449 643.344 375.837 641.744 375.837ZM641.881 374.02C643.71 374.02 645.139 373.324 646.167 371.93C647.219 370.536 647.744 368.628 647.744 366.206C647.744 364.195 647.253 362.63 646.27 361.51C645.287 360.368 643.939 359.796 642.224 359.796C640.373 359.796 638.91 360.505 637.836 361.921C636.784 363.315 636.259 365.223 636.259 367.645C636.259 369.725 636.739 371.313 637.699 372.41C638.659 373.483 640.053 374.02 641.881 374.02ZM664.283 366.754C664.26 366.937 664.249 367.234 664.249 367.645C664.249 369.633 664.74 371.198 665.723 372.341C666.729 373.461 668.169 374.02 670.043 374.02C671.094 374.02 672.123 373.849 673.129 373.506C674.134 373.164 675.049 372.649 675.871 371.964L676.557 373.541C675.872 374.226 674.912 374.786 673.677 375.22C672.466 375.631 671.243 375.837 670.009 375.837C667.563 375.837 665.632 375.094 664.214 373.609C662.797 372.101 662.089 370.09 662.089 367.577C662.089 365.68 662.432 364.012 663.117 362.573C663.803 361.133 664.774 360.013 666.031 359.214C667.311 358.414 668.797 358.014 670.489 358.014C672.637 358.014 674.329 358.631 675.563 359.865C676.82 361.099 677.449 362.87 677.449 365.177C677.449 365.68 677.414 366.206 677.346 366.754H664.283ZM670.626 359.693C668.957 359.693 667.597 360.173 666.546 361.133C665.494 362.07 664.797 363.407 664.454 365.143H675.529C675.574 363.407 675.151 362.07 674.26 361.133C673.369 360.173 672.157 359.693 670.626 359.693ZM690.237 358.014C692.157 358.014 693.62 358.505 694.626 359.488C695.654 360.448 696.169 361.887 696.169 363.806C696.169 364.218 696.157 364.526 696.134 364.732L695.277 375.597H693.22L694.077 364.869C694.1 364.686 694.111 364.412 694.111 364.046C694.111 362.607 693.769 361.544 693.083 360.859C692.397 360.173 691.357 359.831 689.963 359.831C688.203 359.831 686.797 360.345 685.746 361.373C684.717 362.401 684.134 363.829 683.997 365.657L683.209 375.597H681.117L682.111 363.19C682.203 362.253 682.249 361.19 682.249 360.002C682.249 359.294 682.237 358.768 682.214 358.425H684.169L684.203 361.407C684.774 360.31 685.586 359.476 686.637 358.905C687.689 358.311 688.889 358.014 690.237 358.014ZM716.881 358.425L715.51 375.597H713.487L713.727 372.615C713.179 373.621 712.367 374.409 711.293 374.98C710.242 375.551 709.099 375.837 707.864 375.837C706.402 375.837 705.121 375.494 704.024 374.809C702.927 374.123 702.07 373.152 701.453 371.895C700.859 370.639 700.562 369.176 700.562 367.508C700.562 365.612 700.893 363.955 701.556 362.538C702.219 361.099 703.156 359.991 704.367 359.214C705.602 358.414 707.007 358.014 708.584 358.014C710.002 358.014 711.224 358.322 712.253 358.939C713.304 359.556 714.082 360.425 714.584 361.544L714.824 358.425H716.881ZM708.276 374.02C710.104 374.02 711.544 373.324 712.596 371.93C713.67 370.536 714.207 368.628 714.207 366.206C714.207 364.126 713.727 362.538 712.767 361.442C711.807 360.345 710.436 359.796 708.653 359.796C706.779 359.796 705.316 360.493 704.264 361.887C703.236 363.258 702.721 365.166 702.721 367.611C702.721 369.645 703.201 371.221 704.161 372.341C705.121 373.461 706.493 374.02 708.276 374.02ZM730.212 358.014C731.652 358.014 732.92 358.357 734.017 359.042C735.137 359.705 736.006 360.665 736.623 361.921C737.24 363.178 737.549 364.641 737.549 366.309C737.549 368.205 737.206 369.873 736.52 371.313C735.857 372.752 734.92 373.872 733.709 374.672C732.497 375.449 731.103 375.837 729.526 375.837C728.132 375.837 726.909 375.529 725.857 374.912C724.806 374.295 724.04 373.426 723.56 372.307L723.286 375.597H721.194L723.217 350.371H725.274L724.417 361.133C724.989 360.15 725.789 359.385 726.817 358.837C727.869 358.288 729 358.014 730.212 358.014ZM729.526 374.02C731.354 374.02 732.794 373.335 733.846 371.964C734.897 370.57 735.423 368.662 735.423 366.24C735.423 364.206 734.931 362.63 733.949 361.51C732.966 360.368 731.606 359.796 729.869 359.796C728.017 359.796 726.554 360.493 725.48 361.887C724.429 363.281 723.903 365.2 723.903 367.645C723.903 369.725 724.383 371.313 725.343 372.41C726.303 373.483 727.697 374.02 729.526 374.02ZM741.451 375.597L743.474 350.371H745.566L743.543 375.597H741.451ZM751.036 366.754C751.013 366.937 751.001 367.234 751.001 367.645C751.001 369.633 751.493 371.198 752.476 372.341C753.481 373.461 754.922 374.02 756.796 374.02C757.847 374.02 758.876 373.849 759.882 373.506C760.887 373.164 761.801 372.649 762.624 371.964L763.31 373.541C762.624 374.226 761.664 374.786 760.43 375.22C759.219 375.631 757.996 375.837 756.761 375.837C754.316 375.837 752.384 375.094 750.967 373.609C749.55 372.101 748.842 370.09 748.842 367.577C748.842 365.68 749.184 364.012 749.87 362.573C750.556 361.133 751.527 360.013 752.784 359.214C754.064 358.414 755.55 358.014 757.241 358.014C759.39 358.014 761.081 358.631 762.316 359.865C763.573 361.099 764.201 362.87 764.201 365.177C764.201 365.68 764.167 366.206 764.099 366.754H751.036ZM757.379 359.693C755.71 359.693 754.35 360.173 753.299 361.133C752.247 362.07 751.55 363.407 751.207 365.143H762.281C762.327 363.407 761.904 362.07 761.013 361.133C760.121 360.173 758.91 359.693 757.379 359.693ZM783.842 375.837C782.31 375.837 780.961 375.494 779.796 374.809C778.653 374.123 777.761 373.164 777.121 371.93C776.504 370.673 776.196 369.222 776.196 367.577C776.196 365.657 776.539 363.978 777.224 362.538C777.91 361.099 778.893 359.991 780.173 359.214C781.453 358.414 782.961 358.014 784.699 358.014C785.91 358.014 787.041 358.208 788.093 358.597C789.167 358.985 790.07 359.545 790.801 360.276L789.876 361.887C788.962 361.156 788.093 360.63 787.27 360.31C786.447 359.968 785.556 359.796 784.596 359.796C782.63 359.796 781.099 360.493 780.001 361.887C778.904 363.281 778.356 365.2 778.356 367.645C778.356 369.633 778.847 371.198 779.83 372.341C780.813 373.461 782.219 374.02 784.047 374.02C784.962 374.02 785.807 373.86 786.584 373.541C787.362 373.221 788.196 372.695 789.087 371.964L789.773 373.541C789.042 374.249 788.15 374.809 787.099 375.22C786.07 375.631 784.984 375.837 783.842 375.837ZM802.193 358.014C802.787 358.014 803.279 358.06 803.667 358.151L803.461 360.002C803.027 359.911 802.513 359.865 801.919 359.865C800.159 359.865 798.81 360.425 797.873 361.544C796.936 362.664 796.422 363.989 796.33 365.52L795.507 375.597H793.416L794.41 363.19C794.501 361.681 794.547 360.539 794.547 359.762C794.547 359.168 794.536 358.722 794.513 358.425H796.467L796.502 361.236C797.05 360.23 797.839 359.442 798.867 358.871C799.896 358.3 801.004 358.014 802.193 358.014ZM805.403 375.597L806.774 358.425H808.866L807.494 375.597H805.403ZM806.946 351.33H809.723L809.517 354.004H806.74L806.946 351.33ZM816.496 370.319C816.473 370.479 816.462 370.707 816.462 371.004C816.462 372.124 816.701 372.901 817.181 373.335C817.684 373.769 818.393 373.986 819.307 373.986C819.993 373.986 820.61 373.883 821.159 373.678L821.022 375.529C820.336 375.711 819.604 375.803 818.827 375.803C817.433 375.803 816.336 375.437 815.536 374.706C814.759 373.975 814.37 372.878 814.37 371.416C814.37 371.141 814.382 370.924 814.404 370.764L815.227 360.105H811.833L811.97 358.425H815.364L815.707 353.867L817.833 353.078L817.422 358.425H822.496L822.359 360.105H817.284L816.496 370.319ZM824.756 375.597L826.127 358.425H828.219L826.847 375.597H824.756ZM826.299 351.33H829.076L828.87 354.004H826.093L826.299 351.33ZM839.757 375.837C838.226 375.837 836.877 375.494 835.711 374.809C834.569 374.123 833.677 373.164 833.037 371.93C832.42 370.673 832.112 369.222 832.112 367.577C832.112 365.657 832.454 363.978 833.14 362.538C833.826 361.099 834.809 359.991 836.089 359.214C837.369 358.414 838.877 358.014 840.614 358.014C841.826 358.014 842.957 358.208 844.009 358.597C845.083 358.985 845.986 359.545 846.717 360.276L845.792 361.887C844.877 361.156 844.009 360.63 843.186 360.31C842.363 359.968 841.471 359.796 840.511 359.796C838.546 359.796 837.014 360.493 835.917 361.887C834.82 363.281 834.271 365.2 834.271 367.645C834.271 369.633 834.763 371.198 835.746 372.341C836.729 373.461 838.134 374.02 839.963 374.02C840.877 374.02 841.723 373.86 842.5 373.541C843.277 373.221 844.112 372.695 845.003 371.964L845.689 373.541C844.957 374.249 844.066 374.809 843.014 375.22C841.986 375.631 840.9 375.837 839.757 375.837ZM865.274 358.425L863.903 375.597H861.88L862.12 372.615C861.572 373.621 860.76 374.409 859.686 374.98C858.634 375.551 857.491 375.837 856.257 375.837C854.794 375.837 853.514 375.494 852.417 374.809C851.32 374.123 850.463 373.152 849.846 371.895C849.252 370.639 848.954 369.176 848.954 367.508C848.954 365.612 849.286 363.955 849.949 362.538C850.611 361.099 851.549 359.991 852.76 359.214C853.994 358.414 855.4 358.014 856.977 358.014C858.394 358.014 859.617 358.322 860.646 358.939C861.697 359.556 862.474 360.425 862.977 361.544L863.217 358.425H865.274ZM856.669 374.02C858.497 374.02 859.937 373.324 860.989 371.93C862.063 370.536 862.6 368.628 862.6 366.206C862.6 364.126 862.12 362.538 861.16 361.442C860.2 360.345 858.829 359.796 857.046 359.796C855.172 359.796 853.709 360.493 852.657 361.887C851.629 363.258 851.114 365.166 851.114 367.611C851.114 369.645 851.594 371.221 852.554 372.341C853.514 373.461 854.886 374.02 856.669 374.02ZM869.587 375.597L871.61 350.371H873.702L871.679 375.597H869.587ZM893.362 375.837C891.83 375.837 890.481 375.494 889.316 374.809C888.173 374.123 887.281 373.164 886.641 371.93C886.024 370.673 885.716 369.222 885.716 367.577C885.716 365.657 886.059 363.978 886.744 362.538C887.43 361.099 888.413 359.991 889.693 359.214C890.973 358.414 892.482 358.014 894.219 358.014C895.43 358.014 896.561 358.208 897.613 358.597C898.687 358.985 899.59 359.545 900.321 360.276L899.396 361.887C898.482 361.156 897.613 360.63 896.79 360.31C895.967 359.968 895.076 359.796 894.116 359.796C892.15 359.796 890.619 360.493 889.521 361.887C888.424 363.281 887.876 365.2 887.876 367.645C887.876 369.633 888.367 371.198 889.35 372.341C890.333 373.461 891.739 374.02 893.567 374.02C894.482 374.02 895.327 373.86 896.104 373.541C896.882 373.221 897.716 372.695 898.607 371.964L899.293 373.541C898.561 374.249 897.67 374.809 896.619 375.22C895.59 375.631 894.504 375.837 893.362 375.837ZM910.17 375.837C908.639 375.837 907.29 375.494 906.124 374.809C904.981 374.123 904.09 373.164 903.45 371.93C902.833 370.673 902.524 369.21 902.524 367.542C902.524 365.646 902.856 363.978 903.519 362.538C904.204 361.099 905.164 359.991 906.399 359.214C907.633 358.414 909.05 358.014 910.65 358.014C912.182 358.014 913.519 358.357 914.661 359.042C915.827 359.728 916.719 360.699 917.336 361.956C917.976 363.19 918.296 364.641 918.296 366.309C918.296 368.205 917.953 369.873 917.267 371.313C916.604 372.752 915.656 373.872 914.421 374.672C913.187 375.449 911.77 375.837 910.17 375.837ZM910.307 374.02C912.136 374.02 913.564 373.324 914.593 371.93C915.644 370.536 916.17 368.628 916.17 366.206C916.17 364.195 915.679 362.63 914.696 361.51C913.713 360.368 912.364 359.796 910.65 359.796C908.799 359.796 907.336 360.505 906.261 361.921C905.21 363.315 904.684 365.223 904.684 367.645C904.684 369.725 905.164 371.313 906.124 372.41C907.084 373.483 908.479 374.02 910.307 374.02ZM941.869 358.014C943.629 358.014 944.966 358.494 945.88 359.454C946.794 360.39 947.251 361.784 947.251 363.635C947.251 364.115 947.24 364.481 947.217 364.732L946.36 375.597H944.337L945.16 364.869C945.183 364.618 945.194 364.275 945.194 363.841C945.194 362.47 944.897 361.464 944.303 360.825C943.709 360.162 942.783 359.831 941.526 359.831C939.926 359.831 938.657 360.345 937.72 361.373C936.783 362.378 936.246 363.818 936.109 365.692L935.32 375.597H933.263L934.12 364.869C934.143 364.641 934.154 364.332 934.154 363.944C934.154 362.55 933.846 361.521 933.229 360.859C932.634 360.173 931.72 359.831 930.486 359.831C928.886 359.831 927.617 360.345 926.68 361.373C925.743 362.378 925.206 363.818 925.069 365.692L924.28 375.597H922.189L923.183 363.19C923.274 361.727 923.32 360.585 923.32 359.762C923.32 359.168 923.309 358.722 923.286 358.425H925.24L925.274 361.339C925.8 360.242 926.532 359.419 927.469 358.871C928.429 358.3 929.549 358.014 930.829 358.014C933.572 358.014 935.286 359.099 935.971 361.27C936.543 360.219 937.331 359.419 938.337 358.871C939.366 358.3 940.543 358.014 941.869 358.014ZM971.667 358.014C973.427 358.014 974.764 358.494 975.679 359.454C976.593 360.39 977.05 361.784 977.05 363.635C977.05 364.115 977.039 364.481 977.016 364.732L976.159 375.597H974.136L974.959 364.869C974.982 364.618 974.993 364.275 974.993 363.841C974.993 362.47 974.696 361.464 974.101 360.825C973.507 360.162 972.581 359.831 971.324 359.831C969.724 359.831 968.456 360.345 967.519 361.373C966.581 362.378 966.044 363.818 965.907 365.692L965.119 375.597H963.061L963.919 364.869C963.941 364.641 963.953 364.332 963.953 363.944C963.953 362.55 963.644 361.521 963.027 360.859C962.433 360.173 961.519 359.831 960.284 359.831C958.684 359.831 957.416 360.345 956.479 361.373C955.541 362.378 955.004 363.818 954.867 365.692L954.079 375.597H951.987L952.981 363.19C953.073 361.727 953.119 360.585 953.119 359.762C953.119 359.168 953.107 358.722 953.084 358.425H955.039L955.073 361.339C955.599 360.242 956.33 359.419 957.267 358.871C958.227 358.3 959.347 358.014 960.627 358.014C963.37 358.014 965.084 359.099 965.77 361.27C966.341 360.219 967.13 359.419 968.136 358.871C969.164 358.3 970.341 358.014 971.667 358.014ZM996.974 358.425L995.637 375.597H993.614L993.854 372.581C993.26 373.632 992.449 374.443 991.42 375.014C990.414 375.563 989.283 375.837 988.026 375.837C986.151 375.837 984.7 375.346 983.672 374.363C982.666 373.358 982.163 371.907 982.163 370.01C982.163 369.622 982.174 369.325 982.197 369.119L983.054 358.425H985.111L984.289 368.948C984.266 369.131 984.254 369.405 984.254 369.77C984.254 372.604 985.603 374.02 988.3 374.02C989.991 374.02 991.352 373.506 992.38 372.478C993.409 371.427 993.992 369.987 994.129 368.159L994.917 358.425H996.974ZM1010.43 358.014C1012.35 358.014 1013.81 358.505 1014.81 359.488C1015.84 360.448 1016.36 361.887 1016.36 363.806C1016.36 364.218 1016.35 364.526 1016.32 364.732L1015.47 375.597H1013.41L1014.27 364.869C1014.29 364.686 1014.3 364.412 1014.3 364.046C1014.3 362.607 1013.96 361.544 1013.27 360.859C1012.59 360.173 1011.55 359.831 1010.15 359.831C1008.39 359.831 1006.99 360.345 1005.93 361.373C1004.91 362.401 1004.32 363.829 1004.19 365.657L1003.4 375.597H1001.31L1002.3 363.19C1002.39 362.253 1002.44 361.19 1002.44 360.002C1002.44 359.294 1002.43 358.768 1002.4 358.425H1004.36L1004.39 361.407C1004.96 360.31 1005.77 359.476 1006.83 358.905C1007.88 358.311 1009.08 358.014 1010.43 358.014ZM1021.16 375.597L1022.53 358.425H1024.62L1023.25 375.597H1021.16ZM1022.7 351.33H1025.48L1025.28 354.004H1022.5L1022.7 351.33ZM1036.16 375.837C1034.63 375.837 1033.28 375.494 1032.12 374.809C1030.97 374.123 1030.08 373.164 1029.44 371.93C1028.83 370.673 1028.52 369.222 1028.52 367.577C1028.52 365.657 1028.86 363.978 1029.55 362.538C1030.23 361.099 1031.21 359.991 1032.49 359.214C1033.77 358.414 1035.28 358.014 1037.02 358.014C1038.23 358.014 1039.36 358.208 1040.41 358.597C1041.49 358.985 1042.39 359.545 1043.12 360.276L1042.2 361.887C1041.28 361.156 1040.41 360.63 1039.59 360.31C1038.77 359.968 1037.88 359.796 1036.92 359.796C1034.95 359.796 1033.42 360.493 1032.32 361.887C1031.23 363.281 1030.68 365.2 1030.68 367.645C1030.68 369.633 1031.17 371.198 1032.15 372.341C1033.13 373.461 1034.54 374.02 1036.37 374.02C1037.28 374.02 1038.13 373.86 1038.91 373.541C1039.68 373.221 1040.52 372.695 1041.41 371.964L1042.09 373.541C1041.36 374.249 1040.47 374.809 1039.42 375.22C1038.39 375.631 1037.31 375.837 1036.16 375.837ZM1061.68 358.425L1060.31 375.597H1058.29L1058.53 372.615C1057.98 373.621 1057.17 374.409 1056.09 374.98C1055.04 375.551 1053.9 375.837 1052.66 375.837C1051.2 375.837 1049.92 375.494 1048.82 374.809C1047.73 374.123 1046.87 373.152 1046.25 371.895C1045.66 370.639 1045.36 369.176 1045.36 367.508C1045.36 365.612 1045.69 363.955 1046.35 362.538C1047.02 361.099 1047.95 359.991 1049.17 359.214C1050.4 358.414 1051.81 358.014 1053.38 358.014C1054.8 358.014 1056.02 358.322 1057.05 358.939C1058.1 359.556 1058.88 360.425 1059.38 361.544L1059.62 358.425H1061.68ZM1053.07 374.02C1054.9 374.02 1056.34 373.324 1057.39 371.93C1058.47 370.536 1059.01 368.628 1059.01 366.206C1059.01 364.126 1058.53 362.538 1057.57 361.442C1056.61 360.345 1055.23 359.796 1053.45 359.796C1051.58 359.796 1050.11 360.493 1049.06 361.887C1048.03 363.258 1047.52 365.166 1047.52 367.611C1047.52 369.645 1048 371.221 1048.96 372.341C1049.92 373.461 1051.29 374.02 1053.07 374.02ZM1069.32 370.319C1069.3 370.479 1069.29 370.707 1069.29 371.004C1069.29 372.124 1069.53 372.901 1070.01 373.335C1070.51 373.769 1071.22 373.986 1072.13 373.986C1072.82 373.986 1073.43 373.883 1073.98 373.678L1073.85 375.529C1073.16 375.711 1072.43 375.803 1071.65 375.803C1070.26 375.803 1069.16 375.437 1068.36 374.706C1067.58 373.975 1067.19 372.878 1067.19 371.416C1067.19 371.141 1067.21 370.924 1067.23 370.764L1068.05 360.105H1064.66L1064.79 358.425H1068.19L1068.53 353.867L1070.66 353.078L1070.25 358.425H1075.32L1075.18 360.105H1070.11L1069.32 370.319ZM1077.58 375.597L1078.95 358.425H1081.04L1079.67 375.597H1077.58ZM1079.12 351.33H1081.9L1081.69 354.004H1078.92L1079.12 351.33ZM1092.58 375.837C1091.05 375.837 1089.7 375.494 1088.53 374.809C1087.39 374.123 1086.5 373.164 1085.86 371.93C1085.24 370.673 1084.93 369.21 1084.93 367.542C1084.93 365.646 1085.27 363.978 1085.93 362.538C1086.61 361.099 1087.57 359.991 1088.81 359.214C1090.04 358.414 1091.46 358.014 1093.06 358.014C1094.59 358.014 1095.93 358.357 1097.07 359.042C1098.24 359.728 1099.13 360.699 1099.75 361.956C1100.39 363.19 1100.71 364.641 1100.71 366.309C1100.71 368.205 1100.36 369.873 1099.68 371.313C1099.01 372.752 1098.07 373.872 1096.83 374.672C1095.6 375.449 1094.18 375.837 1092.58 375.837ZM1092.72 374.02C1094.55 374.02 1095.97 373.324 1097 371.93C1098.05 370.536 1098.58 368.628 1098.58 366.206C1098.58 364.195 1098.09 362.63 1097.11 361.51C1096.12 360.368 1094.77 359.796 1093.06 359.796C1091.21 359.796 1089.75 360.505 1088.67 361.921C1087.62 363.315 1087.09 365.223 1087.09 367.645C1087.09 369.725 1087.57 371.313 1088.53 372.41C1089.49 373.483 1090.89 374.02 1092.72 374.02ZM1113.72 358.014C1115.64 358.014 1117.1 358.505 1118.11 359.488C1119.14 360.448 1119.65 361.887 1119.65 363.806C1119.65 364.218 1119.64 364.526 1119.62 364.732L1118.76 375.597H1116.7L1117.56 364.869C1117.58 364.686 1117.59 364.412 1117.59 364.046C1117.59 362.607 1117.25 361.544 1116.56 360.859C1115.88 360.173 1114.84 359.831 1113.44 359.831C1111.68 359.831 1110.28 360.345 1109.23 361.373C1108.2 362.401 1107.62 363.829 1107.48 365.657L1106.69 375.597H1104.6L1105.59 363.19C1105.68 362.253 1105.73 361.19 1105.73 360.002C1105.73 359.294 1105.72 358.768 1105.7 358.425H1107.65L1107.68 361.407C1108.26 360.31 1109.07 359.476 1110.12 358.905C1111.17 358.311 1112.37 358.014 1113.72 358.014ZM1130.18 375.837C1128.9 375.837 1127.68 375.643 1126.51 375.254C1125.37 374.843 1124.39 374.272 1123.56 373.541L1124.49 371.964C1125.43 372.695 1126.34 373.232 1127.23 373.575C1128.12 373.895 1129.12 374.055 1130.21 374.055C1131.72 374.055 1132.87 373.815 1133.64 373.335C1134.44 372.832 1134.84 372.09 1134.84 371.107C1134.84 370.49 1134.65 369.987 1134.26 369.599C1133.89 369.21 1133.43 368.902 1132.85 368.674C1132.28 368.422 1131.52 368.159 1130.56 367.885C1129.35 367.52 1128.37 367.177 1127.64 366.857C1126.91 366.537 1126.28 366.069 1125.76 365.452C1125.25 364.835 1125 364.024 1125 363.018C1125 361.464 1125.59 360.242 1126.75 359.351C1127.94 358.46 1129.54 358.014 1131.55 358.014C1132.76 358.014 1133.89 358.22 1134.95 358.631C1136 359.019 1136.85 359.568 1137.52 360.276L1136.59 361.887C1135.04 360.493 1133.37 359.796 1131.59 359.796C1130.15 359.796 1129.04 360.059 1128.26 360.585C1127.48 361.11 1127.09 361.887 1127.09 362.915C1127.09 363.532 1127.28 364.035 1127.64 364.423C1128.03 364.812 1128.5 365.12 1129.05 365.349C1129.62 365.555 1130.4 365.806 1131.38 366.103C1132.57 366.446 1133.53 366.777 1134.26 367.097C1135.01 367.417 1135.65 367.897 1136.18 368.536C1136.71 369.153 1136.97 369.976 1136.97 371.004C1136.97 372.489 1136.35 373.666 1135.12 374.535C1133.88 375.403 1132.24 375.837 1130.18 375.837Z" fill="#ABABAB"/>
<defs>
<linearGradient id="paint0_linear" x1="0" y1="862.575" x2="1760" y2="862.575" gradientUnits="userSpaceOnUse">
<stop stop-color="white" stop-opacity="0"/>
<stop offset="0.0989583" stop-color="white"/>
<stop offset="0.864583" stop-color="white"/>
<stop offset="1" stop-color="white" stop-opacity="0"/>
</linearGradient>
<linearGradient id="paint1_linear" x1="103.369" y1="865.444" x2="384.517" y2="1466.67" gradientUnits="userSpaceOnUse">
<stop stop-color="#FFBC1F" stop-opacity="0"/>
<stop offset="0.140625" stop-color="#FFBC1F"/>
<stop offset="0.8125" stop-color="#E01A2C"/>
<stop offset="1" stop-color="#E01A2C" stop-opacity="0"/>
</linearGradient>
</defs>
</svg>
