<svg width="14" height="13" viewBox="0 0 14 13" fill="none" xmlns="http://www.w3.org/2000/svg">
<path fill-rule="evenodd" clip-rule="evenodd" d="M0.819086 1.94359C0.25 2.89305 0.25 4.1787 0.25 6.75V11.734C0.25 11.8184 0.25 11.8606 0.251232 11.8854C0.29311 12.7282 1.29561 13.1434 1.92114 12.5771C1.93955 12.5605 1.96938 12.5306 2.02905 12.4709C2.07757 12.4224 2.10183 12.3982 2.12562 12.3752C2.85516 11.6694 3.82574 11.2673 4.84066 11.2505C4.87375 11.25 4.90806 11.25 4.97668 11.25H8.125C9.6374 11.25 10.3936 11.25 11.0047 11.0481C12.2074 10.6508 13.1508 9.70738 13.5481 8.50473C13.75 7.89361 13.75 7.1374 13.75 5.625C13.75 4.1126 13.75 3.35639 13.5481 2.74527C13.1508 1.54262 12.2074 0.599191 11.0047 0.201887C10.3936 0 9.6374 0 8.125 0H7C4.4287 0 3.14305 0 2.19359 0.569086C1.62937 0.907264 1.15726 1.37937 0.819086 1.94359ZM3.625 6.75C4.24632 6.75 4.75 6.24632 4.75 5.625C4.75 5.00368 4.24632 4.5 3.625 4.5C3.00368 4.5 2.5 5.00368 2.5 5.625C2.5 6.24632 3.00368 6.75 3.625 6.75ZM8.125 5.625C8.125 6.24632 7.62132 6.75 7 6.75C6.37868 6.75 5.875 6.24632 5.875 5.625C5.875 5.00368 6.37868 4.5 7 4.5C7.62132 4.5 8.125 5.00368 8.125 5.625ZM10.375 6.75C10.9963 6.75 11.5 6.24632 11.5 5.625C11.5 5.00368 10.9963 4.5 10.375 4.5C9.75368 4.5 9.25 5.00368 9.25 5.625C9.25 6.24632 9.75368 6.75 10.375 6.75Z" fill="white"/>
</svg>
