<svg width="20" height="20" viewBox="0 0 20 20" fill="none" xmlns="http://www.w3.org/2000/svg">
<path d="M8 4.00017C8 3.46974 8.21072 2.96103 8.58579 2.58596C8.96086 2.21089 9.46957 2.00017 10 2.00017C10.5304 2.00017 11.0391 2.21089 11.4142 2.58596C11.7893 2.96103 12 3.46974 12 4.00017V9.00017C12.0043 9.05342 12.0043 9.10693 12 9.16017L13.6 10.7502C13.8642 10.2047 14.001 9.60628 14 9.00017V4.00017C13.9889 3.01237 13.6128 2.0636 12.9439 1.33662C12.275 0.609637 11.3608 0.155877 10.3774 0.0627455C9.39389 -0.0303856 8.41075 0.2437 7.61731 0.832206C6.82388 1.42071 6.27628 2.28201 6.08 3.25017L8 5.17017V4.00017ZM17 9.00017C17 8.73496 16.8946 8.4806 16.7071 8.29307C16.5196 8.10553 16.2652 8.00017 16 8.00017C15.7348 8.00017 15.4804 8.10553 15.2929 8.29307C15.1054 8.4806 15 8.73496 15 9.00017C14.9971 9.87383 14.7587 10.7306 14.31 11.4802L15.78 13.0002C16.5848 11.8223 17.0104 10.4267 17 9.00017V9.00017ZM10 13.0002H10.16L6 8.83017V9.00017C6 10.061 6.42143 11.0785 7.17158 11.8286C7.92172 12.5787 8.93914 13.0002 10 13.0002ZM18.71 17.2902L2.71 1.29017C2.61676 1.19694 2.50607 1.12297 2.38425 1.07251C2.26243 1.02205 2.13186 0.996083 2 0.996083C1.86814 0.996083 1.73758 1.02205 1.61575 1.07251C1.49393 1.12297 1.38324 1.19694 1.29 1.29017C1.1017 1.47848 0.995911 1.73387 0.995911 2.00017C0.995911 2.26648 1.1017 2.52187 1.29 2.71017L17.29 18.7102C17.383 18.8039 17.4936 18.8783 17.6154 18.9291C17.7373 18.9798 17.868 19.006 18 19.006C18.132 19.006 18.2627 18.9798 18.3846 18.9291C18.5064 18.8783 18.617 18.8039 18.71 18.7102C18.8037 18.6172 18.8781 18.5066 18.9289 18.3848C18.9797 18.2629 19.0058 18.1322 19.0058 18.0002C19.0058 17.8682 18.9797 17.7375 18.9289 17.6156C18.8781 17.4937 18.8037 17.3831 18.71 17.2902V17.2902Z" fill="#1AB759"/>
<path d="M13 18H11V15.92C11.5659 15.8412 12.12 15.6935 12.65 15.48L11.05 13.88C10.7058 13.9605 10.3535 14.0007 10 14C8.67392 14 7.40215 13.4732 6.46447 12.5355C5.52678 11.5979 5 10.3261 5 9C5 8.73478 4.89464 8.48043 4.70711 8.29289C4.51957 8.10536 4.26522 8 4 8C3.73478 8 3.48043 8.10536 3.29289 8.29289C3.10536 8.48043 3 8.73478 3 9C3.00197 10.6818 3.60941 12.3068 4.71118 13.5775C5.81295 14.8482 7.3354 15.6797 9 15.92V18H7C6.73478 18 6.48043 18.1054 6.29289 18.2929C6.10536 18.4804 6 18.7348 6 19C6 19.2652 6.10536 19.5196 6.29289 19.7071C6.48043 19.8946 6.73478 20 7 20H13C13.2652 20 13.5196 19.8946 13.7071 19.7071C13.8946 19.5196 14 19.2652 14 19C14 18.7348 13.8946 18.4804 13.7071 18.2929C13.5196 18.1054 13.2652 18 13 18Z" fill="#1AB759"/>
</svg>
