<svg width="16" height="10" viewBox="0 0 16 10" fill="none" xmlns="http://www.w3.org/2000/svg">
<path d="M10.3607 4.14429C11.5073 4.14429 12.4259 3.21873 12.4259 2.07214C12.4259 0.925557 11.5073 0 10.3607 0C9.21413 0 8.28857 0.925557 8.28857 2.07214C8.28857 3.21873 9.21413 4.14429 10.3607 4.14429ZM4.835 4.14429C5.98158 4.14429 6.90023 3.21873 6.90023 2.07214C6.90023 0.925557 5.98158 0 4.835 0C3.68841 0 2.76286 0.925557 2.76286 2.07214C2.76286 3.21873 3.68841 4.14429 4.835 4.14429ZM4.835 5.52571C3.22564 5.52571 0 6.33385 0 7.94321V9.67H9.67V7.94321C9.67 6.33385 6.44436 5.52571 4.835 5.52571ZM10.3607 5.52571C10.1604 5.52571 9.93247 5.53953 9.69072 5.56025C10.4919 6.14045 11.0514 6.92096 11.0514 7.94321V9.67H15.1957V7.94321C15.1957 6.33385 11.9701 5.52571 10.3607 5.52571Z" fill="#3071F2"/>
</svg>
