<svg width="12" height="13" viewBox="0 0 12 13" fill="none" xmlns="http://www.w3.org/2000/svg">
<path d="M0.290201 2.71L8.5802 11H3.0002C2.73498 11 2.48063 11.1054 2.29309 11.2929C2.10556 11.4804 2.0002 11.7348 2.0002 12C2.0002 12.2652 2.10556 12.5196 2.29309 12.7071C2.48063 12.8946 2.73498 13 3.0002 13H10.9502C11.2154 13 11.4698 12.8946 11.6573 12.7071C11.8448 12.5196 11.9502 12.2652 11.9502 12V4C11.9502 3.73479 11.8448 3.48043 11.6573 3.2929C11.4698 3.10536 11.2154 3 10.9502 3H11.0002C10.735 3 10.4806 3.10536 10.2931 3.2929C10.1056 3.48043 10.0002 3.73479 10.0002 4V9.55L1.7402 1.29C1.64724 1.19628 1.53664 1.12188 1.41478 1.07111C1.29292 1.02034 1.16221 0.994205 1.0302 0.994205C0.898189 0.994205 0.767484 1.02034 0.645624 1.07111C0.523765 1.12188 0.413163 1.19628 0.3202 1.29C0.224481 1.38097 0.147726 1.48999 0.0943661 1.61078C0.0410061 1.73157 0.0120974 1.86173 0.00930786 1.99375C0.00651932 2.12577 0.0299044 2.25704 0.0781155 2.37997C0.126327 2.50291 0.19841 2.61507 0.290201 2.71Z" fill="#FB4E4E"/>
</svg>
