<svg width="21" height="20" viewBox="0 0 21 20" fill="none" xmlns="http://www.w3.org/2000/svg">
<path d="M10.5 15.625C10.1106 15.625 9.72998 15.735 9.40622 15.941C9.08246 16.147 8.83012 16.4399 8.68111 16.7825C8.5321 17.1251 8.49312 17.5021 8.56908 17.8658C8.64504 18.2295 8.83255 18.5636 9.10788 18.8258C9.38322 19.088 9.73402 19.2666 10.1159 19.339C10.4978 19.4113 10.8937 19.3742 11.2534 19.2323C11.6132 19.0904 11.9206 18.85 12.137 18.5417C12.3533 18.2334 12.4688 17.8708 12.4688 17.5C12.4688 17.0027 12.2613 16.5258 11.8921 16.1742C11.5229 15.8225 11.0221 15.625 10.5 15.625Z" fill="white"/>
<path d="M10.5 10.625C10.1106 10.625 9.72998 10.735 9.40622 10.941C9.08246 11.147 8.83012 11.4399 8.68111 11.7825C8.5321 12.1251 8.49312 12.5021 8.56908 12.8658C8.64504 13.2295 8.83255 13.5636 9.10788 13.8258C9.38322 14.088 9.73402 14.2666 10.1159 14.339C10.4978 14.4113 10.8937 14.3742 11.2534 14.2323C11.6132 14.0904 11.9206 13.85 12.137 13.5417C12.3533 13.2334 12.4688 12.8708 12.4688 12.5C12.4688 12.0027 12.2613 11.5258 11.8921 11.1742C11.5229 10.8225 11.0221 10.625 10.5 10.625Z" fill="white"/>
<path d="M10.5 5.625C10.1106 5.625 9.72998 5.73497 9.40622 5.94099C9.08246 6.14702 8.83012 6.43986 8.68111 6.78247C8.5321 7.12508 8.49312 7.50208 8.56908 7.86579C8.64504 8.22951 8.83255 8.5636 9.10788 8.82583C9.38322 9.08805 9.73402 9.26663 10.1159 9.33897C10.4978 9.41132 10.8937 9.37419 11.2534 9.23227C11.6132 9.09036 11.9206 8.85004 12.137 8.54169C12.3533 8.23335 12.4688 7.87084 12.4688 7.5C12.4688 7.00272 12.2613 6.52581 11.8921 6.17417C11.5229 5.82254 11.0221 5.625 10.5 5.625Z" fill="white"/>
<path d="M10.5 0.625C10.1106 0.625 9.72998 0.734967 9.40622 0.940994C9.08246 1.14702 8.83012 1.43986 8.68111 1.78247C8.5321 2.12508 8.49312 2.50208 8.56908 2.86579C8.64504 3.22951 8.83255 3.5636 9.10788 3.82583C9.38322 4.08805 9.73402 4.26662 10.1159 4.33897C10.4978 4.41132 10.8937 4.37419 11.2534 4.23227C11.6132 4.09036 11.9206 3.85004 12.137 3.54169C12.3533 3.23335 12.4688 2.87084 12.4688 2.5C12.4688 2.00272 12.2613 1.52581 11.8921 1.17417C11.5229 0.822544 11.0221 0.625 10.5 0.625Z" fill="white"/>
<path d="M15.75 10.625C15.3606 10.625 14.98 10.735 14.6562 10.941C14.3325 11.147 14.0801 11.4399 13.9311 11.7825C13.7821 12.1251 13.7431 12.5021 13.8191 12.8658C13.895 13.2295 14.0825 13.5636 14.3579 13.8258C14.6332 14.088 14.984 14.2666 15.3659 14.339C15.7478 14.4113 16.1437 14.3742 16.5034 14.2323C16.8632 14.0904 17.1706 13.85 17.387 13.5417C17.6033 13.2334 17.7187 12.8708 17.7187 12.5C17.7187 12.0027 17.5113 11.5258 17.1421 11.1742C16.7729 10.8225 16.2721 10.625 15.75 10.625Z" fill="white"/>
<path d="M15.75 5.625C15.3606 5.625 14.98 5.73497 14.6562 5.94099C14.3325 6.14702 14.0801 6.43986 13.9311 6.78247C13.7821 7.12508 13.7431 7.50208 13.8191 7.86579C13.895 8.22951 14.0825 8.5636 14.3579 8.82583C14.6332 9.08805 14.984 9.26663 15.3659 9.33897C15.7478 9.41132 16.1437 9.37419 16.5034 9.23227C16.8632 9.09036 17.1706 8.85004 17.387 8.54169C17.6033 8.23335 17.7187 7.87084 17.7187 7.5C17.7187 7.00272 17.5113 6.52581 17.1421 6.17417C16.7729 5.82254 16.2721 5.625 15.75 5.625Z" fill="white"/>
<path d="M15.75 0.625C15.3606 0.625 14.98 0.734967 14.6562 0.940994C14.3325 1.14702 14.0801 1.43986 13.9311 1.78247C13.7821 2.12508 13.7431 2.50208 13.8191 2.86579C13.895 3.22951 14.0825 3.5636 14.3579 3.82583C14.6332 4.08805 14.984 4.26662 15.3659 4.33897C15.7478 4.41132 16.1437 4.37419 16.5034 4.23227C16.8632 4.09036 17.1706 3.85004 17.387 3.54169C17.6033 3.23335 17.7187 2.87084 17.7187 2.5C17.7187 2.00272 17.5113 1.52581 17.1421 1.17417C16.7729 0.822544 16.2721 0.625 15.75 0.625Z" fill="white"/>
<path d="M5.25 10.625C4.86062 10.625 4.47998 10.735 4.15622 10.941C3.83246 11.147 3.58012 11.4399 3.43111 11.7825C3.2821 12.1251 3.24312 12.5021 3.31908 12.8658C3.39504 13.2295 3.58255 13.5636 3.85788 13.8258C4.13322 14.088 4.48402 14.2666 4.86592 14.339C5.24782 14.4113 5.64367 14.3742 6.00341 14.2323C6.36315 14.0904 6.67063 13.85 6.88696 13.5417C7.10329 13.2334 7.21875 12.8708 7.21875 12.5C7.21875 12.0027 7.01133 11.5258 6.64212 11.1742C6.27291 10.8225 5.77215 10.625 5.25 10.625Z" fill="white"/>
<path d="M5.25 5.625C4.86062 5.625 4.47998 5.73497 4.15622 5.94099C3.83246 6.14702 3.58012 6.43986 3.43111 6.78247C3.2821 7.12508 3.24312 7.50208 3.31908 7.86579C3.39504 8.22951 3.58255 8.5636 3.85788 8.82583C4.13322 9.08805 4.48402 9.26663 4.86592 9.33897C5.24782 9.41132 5.64367 9.37419 6.00341 9.23227C6.36315 9.09036 6.67063 8.85004 6.88696 8.54169C7.10329 8.23335 7.21875 7.87084 7.21875 7.5C7.21875 7.00272 7.01133 6.52581 6.64212 6.17417C6.27291 5.82254 5.77215 5.625 5.25 5.625Z" fill="white"/>
<path d="M5.25 0.625C4.86062 0.625 4.47998 0.734967 4.15622 0.940994C3.83246 1.14702 3.58012 1.43986 3.43111 1.78247C3.2821 2.12508 3.24312 2.50208 3.31908 2.86579C3.39504 3.22951 3.58255 3.5636 3.85788 3.82583C4.13322 4.08805 4.48402 4.26662 4.86592 4.33897C5.24782 4.41132 5.64367 4.37419 6.00341 4.23227C6.36315 4.09036 6.67063 3.85004 6.88696 3.54169C7.10329 3.23335 7.21875 2.87084 7.21875 2.5C7.21875 2.00272 7.01133 1.52581 6.64212 1.17417C6.27291 0.822544 5.77215 0.625 5.25 0.625Z" fill="white"/>
</svg>
