<?xml version="1.0" encoding="UTF-8"?>
<svg width="20px" height="20px" viewBox="0 0 20 20" version="1.1" xmlns="http://www.w3.org/2000/svg" xmlns:xlink="http://www.w3.org/1999/xlink">
    <!-- Generator: sketchtool 51.2 (57519) - http://www.bohemiancoding.com/sketch -->
    <title>7B8B163E-084D-4A0B-9C68-892CCECD8728</title>
    <desc>Created with sketchtool.</desc>
    <defs></defs>
    <g id="Updated" stroke="none" stroke-width="1" fill="none" fill-rule="evenodd">
        <g id="02a-Select-Subscriber" transform="translate(-362.000000, -244.000000)" fill="#46AE20">
            <g id="Group-2" transform="translate(102.000000, 231.000000)">
                <g id="Group-7-Copy-8">
                    <g id="Group-15">
                        <path d="M260,17.3152682 C260.038373,17.0484287 260.065714,16.7794395 260.117024,16.515108 C260.31496,15.4957995 260.747659,14.5969927 261.495278,13.8641893 C261.665437,13.6974295 261.82627,13.519364 262.008333,13.3668559 C262.630159,12.8460352 263.436548,12.8830177 264.011548,13.457063 C265.010079,14.4538396 266.005159,15.4540797 267.000198,16.4543197 C267.65377,17.1112472 267.657341,17.9544011 267.004563,18.6209624 C266.508651,19.1273324 266.005238,19.6262581 265.502817,20.1261791 C265.451786,20.1769753 265.384881,20.2117286 265.350119,20.2363305 C266.770079,23.1434199 268.777302,25.4427061 271.558214,27.0255105 C271.902817,27.2216492 272.251151,27.4113788 272.592183,27.6134491 C272.698452,27.6764269 272.760397,27.6629316 272.845119,27.5765064 C273.35504,27.056044 273.868373,26.5388857 274.385952,26.0260666 C274.897817,25.5189402 275.596468,25.4073557 276.183413,25.7417908 C276.313413,25.8158355 276.431389,25.9187417 276.538095,26.0252705 C277.531825,27.0174691 278.519643,28.0155992 279.514683,29.0064842 C279.756667,29.247408 279.90877,29.531644 280,29.8550918 L280,30.2531815 C279.911627,30.6927521 279.676786,31.0419165 279.343889,31.332721 C279.249365,31.4152848 279.163175,31.5076017 279.074762,31.5970525 C278.494643,32.1840357 277.800635,32.5773482 277.013333,32.8070061 C276.755437,32.8822451 276.491389,32.9362658 276.230159,33 L275.277778,33 C275.227143,32.9869825 275.177143,32.9700239 275.125754,32.9615445 C274.748611,32.8994426 274.366587,32.8593947 273.994603,32.7746813 C271.778333,32.2699434 269.83504,31.1994406 268.032698,29.8459756 C266.5825,28.7569616 265.296786,27.488648 264.081905,26.1466878 C262.92881,24.8729602 261.865198,23.5314777 261.074167,21.9936574 C260.612103,21.0954478 260.263413,20.1565932 260.113373,19.151377 C260.073571,18.8846569 260.037698,18.6173398 260,18.3503012 L260,17.3152682 Z" id="Call"></path>
                    </g>
                </g>
            </g>
        </g>
    </g>
</svg>