<?xml version="1.0" encoding="UTF-8"?>
<svg width="35px" height="30px" viewBox="0 0 35 30" version="1.1" xmlns="http://www.w3.org/2000/svg" xmlns:xlink="http://www.w3.org/1999/xlink">
    <!-- Generator: sketchtool 51.2 (57519) - http://www.bohemiancoding.com/sketch -->
    <title>68E3D1AD-EBEF-4619-81F2-AD4B5A8C5618</title>
    <desc>Created with sketchtool.</desc>
    <defs>
        <polygon id="path-1" points="0.0555119091 0.02613106 21.6424936 0.02613106 21.6424936 19.4343856 0.0555119091 19.4343856"></polygon>
        <polygon id="path-3" points="8.04892398e-06 0.0342416452 22.9271337 0.0342416452 22.9271337 20.6598893 8.04892398e-06 20.6598893"></polygon>
    </defs>
    <g id="Updated" stroke="none" stroke-width="1" fill="none" fill-rule="evenodd">
        <g id="01-Train" transform="translate(-418.000000, -15.000000)">
            <g id="Group-13" transform="translate(140.000000, 15.000000)">
                <g id="Group-12" transform="translate(278.000000, 0.000000)">
                    <g id="Group-2">
                        <g id="Communication">
                            <g id="Group-3" transform="translate(12.570694, 10.531311)">
                                <mask id="mask-2" fill="white">
                                    <use xlink:href="#path-1"></use>
                                </mask>
                                <g id="Clip-2"></g>
                                <path d="M18.271982,9.73142931 C18.2728303,8.71034961 17.431365,7.86942416 16.4099769,7.8706581 C15.3857352,7.87189203 14.549437,8.70826735 14.5483573,9.73258612 C14.5472005,10.7538972 15.3882802,11.5952853 16.409437,11.5942828 C17.4309794,11.5933573 18.2711337,10.7530488 18.271982,9.73142931 M5.31005398,7.87166067 C4.25889717,7.8784473 3.43725193,8.71181491 3.44342159,9.76489974 C3.4493599,10.7745656 4.31311311,11.60909 5.33673779,11.5942828 C6.33483548,11.5798612 7.16426992,10.7381645 7.16658355,9.73736761 C7.16889717,8.71644216 6.32187918,7.86518252 5.31005398,7.87166067 M12.7172005,9.75016967 C12.7185887,8.70117224 11.8802853,7.8636401 10.8359152,7.87073522 C9.8323419,7.87744473 9.00113368,8.71004113 8.9956581,9.71384576 C8.9901054,10.7579075 9.82887147,11.5949769 10.8780231,11.5922005 C11.8786658,11.5896555 12.7158895,10.7511208 12.7172005,9.75016967 M21.6325219,19.4343856 C19.5986915,19.0533316 17.6590257,18.6901697 15.7195913,18.3263136 C15.2908766,18.2458766 14.8641671,18.1530231 14.4333702,18.0866221 C14.2882288,18.0642571 14.128126,18.0856195 13.9834473,18.1214807 C11.3888715,18.7654396 8.82930848,18.65909 6.34725193,17.6577532 C3.43987404,16.4847455 1.26198201,14.5370591 0.389514139,11.4376504 C-0.484958869,8.33083805 0.394064267,5.61757326 2.600491,3.33795887 C4.48917995,1.38664781 6.8586401,0.383614396 9.54043959,0.102354756 C12.2853239,-0.185537275 14.8691028,0.333177378 17.2114165,1.81027249 C19.672419,3.36225193 21.2798483,5.52310026 21.5953496,8.48677635 C21.8486915,10.8671105 21.0695398,12.936108 19.542162,14.7454396 C19.1264036,15.2380103 19.1227789,15.2360051 19.4550154,15.7922776 C20.1646812,16.9802468 20.8751954,18.1679075 21.6325219,19.4343856" id="Fill-1" fill="#000000" mask="url(#mask-2)"></path>
                            </g>
                            <g id="Group-6" transform="translate(0.000000, 0.042879)">
                                <mask id="mask-4" fill="white">
                                    <use xlink:href="#path-3"></use>
                                </mask>
                                <g id="Clip-5"></g>
                                <path d="M5.80970437,15.737329 C5.48116967,16.2955296 5.22366324,16.7331131 4.90931877,17.2670977 C5.67057841,17.1278175 6.32865039,17.0353496 6.97199229,16.8818021 C7.62381748,16.7262494 8.23816195,16.7463008 8.8927635,16.92391 C9.56749357,17.1069177 10.2821722,17.1467892 10.9814267,17.2331645 C11.2066195,17.260928 11.4382134,17.2374833 11.6781362,17.2374833 C11.5578278,18.0737815 11.4454627,18.8548612 11.3195244,19.7305681 C10.5967481,19.6543728 9.81875321,19.6826761 9.11201799,19.4719049 C8.05754499,19.1574062 7.0672365,19.3485887 6.04893316,19.5459409 C4.0838946,19.9267635 2.1153856,20.2900797 0.148033419,20.6591799 C0.126053985,20.6633445 0.100372751,20.648383 0.0473136247,20.6348869 C0.111015424,20.5192057 0.167390746,20.4089229 0.230784062,20.3028817 C0.988033419,19.0352468 1.73849614,17.7633702 2.51109254,16.505144 C2.66386889,16.2562751 2.62183805,16.1206967 2.43736504,15.918563 C0.850604113,14.1790257 -0.0358226221,12.1438072 0.00111825193,9.77087661 C0.0450771208,6.94786889 1.27492288,4.66848586 3.4053856,2.88051671 C6.0487018,0.662213368 9.14579692,-0.180640103 12.5534576,0.0799511568 C15.4406298,0.300748072 17.9913239,1.34642931 20.0903213,3.37223907 C21.7373907,4.96177635 22.7262339,6.88894859 22.9271337,9.22663496 C22.1283162,9.32889717 21.3459254,9.429 20.5154113,9.53534961 C20.4797044,9.28424422 20.4544087,9.00892288 20.4000386,8.73953985 C20.0252314,6.88223907 18.982635,5.46475835 17.4850257,4.35398715 C13.8679049,1.67118509 8.27502571,1.87277892 4.88224936,4.82658355 C3.35919023,6.15259897 2.45348329,7.80707198 2.44546272,9.86673779 C2.43859897,11.6553239 3.15836761,13.1580231 4.38805913,14.4237301 C4.83520566,14.88391 5.3305527,15.2972005 5.80970437,15.737329" id="Fill-4" fill="#000000" mask="url(#mask-4)"></path>
                            </g>
                        </g>
                    </g>
                </g>
            </g>
        </g>
    </g>
</svg>