<?xml version="1.0" encoding="UTF-8"?>
<svg width="20px" height="20px" viewBox="0 0 20 20" version="1.1" xmlns="http://www.w3.org/2000/svg" xmlns:xlink="http://www.w3.org/1999/xlink">
    <!-- Generator: sketchtool 51.2 (57519) - http://www.bohemiancoding.com/sketch -->
    <title>F812D46A-1395-4CAA-9AE3-BDA2C2496C9C</title>
    <desc>Created with sketchtool.</desc>
    <defs></defs>
    <g id="Updated" stroke="none" stroke-width="1" fill="none" fill-rule="evenodd">
        <g id="02-Communication" transform="translate(-681.000000, -398.000000)" fill="#4A90E2">
            <g id="Group-7-Copy-4" transform="translate(661.000000, 339.000000)">
                <g id="Incoming" transform="translate(20.000000, 59.000000)">
                    <path d="M0,4.31526816 C0.0383730159,4.04842867 0.0657142857,3.7794395 0.11702381,3.51510798 C0.314960317,2.49579946 0.74765873,1.59699267 1.49527778,0.864189255 C1.66543651,0.697429505 1.82626984,0.519364009 2.00833333,0.366855867 C2.63015873,-0.15396481 3.43654762,-0.116982282 4.01154762,0.45706298 C5.01007937,1.45383963 6.00515873,2.45407966 7.00019841,3.45431969 C7.65376984,4.11124722 7.65734127,4.95440108 7.00456349,5.62096237 C6.50865079,6.12733239 6.0052381,6.62625814 5.50281746,7.12617911 C5.45178571,7.17697535 5.38488095,7.21172858 5.35011905,7.23633052 C6.77007937,10.1434199 8.77730159,12.4427061 11.5582143,14.0255105 C11.9028175,14.2216492 12.2511508,14.4113788 12.5921825,14.6134491 C12.6984524,14.6764269 12.7603968,14.6629316 12.845119,14.5765064 C13.3550397,14.056044 13.868373,13.5388857 14.3859524,13.0260666 C14.8978175,12.5189402 15.5964683,12.4073557 16.1834127,12.7417908 C16.3134127,12.8158355 16.4313889,12.9187417 16.5380952,13.0252705 C17.5318254,14.0174691 18.5196429,15.0155992 19.5146825,16.0064842 C19.7566667,16.247408 19.9087698,16.531644 20,16.8550918 L20,17.2531815 C19.911627,17.6927521 19.6767857,18.0419165 19.3438889,18.332721 C19.2493651,18.4152848 19.1631746,18.5076017 19.0747619,18.5970525 C18.4946429,19.1840357 17.8006349,19.5773482 17.0133333,19.8070061 C16.7554365,19.8822451 16.4913889,19.9362658 16.2301587,20 L15.2777778,20 C15.2271429,19.9869825 15.1771429,19.9700239 15.125754,19.9615445 C14.7486111,19.8994426 14.3665873,19.8593947 13.9946032,19.7746813 C11.7783333,19.2699434 9.83503968,18.1994406 8.03269841,16.8459756 C6.5825,15.7569616 5.29678571,14.488648 4.08190476,13.1466878 C2.92880952,11.8729602 1.86519841,10.5314777 1.07416667,8.99365742 C0.612103175,8.09544777 0.263412698,7.15659316 0.113373016,6.15137701 C0.0735714286,5.88465695 0.0376984127,5.61733976 0,5.35030122 L0,4.31526816 Z" id="Fill-1"></path>
                    <path d="M15.2325522,6.43479088 C15.5883872,6.78782762 15.9150029,7.11069492 16.2400148,7.43515213 C16.3133175,7.50832659 16.389593,7.58095816 16.4499094,7.66421496 C16.6304672,7.91352001 16.548559,8.15871457 16.2436134,8.21959635 C15.887309,8.29071557 15.5239246,8.32778753 15.1630828,8.37563983 C14.1121236,8.5149699 13.0613991,8.65588988 12.0095793,8.78847255 C11.6481507,8.83399816 11.2843361,8.86498194 10.9206388,8.88743452 C10.5802153,8.90841352 10.3533054,8.70098893 10.3713769,8.35849986 C10.3978582,7.85624461 10.4553973,7.35554048 10.5025707,6.85440979 C10.5866303,5.96134783 10.6729194,5.06844098 10.7580742,4.1754178 C10.7924177,3.81563366 10.8102153,3.45317382 10.8687323,3.09730627 C10.8899721,2.96798097 10.9806422,2.81182116 11.0884058,2.7439593 C11.2301218,2.65473066 11.3723072,2.77432264 11.4806575,2.88169947 C11.8676677,3.26521588 12.251666,3.6517182 12.650098,4.05043566 C12.7061899,3.99990767 12.7538327,3.96039268 12.7976031,3.91703865 C14.0558362,2.67012561 15.3138736,1.42294112 16.5715199,0.175446407 C16.7949485,-0.0461322316 16.9499638,-0.0568737932 17.2021815,0.137792774 C17.2534621,0.177346539 17.3021611,0.220739345 17.348122,0.266226174 C17.9108788,0.823042357 18.4735574,1.37989732 19.0347887,1.93818707 C19.3339843,2.23584854 19.3333584,2.4138017 19.037253,2.70739146 C17.8300268,3.90439696 16.6228788,5.10144123 15.4144008,6.29716705 C15.3639416,6.34711337 15.3003787,6.38403022 15.2325522,6.43479088" id="Fill-3"></path>
                </g>
            </g>
        </g>
    </g>
</svg>