<?xml version="1.0" encoding="UTF-8"?>
<svg width="31px" height="30px" viewBox="0 0 31 30" version="1.1" xmlns="http://www.w3.org/2000/svg" xmlns:xlink="http://www.w3.org/1999/xlink">
    <!-- Generator: sketchtool 51.2 (57519) - http://www.bohemiancoding.com/sketch -->
    <title>CF68645F-ACED-48D8-9119-0ECF24AA61E6</title>
    <desc>Created with sketchtool.</desc>
    <defs>
        <polygon id="path-1" points="0 0.027102132 30.8333333 0.027102132 30.8333333 11.6666667 0 11.6666667"></polygon>
    </defs>
    <g id="Updated" stroke="none" stroke-width="1" fill="none" fill-rule="evenodd">
        <g id="01-Train" transform="translate(-964.000000, -16.000000)">
            <g id="Group-13" transform="translate(140.000000, 15.000000)">
                <g id="Group-4" transform="translate(824.000000, 1.000000)">
                    <g id="Locations">
                        <g id="Group-3" transform="translate(0.000000, 18.333333)">
                            <mask id="mask-2" fill="white">
                                <use xlink:href="#path-1"></use>
                            </mask>
                            <g id="Clip-2"></g>
                            <path d="M0,5.06983246 C0.298938802,3.69860209 1.18750488,2.78854101 2.32556803,2.10943106 C2.96993652,1.72491972 3.64260905,1.35500698 4.34810221,1.11788656 C5.59853841,0.697581152 6.8830599,0.381115183 8.1560791,0.0314205934 C8.22611654,0.0121186736 8.35902507,0.0603123909 8.39859049,0.120478185 C8.89830729,0.880338569 9.3862207,1.64813962 9.9020166,2.45277312 C9.36755208,2.55368063 8.86717285,2.6366911 8.37179199,2.74364572 C6.8015804,3.08258988 5.25714355,3.50613264 3.85043294,4.32133333 C3.52300944,4.5110541 3.21094238,4.7458534 2.93753743,5.00881152 C2.58319499,5.34958813 2.60246582,5.65218848 2.94217448,6.01220593 C3.40907064,6.50678709 3.99761393,6.814274 4.60217611,7.09048691 C6.18413086,7.81314834 7.85726074,8.20834904 9.56001953,8.49451832 C12.0137988,8.90700524 14.4879932,8.99765096 16.9662826,8.91079232 C19.6364372,8.81721466 22.2776253,8.48792147 24.8318538,7.6393089 C25.7950342,7.31936126 26.7359326,6.94395113 27.5555452,6.31749389 C28.3454687,5.713637 28.3393864,5.2688377 27.536696,4.68623735 C26.3246208,3.80641187 24.9338086,3.356726 23.5121029,2.99579232 C22.6796029,2.78444852 21.8341553,2.6258185 20.9680518,2.43774695 C21.0017757,2.37122862 21.0300195,2.30153403 21.0697054,2.23935253 C21.5052865,1.55651658 21.9379167,0.871726003 22.3854215,0.197013962 C22.4420898,0.111499127 22.5919808,0.0170052356 22.6772542,0.0344136126 C24.4072331,0.387895288 26.1114974,0.829823735 27.6985107,1.64288656 C28.6091781,2.10943106 29.4509521,2.6675986 30.1031494,3.48536475 C30.4774854,3.95471902 30.6785042,4.49969284 30.8333333,5.06983246 L30.8333333,5.98606283 C30.8192415,5.99968412 30.7953939,6.01135079 30.7923828,6.02710995 C30.6038298,7.02067016 30.0251025,7.74895113 29.2670361,8.361726 C28.249235,9.18437871 27.084554,9.71835777 25.864891,10.1354869 C23.0989242,11.081281 20.2376872,11.4712286 17.3344759,11.6060366 C17.1763949,11.6133665 17.019458,11.6458621 16.8619792,11.6666911 L13.9713542,11.6666911 C13.8740365,11.6481222 13.7774414,11.6210628 13.6792806,11.6123892 C12.4913542,11.5075113 11.2995133,11.4369005 10.1159229,11.2954346 C7.97131999,11.0390122 5.87567708,10.5597016 3.87446126,9.71365445 C2.98264323,9.3366562 2.14659017,8.86033857 1.40014648,8.23027749 C0.694171549,7.63436126 0.225167643,6.88916056 0,5.98606283 L0,5.06983246 Z" id="Fill-1" fill="#000000" mask="url(#mask-2)"></path>
                        </g>
                        <path d="M15.8376865,4.98572927 C13.7289466,4.98784491 12.0346368,6.62170291 12.0394786,8.64842261 C12.0442591,10.6558665 13.7421235,12.2810857 15.8368284,12.2831425 C17.9470393,12.2852582 19.6505422,10.6553964 19.6505422,8.63420084 C19.6506035,6.61094843 17.9499198,4.98361364 15.8376865,4.98572927 M15.6745988,0 C19.8907303,0.0426653086 23.3704239,2.49968168 24.602131,6.15544043 C25.2803452,8.16834973 25.0557243,10.113735 24.1997133,12.0415488 C23.2002881,14.2922907 21.9236568,16.3920586 20.5279427,18.4281223 C19.6145661,19.7605023 18.6593909,21.0672596 17.6966773,22.3676113 C16.7603176,23.6324085 14.9762821,23.6602643 14.0302389,22.4191505 C11.9574138,19.7000892 9.99545892,16.9105655 8.39234589,13.9057172 C7.67202677,12.5556481 7.02825649,11.1722578 6.75442122,9.66192937 C6.56381521,8.61028241 6.70441013,7.57556052 6.97738736,6.55523671 C7.88181596,3.17439299 10.9065066,0.592201536 14.5180922,0.11342155 C14.9721758,0.0531847167 15.4306721,0.0234482894 15.6745988,0" id="Fill-4" fill="#000000"></path>
                    </g>
                </g>
            </g>
        </g>
    </g>
</svg>