<?xml version="1.0" encoding="UTF-8"?>
<svg width="31px" height="31px" viewBox="0 0 31 31" version="1.1" xmlns="http://www.w3.org/2000/svg" xmlns:xlink="http://www.w3.org/1999/xlink">
    <!-- Generator: sketchtool 51.2 (57519) - http://www.bohemiancoding.com/sketch -->
    <title>2D1CF4DD-B32A-4C4B-9E3D-AA48C5AF9110</title>
    <desc>Created with sketchtool.</desc>
    <defs></defs>
    <g id="Updated" stroke="none" stroke-width="1" fill="none" fill-rule="evenodd">
        <g id="02-Communication" transform="translate(-1230.000000, -15.000000)" fill="#222222">
            <g id="My-Profile" transform="translate(1230.000000, 15.000000)">
                <path d="M23.6131719,23.5607835 C21.8150462,25.9083366 19.0679097,27.5066706 15.9211896,27.7064623 C15.67145,27.7064623 15.4217103,27.7564103 15.1719706,27.7564103 C14.9222309,27.7564103 14.6724912,27.7564103 14.4227515,27.7064623 C11.2760315,27.5066706 8.52889496,25.9083366 6.73076923,23.5607835 L6.73076923,22.8115645 C6.73076923,22.1622413 7.08040479,21.612814 7.87957178,21.1632826 C8.12931147,21.0134388 11.7255629,19.3152089 12.7245217,18.8157295 C12.7744696,18.7657816 12.8244175,18.7657816 12.8743655,18.7657816 L12.8743655,17.1674476 C12.3249382,16.6679682 12.0252506,16.068593 12.0252506,15.4692178 L11.9753026,15.1695301 C11.5757191,15.0196863 11.2260836,14.5701549 11.1761356,13.9707796 L11.1761356,13.9208317 C11.0762398,13.2215606 11.3259794,12.6721333 11.7255629,12.4723415 L11.675615,12.072758 L11.6256671,11.4234349 C11.6256671,10.0248926 12.7245217,8.07692308 15.2219185,8.07692308 C17.6693674,8.07692308 18.81817,10.0248926 18.81817,11.4234349 L18.768222,12.072758 L18.7182741,12.4723415 C19.1178576,12.6721333 19.3675973,13.2715085 19.2677014,13.9208317 L19.2677014,13.9707796 C19.1678055,14.5701549 18.81817,15.0196863 18.4685344,15.1695301 L18.4185865,15.4692178 C18.4185865,16.068593 18.1188989,16.7179162 17.5694716,17.1674476 L17.5694716,18.7657816 C17.6194195,18.7657816 17.6693674,18.8157295 17.7193154,18.8157295 C18.7182741,19.3152089 22.3145256,21.0134388 22.5642653,21.1632826 C23.3134843,21.612814 23.7130678,22.1122934 23.7130678,22.8115645 L23.6131719,23.5607835 Z" id="Path"></path>
                <path d="M30.1191823,13.0154706 C30.2215451,14.1303156 30.2474083,14.7251702 30.1909072,15.3205128 L30.1903121,16.0646003 C29.8513265,23.5222828 23.9575849,29.6411326 16.5910086,30.2474004 C16.3833842,30.2820044 16.1569852,30.3019808 15.8983394,30.3119287 C15.7127234,30.3190678 15.5653317,30.3205128 15.25617,30.3205128 C14.9470082,30.3205128 14.7996165,30.3190678 14.6140005,30.3119287 C14.3553548,30.3019808 14.1289557,30.2820044 13.9687026,30.2532934 C6.53116863,29.6391851 0.659838081,23.5639889 0.321432757,16.0384035 L0.321432757,15.3205128 C0.321432757,14.5111485 0.388346786,13.7583657 0.523683197,13.0154706 C1.62209277,5.73850717 7.86895939,0.320512821 15.3214328,0.320512821 C22.7310171,0.320512821 29.0241754,5.7610497 30.1191823,13.0154706 Z M28.9757225,13.1709424 C27.9585726,6.48809592 22.1534012,1.47435897 15.3214328,1.47435897 C8.44166137,1.47435897 2.67811847,6.47315993 1.66176146,13.204781 C1.53605295,13.8961779 1.47527891,14.5798858 1.47527891,15.3205128 L1.4746945,16.0124423 C1.78635378,22.9312784 7.2039264,28.5369612 14.1110225,29.1092535 C14.264383,29.1348136 14.4445785,29.1507132 14.6583464,29.1589351 C14.8243766,29.1653208 14.9616509,29.1666667 15.25617,29.1666667 C15.550689,29.1666667 15.6879633,29.1653208 15.8539935,29.1589351 C16.0677614,29.1507132 16.247957,29.1348136 16.4486887,29.1033605 C23.2840826,28.5389702 28.7250191,22.8902201 29.037061,16.0384035 L29.0394303,15.2682807 C29.0896853,14.7154755 29.0665132,14.1728573 28.9757225,13.1709424 Z" id="Path" fill-rule="nonzero"></path>
            </g>
        </g>
    </g>
</svg>