<?xml version="1.0" encoding="UTF-8"?>
<svg width="23px" height="22px" viewBox="0 0 23 22" version="1.1" xmlns="http://www.w3.org/2000/svg" xmlns:xlink="http://www.w3.org/1999/xlink">
    <!-- Generator: sketchtool 51.2 (57519) - http://www.bohemiancoding.com/sketch -->
    <title>A41882AF-5252-4EB9-964D-22E98B8AD232</title>
    <desc>Created with sketchtool.</desc>
    <defs></defs>
    <g id="Updated" stroke="none" stroke-width="1" fill="none" fill-rule="evenodd">
        <g id="02-Communication" transform="translate(-719.000000, -608.000000)" fill="#EEEEEE">
            <g id="Group-7-Copy-5" transform="translate(661.000000, 504.000000)">
                <g id="Group-8" transform="translate(0.000000, 59.000000)">
                    <g id="Pause-Call" transform="translate(58.000000, 45.000000)">
                        <g id="Group-10" transform="translate(10.000000, 0.000000)">
                            <polygon id="Fill-6" points="4.10526316 8.89473684 5.47368421 8.89473684 5.47368421 4.10526316 4.10526316 4.10526316"></polygon>
                            <path d="M1.61642305,6.50252891 C1.63399336,9.22694297 3.82337617,11.3972828 6.54047773,11.3836227 C9.22766914,11.3701656 11.4036965,9.15163437 11.3835363,6.44606016 C11.3633762,3.74947422 9.1454543,1.59675547 6.40809102,1.61691562 C3.78412227,1.63626328 1.59946211,3.86378281 1.61642305,6.50252891 M6.50381367,12.9922711 C2.91830195,13.0014625 0.0143253906,10.0778336 0.00858710937,6.45322031 C0.00310273437,2.9638375 2.9341457,0.017103125 6.41905977,0.00836875 C10.0575871,-0.000771875 12.9941145,2.89711094 12.9922863,6.49511484 C12.9904582,10.0710797 10.0823684,12.9830797 6.50381367,12.9922711" id="Fill-3"></path>
                            <polygon id="Fill-8" points="7.52631579 8.89473684 8.89473684 8.89473684 8.89473684 4.10526316 7.52631579 4.10526316"></polygon>
                        </g>
                        <path d="M11.8351977,22 C11.4987752,21.9375363 11.1586565,21.8905392 10.8266625,21.8097266 C9.83978131,21.5694683 8.94349155,21.1218532 8.09211391,20.5726862 C6.74827205,19.7058229 5.61078884,18.6072782 4.59981276,17.3756862 C3.6767431,16.2511647 2.88426032,15.0355665 2.20182619,13.7452018 C1.73373586,12.860095 1.31812437,11.9526672 0.978668221,11.0119161 C0.542936938,9.80443787 0.226843463,8.56627262 0.0825876754,7.28427384 C-0.0361783895,6.22910565 -0.0403278792,5.17769863 0.159545017,4.13620425 C0.429819759,2.72776667 1.02922923,1.50563036 2.19356208,0.608466731 C2.52290602,0.354675194 2.89238495,0.285392214 3.27253399,0.212101999 C3.62039373,0.145033542 3.96971799,0.0859092537 4.31740338,0.0181026228 C4.72070588,-0.0605305723 5.08094434,0.119759842 5.23203459,0.505333162 C5.55185912,1.32154362 5.86097866,2.14197222 6.17487535,2.9605378 C6.32966177,3.36417883 6.490655,3.76549988 6.63916488,4.17149603 C6.80298255,4.61928695 6.77773691,5.05523191 6.52883727,5.47026192 C6.43580502,5.62538409 6.34503929,5.78194746 6.25605192,5.93949506 C6.12612756,6.16948924 5.96750547,6.35758322 5.7361104,6.50704605 C4.9189399,7.03491135 4.6348219,7.82651598 4.70250392,8.77303187 C4.76328173,9.6226711 5.05263018,10.4049255 5.40582498,11.1666516 C5.80972026,12.0377682 6.288132,12.8658949 6.84378005,13.6480439 C7.30231609,14.2934899 7.81109931,14.893837 8.4688806,15.3412412 C9.2976627,15.9049607 10.1630928,16.0000447 11.0631834,15.4994215 C11.1650028,15.4428281 11.2908474,15.4151993 11.4081489,15.4052515 C11.6103232,15.3880626 11.8157055,15.4082042 12.0177403,15.3900311 C12.672209,15.3312583 13.1439606,15.6127489 13.5389293,16.1252532 C14.2722034,17.0767957 15.0325363,18.0072475 15.7863487,18.9425853 C16.0691068,19.2934644 16.0745115,19.6987575 15.782792,20.0439422 C15.4290044,20.4625224 15.0864448,20.8917184 14.7143856,21.2931449 C14.5864488,21.4311484 14.3922248,21.517304 14.2146684,21.5960778 C13.7603865,21.7976698 13.2825327,21.9194335 12.7881855,21.9728281 C12.7604641,21.975816 12.733998,21.9906498 12.7069392,22 L11.8351977,22 Z" id="Fill-1"></path>
                    </g>
                </g>
            </g>
        </g>
    </g>
</svg>